<svg width="841" height="211" viewBox="0 0 841 211" fill="none" xmlns="http://www.w3.org/2000/svg"><path d="M18.771 34.559c14.277-.12 21.416 10.558 21.416 21.175 0 10.558-7.079 21.116-21.356 21.116H4.974V34.56H18.77zm0 34.613c8.638.06 12.837-6.719 12.777-13.438-.06-6.658-4.319-13.317-12.657-13.437h-5.219v26.875h5.1zm49.12-1.5l4.62 4.08c-3.66 4.018-7.679 5.698-12.118 5.698-10.378 0-15.596-8.038-15.537-15.897 0-7.858 5.4-15.717 15.477-15.777 8.879-.06 15.117 5.94 14.997 14.997 0 .96-.18 2.58-.84 4.08H53.075c1.38 5.998 9.838 7.258 14.817 2.819zm-14.816-9.118h14.277c-.66-4.2-3.84-5.7-6.959-5.7-3.179 0-6.658 1.62-7.318 5.7zm24.767 30.354v-6.719c3.42.3 3.96-1.5 3.96-3.06V46.497h8.217V79.13c0 8.398-5.279 10.918-12.177 9.778zm12.177-45.951h-8.158v-8.099h8.158v8.099zm14.364 23.755c-.12 5.579 8.398 5.1 11.457 1.92v-4.8c-1.499-.66-3.419-1.08-5.338-1.08-3.12 0-6.059 1.14-6.119 3.96zm19.556 10.138H117.4l-1.08-2.7c-1.919 2.4-4.919 3.36-7.318 3.36-7.979 0-12.238-4.8-12.238-10.558 0-6.898 6.659-10.378 13.198-10.258 2.039.06 4.019.48 5.819 1.2-.18-4.26-2.88-5.819-5.999-5.879-3-.06-6.539.96-8.339 2.46l-2.76-5.1c3.78-3.059 7.619-3.899 11.819-3.899 6.958 0 13.437 3.72 13.437 12.598V76.85zm21.091-15.357c0-8.578 5.279-15.537 13.378-15.537 2.519 0 5.698.54 8.098 3.6l.72-3.12h6.059v41.812h-8.099V75.65c-1.499 1.2-4.079 1.68-5.459 1.68-9.238 0-14.697-7.319-14.697-15.837zm20.036 7.679V55.254c-1.439-1.8-3.119-2.28-4.559-2.28-4.679 0-7.258 3.48-7.258 8.52 0 7.738 6.058 10.797 11.817 7.678zm44.516 7.678l-6.719-.06-1.259-2.76c-1.68 2.28-4.619 3.36-8.039 3.18-6.718-.36-12.177-4.919-12.177-12.717V46.436h8.218v17.697c0 4.079 3.059 6.358 6.599 6.358 1.679 0 3.539-.48 5.159-1.56V46.437h8.218V76.85zm29.662-9.178l4.619 4.08c-3.659 4.018-7.678 5.698-12.117 5.698-10.378 0-15.597-8.038-15.537-15.897 0-7.858 5.399-15.717 15.477-15.777 8.878-.06 15.117 5.94 14.997 14.997 0 .96-.18 2.58-.84 4.08h-21.416c1.38 5.998 9.838 7.258 14.817 2.819zm-14.817-9.118h14.277c-.66-4.2-3.839-5.7-6.958-5.7-3.18 0-6.659 1.62-7.319 5.7z" fill="#040241"/><path d="M328.57 97.85c26.953 0 48.802-21.85 48.802-48.801 0-26.953-21.849-48.802-48.802-48.802-26.952 0-48.801 21.85-48.801 48.801 0 26.953 21.849 48.802 48.801 48.802z" fill="url(#paint0_linear_154_907)"/><path d="M347.759 49.135c5.491 0 9.944-4.452 9.944-9.944 0-5.491-4.453-9.943-9.944-9.943-5.492 0-9.944 4.452-9.944 9.943 0 5.492 4.452 9.944 9.944 9.944zM396.058 49.135c5.492 0 9.944-4.452 9.944-9.944 0-5.491-4.452-9.943-9.944-9.943-5.492 0-9.944 4.452-9.944 9.943 0 5.492 4.452 9.944 9.944 9.944zM373.089 96.648c-17.593 0-31.908-14.315-31.908-31.908v-7.583h13.156v7.583c0 10.338 8.414 18.752 18.752 18.752 10.337 0 18.751-8.414 18.751-18.752v-7.583h13.156v7.583c0 17.593-14.314 31.908-31.907 31.908zM590.842 69.786h.313l1.567-7.205 6.422-19.503h14.177L594.68 89.054c-3.76 9.634-11.044 9.399-19.581 8.224l.078-9.869c5.091 1.097 8.537.94 9.321-4.386l-16.762-39.945h14.099l7.205 19.503 1.802 7.205zM565.828 49.578l-7.362 7.441c-2.898-2.663-5.013-3.211-7.598-3.211-4.229 0-8.145 2.506-8.145 9.242 0 5.326 3.837 8.929 8.224 8.929 2.349 0 5.091-.862 8.067-3.995l7.597 7.206c-5.091 6.344-9.947 8.224-16.056 8.224-13.55 0-20.912-9.79-20.912-20.442.078-10.652 7.597-20.208 20.912-20.286 5.483 0 9.555 1.175 15.273 6.892zM511.69 43.235h13.158v39.553H511.69V43.235zM479.129 43.078h10.809l.862 4.386c1.879-3.994 6.5-5.248 10.652-4.543 2.898.47 5.482 1.88 7.362 3.995l-5.404 9.79c-3.368-3.838-11.044-3.368-11.279 2.742v23.34h-13.002v-39.71zM447.512 67.28v15.508h-13.784V27.962h18.249c14.255.078 21.069 10.025 20.912 19.894-.156 9.79-7.205 19.424-20.834 19.424h-4.543zm4.465-11.122c4.856 0 7.362-4.073 7.441-8.224.078-4.151-2.35-8.302-7.441-8.302h-4.7v16.526h4.7z" fill="#040241"/><rect x="511.69" y="27.148" width="13.158" height="13.158" rx="6.579" fill="#040241"/><path d="M341.014 28l1.606 3.226 3.494 1.613-3.494 1.612-1.606 3.226-1.606-3.226-3.494-1.612 3.494-1.613L341.014 28z" fill="#fff"/><path d="M642.615 34.739h27.654v7.438h-9.418V76.85h-8.758V42.177h-9.478v-7.438zm49.477 32.933l4.619 4.08c-3.659 4.018-7.679 5.698-12.118 5.698-10.378 0-15.597-8.038-15.537-15.897 0-7.858 5.399-15.717 15.477-15.777 8.879-.06 15.117 5.94 14.997 14.997 0 .96-.18 2.58-.839 4.08h-21.416c1.38 5.998 9.838 7.258 14.817 2.819zm-14.817-9.118h14.277c-.66-4.2-3.839-5.7-6.959-5.7-3.179 0-6.658 1.62-7.318 5.7zm63.149 17.636v-.9c-1.439 1.5-4.319 2.04-5.699 2.04-9.238 0-14.697-7.319-14.697-15.837 0-8.578 5.279-15.537 13.378-15.537 2.519 0 5.699.54 8.098 3.6l.72-3.12h6.059V76.49c0 8.339-6.539 12.058-13.558 12.058-4.799 0-9.358-1.32-13.437-5.4l3.839-4.858c3.72 4.079 15.297 5.879 15.297-2.1zm-.36-7.198V55.254c-1.439-1.8-3.119-2.28-4.559-2.28-4.679 0-7.258 3.48-7.258 8.52 0 5.998 3.239 8.697 7.798 8.697 1.14 0 2.76-.3 4.019-1.2zm44.392 7.858l-6.719-.06-1.259-2.76c-1.68 2.28-4.62 3.36-8.039 3.18-6.718-.36-12.177-4.919-12.177-12.717V46.436h8.218v17.697c0 4.079 3.059 6.358 6.599 6.358 1.679 0 3.539-.48 5.159-1.56V46.437h8.218V76.85zm7.947-30.414h8.218V76.85h-8.218V46.436zM806.14 33.24l-6.779 9.238h-7.618l5.159-9.238h9.238zm23.209 34.433l4.62 4.08c-3.66 4.018-7.679 5.698-12.118 5.698-10.378 0-15.597-8.038-15.537-15.897 0-7.858 5.399-15.717 15.477-15.777 8.878-.06 15.117 5.94 14.997 14.997 0 .96-.18 2.58-.84 4.08h-21.416c1.38 5.998 9.838 7.258 14.817 2.819zm-14.817-9.118h14.278c-.66-4.2-3.84-5.7-6.959-5.7-3.179 0-6.659 1.62-7.319 5.7z" fill="#040241"/><path d="M171.581 181.847l-4.719-15.037h-19.276l-4.719 15.037H130.55l19.036-56.549h15.037l19.356 56.549h-12.398zm-14.237-48.23h-.16l-3.039 12.477-3.199 10.078h12.557l-3.039-9.758-3.12-12.797zm46.744 39.352v8.958c-9.198 1.52-16.557-1.84-16.557-13.037v-43.032h10.958v43.032c0 2.079 1.04 4.479 5.599 4.079zm39.66-28.075c4.799-6.078 16.557-5.359 19.596 1.52 3.44-5.119 7.919-5.599 11.918-5.599 8.958 0 17.037 3.599 17.037 17.197v23.835h-10.398v-23.915c0-5.679-3.2-7.759-6.799-7.759-3.679 0-6.879 2.48-6.879 7.839v23.835h-10.158v-23.595c0-7.599-8.318-10.398-13.917-5.679v29.274H233.19v-40.552h8.959l1.599 3.599zm86.943 24.715l6.159 5.439c-4.879 5.359-10.238 7.599-16.157 7.599-13.837 0-20.796-10.718-20.716-21.196 0-10.478 7.199-20.956 20.636-21.036 11.837-.08 20.156 7.919 19.996 19.996 0 1.28-.24 3.44-1.12 5.439h-28.554c1.839 7.999 13.117 9.678 19.756 3.759zm-19.756-12.157h19.036c-.88-5.599-5.119-7.599-9.278-7.599-4.239 0-8.878 2.16-9.758 7.599zm33.023 40.472v-8.959c4.559.4 5.279-1.999 5.279-4.079v-43.511h10.957v43.511c0 11.198-7.038 14.557-16.236 13.038zm16.236-61.268h-10.878v-10.798h10.878v10.798zm19.871 24.955c0 7.438 5.839 11.358 10.718 11.358 5.119 0 10.558-3.92 10.558-11.358 0-7.918-5.439-11.358-10.558-11.358-4.879 0-10.718 3.68-10.718 11.358zm32.074 0c0 12.477-9.118 21.356-21.356 21.356-12.157 0-21.436-8.879-21.436-21.356 0-12.797 9.279-21.436 21.436-21.436 12.238 0 21.356 8.639 21.356 21.436zm8.333-20.716h8.878l.88 4.239c4.799-6.078 13.278-5.919 18.637-1.279l-4.64 8.238c-5.119-3.359-12.957-2.16-12.957 4.479v25.275h-10.798v-40.952zm91.341 20.476c0 11.358-7.278 21.116-19.596 21.116-1.839 0-5.279-.64-7.278-2.24v16.797h-10.798v-55.749h8.078l.96 4.159c3.199-4.079 7.439-4.799 10.798-4.799 10.798 0 17.836 9.278 17.836 20.716zm-26.714-8.318v18.556c7.678 4.159 15.756.08 15.756-10.238 0-6.719-3.439-11.358-9.678-11.358-1.919 0-4.159.64-6.078 3.04zm35.119-12.158h8.878l.88 4.239c4.799-6.078 13.277-5.919 18.636-1.279l-4.639 8.238c-5.119-3.359-12.957-2.16-12.957 4.479v25.275h-10.798v-40.952zm60.579 28.714l6.159 5.439c-4.879 5.359-10.238 7.599-16.157 7.599-13.837 0-20.796-10.718-20.716-21.196 0-10.478 7.199-20.956 20.636-21.036 11.838-.08 20.156 7.919 19.996 19.996 0 1.28-.24 3.44-1.12 5.439h-28.554c1.84 7.999 13.117 9.678 19.756 3.759zm-19.756-12.157h19.036c-.88-5.599-5.119-7.599-9.278-7.599-4.239 0-8.878 2.16-9.758 7.599zm73.613-10.798l-6.158 6.799c-2.48-2.32-5.519-3.44-8.399-3.52-5.759-.16-11.118 3.92-11.198 11.758-.08 6.639 4.799 11.198 10.398 11.518 3.2.16 6.639-1.04 9.518-4.08l6.239 6.399c-4.559 5.679-9.438 7.279-15.597 7.279-13.757 0-21.275-10.238-21.275-21.196.08-10.958 7.758-21.356 21.275-21.436 5.679 0 10.078 1.44 15.197 6.479zm18.127-9.918h-10.878v-10.798h10.878v10.798zm-10.878 4.559h10.958v40.552h-10.958v-40.552zm30.369 20.316c0 7.438 5.839 11.358 10.718 11.358 5.119 0 10.558-3.92 10.558-11.358 0-7.918-5.439-11.358-10.558-11.358-4.879 0-10.718 3.68-10.718 11.358zm32.074 0c0 12.477-9.118 21.356-21.356 21.356-12.157 0-21.435-8.879-21.435-21.356 0-12.797 9.278-21.436 21.435-21.436 12.238 0 21.356 8.639 21.356 21.436z" fill="#5F5AFF"/><defs><linearGradient id="paint0_linear_154_907" x1="335.172" y1=".247" x2="258.982" y2="97.85" gradientUnits="userSpaceOnUse"><stop offset=".005" stop-color="#57F8C7"/><stop offset=".42" stop-color="#45E0B1"/><stop offset=".69" stop-color="#09D1C7"/></linearGradient></defs></svg>