<svg width="424" height="244" viewBox="0 0 424 244" fill="none" xmlns="http://www.w3.org/2000/svg"><g filter="url(#filter0_d_154_825)"><rect x="12.113" y="8.65" width="399" height="219" rx="29.994" fill="#fff" fill-opacity=".4" shape-rendering="crispEdges"/><path d="M34.729 59.066V47.821h2.32v11.245h-2.32zm4.543-8.11h1.792l.32.72c.464-.608 1.248-.88 2.16-.832 1.791.096 3.247 1.456 3.247 3.535v4.687h-2.192v-4.59c0-1.616-1.807-2.304-3.135-1.424v6.014h-2.192v-8.11zm11.845 2.991c.16.048.304.064.448.096 1.408.24 2.864 1.008 2.864 2.624 0 1.92-1.824 2.607-3.168 2.607-1.056 0-2.207-.416-3.087-1.583l1.168-1.248a2.775 2.775 0 001.951.944c.432.016.976-.288.976-.72 0-.592-.624-.672-1.04-.752-1.328-.24-2.703-1.056-2.72-2.623 0-1.664 1.488-2.56 3.04-2.56.832 0 1.792.288 2.736 1.264l-1.168 1.184c-.576-.432-1.136-.592-1.584-.592-.368 0-.96.272-.96.783 0 .273.272.496.544.576zm8.656 3.264v1.855c-1.967.336-3.663-.448-3.583-2.607v-3.76h-1.216v-1.743h1.216v-2.112l2.128-.24v2.352h1.455V52.7h-1.455v3.71c0 .529.528.929 1.455.8zm3.032-.848c-.032 1.488 2.24 1.36 3.055.512v-1.28a3.643 3.643 0 00-1.424-.288c-.831 0-1.615.304-1.631 1.056zm5.215 2.703h-1.744l-.288-.72c-.512.64-1.311.896-1.951.896-2.128 0-3.264-1.28-3.264-2.815 0-1.84 1.776-2.767 3.52-2.736a4.552 4.552 0 011.551.32c-.048-1.135-.768-1.551-1.6-1.567-.8-.016-1.743.256-2.223.656l-.736-1.36c1.008-.816 2.032-1.04 3.151-1.04 1.856 0 3.584.992 3.584 3.36v5.006zm5.115-1.775v1.791c-1.84.304-3.311-.367-3.311-2.607v-8.606h2.191v8.606c0 .416.208.896 1.12.816zm3.151-.928c-.032 1.488 2.24 1.36 3.056.512v-1.28a3.643 3.643 0 00-1.424-.288c-.832 0-1.616.304-1.632 1.056zm5.215 2.703h-1.743l-.288-.72c-.512.64-1.312.896-1.952.896-2.127 0-3.263-1.28-3.263-2.815 0-1.84 1.776-2.767 3.52-2.736a4.552 4.552 0 011.55.32c-.047-1.135-.767-1.551-1.599-1.567-.8-.016-1.743.256-2.223.656l-.736-1.36c1.008-.816 2.031-1.04 3.151-1.04 1.856 0 3.583.992 3.583 3.36v5.006zm9.224-1.775v1.791c-1.84.304-3.311-.367-3.311-2.607v-8.606h2.191v8.606c0 .416.208.896 1.12.816zm3.152-.928c-.032 1.488 2.24 1.36 3.055.512v-1.28a3.643 3.643 0 00-1.424-.288c-.831 0-1.615.304-1.631 1.056zm5.215 2.703h-1.744l-.288-.72c-.512.64-1.312.896-1.951.896-2.128 0-3.264-1.28-3.264-2.815 0-1.84 1.776-2.767 3.52-2.736a4.552 4.552 0 011.551.32c-.048-1.135-.768-1.551-1.6-1.567-.8-.016-1.743.256-2.223.656l-.736-1.36c1.008-.816 2.032-1.04 3.151-1.04 1.856 0 3.584.992 3.584 3.36v5.006zm11.783-2.447l1.232 1.088c-.976 1.072-2.048 1.52-3.232 1.52-2.767 0-4.159-2.144-4.143-4.24 0-2.095 1.44-4.19 4.127-4.207 2.368-.016 4.031 1.584 3.999 4 0 .255-.048.687-.224 1.087h-5.71c.368 1.6 2.623 1.936 3.951.752zm-3.951-2.432h3.807c-.176-1.12-1.024-1.52-1.856-1.52-.848 0-1.775.433-1.951 1.52zm10.671-.575l1.648-2.704h2.48l-2.624 4.08 2.656 4.078h-2.48l-1.68-2.735-1.679 2.735h-2.528l2.672-4.063-2.624-4.095h2.544l1.615 2.703zm9.024 3.599v1.855c-1.967.336-3.663-.448-3.583-2.607v-3.76h-1.216v-1.743h1.216v-2.112l2.128-.24v2.352h1.455V52.7h-1.455v3.71c0 .529.528.929 1.455.8zm7.111-.592l1.231 1.088c-.975 1.072-2.047 1.52-3.231 1.52-2.767 0-4.159-2.144-4.143-4.24 0-2.095 1.44-4.19 4.127-4.207 2.368-.016 4.031 1.584 3.999 4 0 .255-.048.687-.224 1.087h-5.711c.368 1.6 2.624 1.936 3.952.752zm-3.952-2.432h3.808c-.176-1.12-1.024-1.52-1.856-1.52-.848 0-1.776.433-1.952 1.52zm7.553-3.231h1.792l.319.72c.464-.608 1.248-.88 2.16-.832 1.792.096 3.247 1.456 3.247 3.535v4.687h-2.191v-4.59c0-1.616-1.808-2.304-3.136-1.424v6.014h-2.191v-8.11zm11.845 2.991c.16.048.304.064.448.096 1.407.24 2.863 1.008 2.863 2.624 0 1.92-1.824 2.607-3.167 2.607-1.056 0-2.208-.416-3.088-1.583l1.168-1.248a2.775 2.775 0 001.952.944c.432.016.975-.288.975-.72 0-.592-.623-.672-1.039-.752-1.328-.24-2.704-1.056-2.72-2.623 0-1.664 1.488-2.56 3.04-2.56.831 0 1.791.288 2.735 1.264l-1.168 1.184c-.576-.432-1.136-.592-1.583-.592-.368 0-.96.272-.96.783 0 .273.272.496.544.576zm6.964-3.903h-2.175v-2.16h2.175v2.16zm-2.175.912h2.191v8.11h-2.191v-8.11zm6.261 4.063c0 1.488 1.168 2.272 2.144 2.272 1.024 0 2.111-.784 2.111-2.272 0-1.584-1.087-2.271-2.111-2.271-.976 0-2.144.736-2.144 2.271zm6.415 0c0 2.496-1.824 4.271-4.271 4.271-2.432 0-4.287-1.775-4.287-4.27 0-2.56 1.855-4.288 4.287-4.288 2.447 0 4.271 1.728 4.271 4.287zm-1.76-7.582l-1.807 2.463h-2.032l1.376-2.463h2.463zm3.491 3.519h1.791l.32.72c.464-.608 1.248-.88 2.16-.832 1.791.096 3.247 1.456 3.247 3.535v4.687h-2.192v-4.59c0-1.616-1.807-2.304-3.135-1.424v6.014h-2.191v-8.11zm19.456 5.663l1.232 1.088c-.976 1.072-2.048 1.52-3.231 1.52-2.768 0-4.16-2.144-4.144-4.24 0-2.095 1.44-4.19 4.128-4.207 2.367-.016 4.031 1.584 3.999 4 0 .255-.048.687-.224 1.087h-5.711c.368 1.6 2.623 1.936 3.951.752zm-3.951-2.432h3.807c-.176-1.12-1.024-1.52-1.855-1.52-.848 0-1.776.433-1.952 1.52zm7.552-3.231h1.792l.32.72c.464-.608 1.248-.88 2.16-.832 1.791.096 3.247 1.456 3.247 3.535v4.687h-2.192v-4.59c0-1.616-1.807-2.304-3.135-1.424v6.014h-2.192v-8.11zm17.361 6.255v1.855c-1.967.336-3.663-.448-3.583-2.607v-3.76h-1.216v-1.743h1.216v-2.112l2.128-.24v2.352h1.455V52.7h-1.455v3.71c0 .529.528.929 1.455.8zm9.058 1.855l-1.792-.016-.335-.735c-.448.607-1.232.895-2.144.847-1.792-.096-3.247-1.311-3.247-3.39v-4.816h2.191v4.72c0 1.087.816 1.695 1.76 1.695.448 0 .944-.128 1.376-.416v-5.999h2.191v8.11zm6.372-8.11h1.791l.32.72c.464-.608 1.248-.88 2.16-.832 1.792.096 3.247 1.456 3.247 3.535v4.687h-2.191v-4.59c0-1.616-1.808-2.304-3.136-1.424v6.014h-2.191v-8.11zm11.285 5.407c-.032 1.488 2.239 1.36 3.055.512v-1.28a3.645 3.645 0 00-1.424-.288c-.832 0-1.615.304-1.631 1.056zm5.215 2.703h-1.744l-.288-.72c-.512.64-1.312.896-1.952.896-2.127 0-3.263-1.28-3.263-2.815 0-1.84 1.776-2.767 3.519-2.736a4.554 4.554 0 011.552.32c-.048-1.135-.768-1.551-1.6-1.567-.8-.016-1.743.256-2.223.656l-.736-1.36c1.008-.816 2.031-1.04 3.151-1.04 1.856 0 3.584.992 3.584 3.36v5.006zm4.827-1.391h.112l.32-2.176 1.407-4.591h2.336l-2.768 8.19h-2.735l-2.751-8.19h2.335l1.392 4.56.352 2.207zm10.814-1.056l1.232 1.088c-.976 1.072-2.048 1.52-3.231 1.52-2.768 0-4.159-2.144-4.143-4.24 0-2.095 1.439-4.19 4.127-4.207 2.367-.016 4.031 1.584 3.999 4 0 .255-.048.687-.224 1.087h-5.711c.368 1.6 2.624 1.936 3.951.752zm-3.951-2.432h3.807c-.176-1.12-1.023-1.52-1.855-1.52-.848 0-1.776.433-1.952 1.52zm12.731 4.703v-.24c-.384.4-1.151.544-1.519.544-2.464 0-3.92-1.951-3.92-4.223 0-2.287 1.408-4.143 3.568-4.143.672 0 1.519.144 2.159.96l.192-.832h1.616v8.014c0 2.224-1.744 3.216-3.615 3.216-1.28 0-2.496-.352-3.584-1.44l1.024-1.296c.992 1.088 4.079 1.568 4.079-.56zm-.096-1.92v-3.662c-.384-.48-.831-.608-1.215-.608-1.248 0-1.936.927-1.936 2.271 0 1.6.864 2.32 2.08 2.32.304 0 .735-.08 1.071-.32zm5.999-.607c-.032 1.488 2.24 1.36 3.056.512v-1.28a3.645 3.645 0 00-1.424-.288c-.832 0-1.616.304-1.632 1.056zm5.215 2.703h-1.743l-.288-.72c-.512.64-1.312.896-1.952.896-2.127 0-3.263-1.28-3.263-2.815 0-1.84 1.775-2.767 3.519-2.736a4.554 4.554 0 011.552.32c-.048-1.135-.768-1.551-1.6-1.567-.8-.016-1.744.256-2.224.656l-.735-1.36c1.007-.816 2.031-1.04 3.151-1.04 1.856 0 3.583.992 3.583 3.36v5.006zm1.596-4.015c0-2.271 1.456-4.223 3.919-4.223.368 0 1.04.128 1.44.448l-.016-3.407h2.192v11.197h-1.616l-.192-.831c-.64.815-1.488.96-2.16.96-2.159 0-3.567-1.856-3.567-4.144zm5.343 1.664v-3.663c-.336-.24-.768-.32-1.072-.32-1.216 0-2.079.72-2.079 2.32 0 1.343.688 2.27 1.935 2.27.384 0 .832-.127 1.216-.607zm5.862-1.696c0 1.488 1.167 2.272 2.143 2.272 1.024 0 2.112-.784 2.112-2.272 0-1.584-1.088-2.271-2.112-2.271-.976 0-2.143.736-2.143 2.271zm6.414 0c0 2.496-1.823 4.271-4.271 4.271-2.431 0-4.287-1.775-4.287-4.27 0-2.56 1.856-4.288 4.287-4.288 2.448 0 4.271 1.728 4.271 4.287zm1.667-4.143h1.776l.176.848c.96-1.216 2.655-1.184 3.727-.256l-.928 1.648c-1.024-.672-2.591-.432-2.591.895v5.055h-2.16v-8.19zm8.158 8.222h-2.287v-2.175h2.287v2.175z" fill="#040241"/><g opacity=".4"><circle cx="375.461" cy="55.566" r="15.922" fill="#B9C9F8"/><path d="M374.305 59.94c0 .38-.073.737-.218 1.07a2.725 2.725 0 01-.586.876 2.83 2.83 0 01-.875.593c-.333.14-.69.211-1.07.211h-.477c-.38 0-.739-.07-1.078-.21a2.826 2.826 0 01-1.468-1.47 2.718 2.718 0 01-.211-1.07v-6.014c0-.38.07-.737.211-1.07.146-.333.344-.625.594-.875s.541-.445.874-.586a2.698 2.698 0 011.078-.218h.477c.38 0 .737.073 1.07.218a2.723 2.723 0 011.461 1.461c.145.333.218.69.218 1.07v6.015zm-1.007-6.014a1.796 1.796 0 00-1.094-1.648 1.706 1.706 0 00-.695-.14h-.383c-.25 0-.484.046-.703.14a1.935 1.935 0 00-.57.383 1.812 1.812 0 00-.383.57c-.093.213-.14.445-.14.695v6.015a1.778 1.778 0 00.523 1.273c.167.161.357.289.57.383.219.093.453.14.703.14h.383a1.791 1.791 0 001.265-.523 1.92 1.92 0 00.383-.57c.094-.22.141-.453.141-.703v-6.015zm3.421 8.608v-.96h2.671v-9.28l-2.671 1.125v-.961l2.671-1.125h1.008v10.24h2.671v.96h-6.35z" fill="#DAE3FF"/></g><circle cx="354.733" cy="55.566" r="15.922" fill="#B9C9F8"/><path d="M350.098 57.239c0 .88.816 1.375 1.631 1.375.816 0 1.632-.496 1.632-1.375V52.63c0-.88-.848-1.375-1.68-1.36-.799.017-1.583.513-1.583 1.36v4.608zm-2.24-4.608c0-2.271 1.872-3.423 3.807-3.423 1.952-.032 3.936 1.104 3.936 3.423v4.608c0 1.04-.368 1.823-.992 2.399-.72.688-1.792 1.04-2.88 1.04-1.071.016-2.159-.336-2.895-1.04-.608-.592-.976-1.376-.976-2.4v-4.607zm10.504-1.231h-1.264v-2.064h3.519v11.198h-2.255V51.4zM35.44 123.681h2.842c3.08-.028 4.703 2.393 4.745 4.773.056 2.435-1.554 5.025-4.731 5.025h-2.855v-9.798zm.77 9.084h2.072c2.702.042 4.031-2.24 3.975-4.297-.042-1.988-1.371-4.088-3.947-4.088h-2.1v8.385zm12.087.126c.798 0 1.638-.294 2.142-.924l.546.378c-.672.826-1.624 1.232-2.688 1.232-2.281 0-3.443-1.946-3.43-3.71 0-1.777 1.19-3.569 3.416-3.583 1.932-.014 3.29 1.498 3.29 3.401 0 .168-.014.28-.028.462H45.54c.098 1.4 1.078 2.744 2.757 2.744zm-2.757-3.36h5.389c-.084-1.525-1.176-2.547-2.646-2.575-1.651.014-2.547 1.148-2.743 2.575zm10.113.042c1.106.224 2.198.798 2.198 1.988 0 1.4-1.358 2.044-2.394 2.044-.84 0-1.651-.35-2.17-1.022.14-.14.323-.322.435-.448.853 1.176 3.289 1.134 3.415-.588-.014-.798-.98-1.204-1.624-1.33-1.078-.182-2.071-.756-2.085-1.917 0-2.086 2.841-2.604 4.185-1.344l-.434.476c-.896-.868-3.051-.588-3.037.868.014.826.895 1.147 1.511 1.273zm9.537-2.449l-.391.476c-.518-.434-1.19-.63-1.876-.63-1.4-.014-2.73 1.134-2.744 3.009 0 1.372.938 2.912 2.758 2.912.7 0 1.372-.266 1.904-.7.167.21.28.322.433.504a3.495 3.495 0 01-2.337.896c-2.282 0-3.485-1.848-3.485-3.626 0-1.791 1.245-3.667 3.485-3.681.91 0 1.61.224 2.253.84zm6.89 4.885v-1.946c-.615-.392-1.399-.56-2.029-.56-1.623 0-2.45.756-2.45 1.722 0 1.008.757 1.75 2.31 1.75.728 0 1.652-.35 2.17-.966zm.687 1.47h-.56l-.14-.756a3.277 3.277 0 01-2.156.91c-2.057.014-3.023-1.078-3.023-2.45 0-1.246 1.092-2.351 3.15-2.365.587 0 1.357.182 2.043.587v-.587c0-1.526-1.092-1.89-2.254-1.89-.811 0-1.357.196-2.043.63l-.322-.518c.7-.532 1.567-.784 2.407-.784 1.47 0 2.898.658 2.898 2.562v4.661zm2.553-7.097h.588l.112.924c.84-1.344 2.52-1.078 3.332-.728l-.294.602c-1.33-.644-3.066.084-3.024 1.75v4.549h-.714v-7.097zm8.654-.056a2.6 2.6 0 011.82.728l.125-.672h.602v7.195c0 1.987-1.442 2.673-2.94 2.659-.993-.014-2-.378-2.659-1.12l.42-.476c.532.574 1.386.924 2.198.924 1.231 0 2.267-.434 2.267-1.987v-.854c-.504.672-1.316.84-1.945.826-4.381-.056-4.367-7.237.112-7.223zm.028 6.565c.7 0 1.273-.28 1.791-.98v-4.115c-.462-.56-1.162-.854-1.96-.826-3.415.21-3.4 5.851.169 5.921zm9.867-.882v-1.946c-.615-.392-1.4-.56-2.03-.56-1.623 0-2.449.756-2.449 1.722 0 1.008.756 1.75 2.31 1.75.728 0 1.652-.35 2.17-.966zm.686 1.47h-.56l-.14-.756a3.277 3.277 0 01-2.155.91c-2.058.014-3.023-1.078-3.023-2.45 0-1.246 1.091-2.351 3.149-2.365.588 0 1.358.182 2.043.587v-.587c0-1.526-1.091-1.89-2.253-1.89-.812 0-1.358.196-2.044.63l-.322-.518c.7-.532 1.568-.784 2.408-.784 1.47 0 2.897.658 2.897 2.562v4.661zm9.089-.588c.797 0 1.637-.294 2.141-.924l.546.378c-.672.826-1.624 1.232-2.687 1.232-2.282 0-3.444-1.946-3.43-3.71 0-1.777 1.19-3.569 3.416-3.583 1.931-.014 3.289 1.498 3.289 3.401 0 .168-.014.28-.028.462h-6.005c.098 1.4 1.078 2.744 2.758 2.744zm-2.758-3.36h5.389c-.084-1.525-1.176-2.547-2.645-2.575-1.652.014-2.548 1.148-2.744 2.575zm12.575 3.948h-.728v-7.111h.728v7.111zm.014-9.784v1.077h-.756v-1.077h.756zm3.417 4.031v5.753h-.728v-7.097h.63l.098.602c.504-.49 1.274-.742 1.973-.742 1.834.028 3.374 1.162 3.374 3.163v4.074h-.728v-4.074c-.014-1.483-1.26-2.435-2.674-2.491-.797-.014-1.483.252-1.945.812zm9.813 1.847c1.106.224 2.198.798 2.198 1.988 0 1.4-1.358 2.044-2.394 2.044-.839 0-1.651-.35-2.169-1.022.14-.14.322-.322.434-.448.854 1.176 3.289 1.134 3.415-.588-.014-.798-.98-1.204-1.624-1.33-1.077-.182-2.071-.756-2.085-1.917 0-2.086 2.841-2.604 4.185-1.344l-.434.476c-.896-.868-3.051-.588-3.037.868.014.826.896 1.147 1.511 1.273zm6.612 3.304v.658c-1.246.056-2.169-.602-2.169-1.988v-4.563h-1.05v-.602h1.05v-1.736l.713-.154v1.89h1.442v.602h-1.442v4.563c0 .84.546 1.344 1.456 1.33zm6.836-.868v-1.946c-.616-.392-1.4-.56-2.029-.56-1.624 0-2.45.756-2.45 1.722 0 1.008.756 1.75 2.31 1.75.727 0 1.651-.35 2.169-.966zm.686 1.47h-.56l-.14-.756a3.277 3.277 0 01-2.155.91c-2.058.014-3.024-1.078-3.024-2.45 0-1.246 1.092-2.351 3.15-2.365.587 0 1.357.182 2.043.587v-.587c0-1.526-1.092-1.89-2.253-1.89-.812 0-1.358.196-2.044.63l-.322-.518c.7-.532 1.568-.784 2.408-.784 1.469 0 2.897.658 2.897 2.562v4.661zm4.345-.63v.644c-1.203.056-1.875-.616-1.875-1.988v-7.824h.742v7.824c0 .84.238 1.358 1.133 1.344zm6.738-.84v-1.946c-.616-.392-1.399-.56-2.029-.56-1.624 0-2.45.756-2.45 1.722 0 1.008.756 1.75 2.31 1.75.728 0 1.651-.35 2.169-.966zm.686 1.47h-.56l-.14-.756a3.275 3.275 0 01-2.155.91c-2.058.014-3.024-1.078-3.024-2.45 0-1.246 1.092-2.351 3.15-2.365.588 0 1.357.182 2.043.587v-.587c0-1.526-1.092-1.89-2.253-1.89-.812 0-1.358.196-2.044.63l-.322-.518c.7-.532 1.568-.784 2.408-.784 1.469 0 2.897.658 2.897 2.562v4.661zm6.877-5.753v5.753h-.728v-7.097h.63l.098.602c.504-.49 1.274-.742 1.973-.742 1.834.028 3.374 1.162 3.374 3.163v4.074h-.728v-4.074c-.014-1.483-1.26-2.435-2.674-2.491-.797-.014-1.483.252-1.945.812zm13.201 4.241v-5.585h.728v7.097h-.63l-.098-.826c-.434.574-1.288.952-1.988.952-1.833-.028-3.359-.826-3.359-3.094v-4.129h.728v4.129c0 1.932 1.259 2.366 2.673 2.422a2.356 2.356 0 001.946-.966zm6.356.924c.798 0 1.638-.294 2.142-.924l.546.378c-.672.826-1.624 1.232-2.688 1.232-2.281 0-3.443-1.946-3.429-3.71 0-1.777 1.19-3.569 3.415-3.583 1.932-.014 3.29 1.498 3.29 3.401 0 .168-.014.28-.028.462h-6.005c.098 1.4 1.078 2.744 2.757 2.744zm-2.757-3.36h5.389c-.084-1.525-1.176-2.547-2.646-2.575-1.651.014-2.547 1.148-2.743 2.575zm10.114.042c1.105.224 2.197.798 2.197 1.988 0 1.4-1.358 2.044-2.393 2.044-.84 0-1.652-.35-2.17-1.022.14-.14.322-.322.434-.448.854 1.176 3.289 1.134 3.415-.588-.014-.798-.98-1.204-1.623-1.33-1.078-.182-2.072-.756-2.086-1.917 0-2.086 2.841-2.604 4.185-1.344l-.434.476c-.896-.868-3.051-.588-3.037.868.014.826.896 1.147 1.512 1.273zm6.611 3.304v.658c-1.245.056-2.169-.602-2.169-1.988v-4.563h-1.05v-.602h1.05v-1.736l.714-.154v1.89h1.441v.602h-1.441v4.563c0 .84.545 1.344 1.455 1.33zm2.175-6.495h.588l.112.924c.84-1.344 2.52-1.078 3.331-.728l-.294.602c-1.329-.644-3.065.084-3.023 1.75v4.549h-.714v-7.097zm10.074 5.627v-1.946c-.616-.392-1.399-.56-2.029-.56-1.624 0-2.45.756-2.45 1.722 0 1.008.756 1.75 2.31 1.75.728 0 1.651-.35 2.169-.966zm.686 1.47h-.56l-.14-.756a3.275 3.275 0 01-2.155.91c-2.058.014-3.024-1.078-3.024-2.45 0-1.246 1.092-2.351 3.15-2.365.588 0 1.357.182 2.043.587v-.587c0-1.526-1.092-1.89-2.253-1.89-.812 0-1.358.196-2.044.63l-.322-.518c.7-.532 1.568-.784 2.408-.784 1.469 0 2.897.658 2.897 2.562v4.661zm9.088-.588c.798 0 1.638-.294 2.142-.924l.546.378c-.672.826-1.624 1.232-2.688 1.232-2.281 0-3.443-1.946-3.429-3.71 0-1.777 1.19-3.569 3.415-3.583 1.932-.014 3.29 1.498 3.29 3.401 0 .168-.014.28-.028.462h-6.005c.098 1.4 1.078 2.744 2.757 2.744zm-2.757-3.36h5.389c-.084-1.525-1.176-2.547-2.646-2.575-1.651.014-2.547 1.148-2.743 2.575zm10.505-.056l2.044-3.093h.868l-2.436 3.541c.784 1.092 1.722 2.45 2.506 3.556h-.84l-2.142-3.136-2.099 3.136h-.854l2.463-3.556c-.783-1.119-1.651-2.407-2.435-3.541h.882l2.043 3.093zm7.259 3.402v.658c-1.246.056-2.17-.602-2.17-1.988v-4.563h-1.049v-.602h1.049v-1.736l.714-.154v1.89h1.442v.602h-1.442v4.563c0 .84.546 1.344 1.456 1.33zm5.114.014c.798 0 1.638-.294 2.142-.924l.546.378c-.672.826-1.624 1.232-2.688 1.232-2.281 0-3.443-1.946-3.429-3.71 0-1.777 1.19-3.569 3.415-3.583 1.932-.014 3.29 1.498 3.29 3.401 0 .168-.014.28-.028.462h-6.005c.098 1.4 1.078 2.744 2.757 2.744zm-2.757-3.36h5.389c-.084-1.525-1.176-2.547-2.646-2.575-1.651.014-2.547 1.148-2.743 2.575zm8.98-1.805v5.753h-.728v-7.097h.63l.098.602c.503-.49 1.273-.742 1.973-.742 1.834.028 3.374 1.162 3.374 3.163v4.074h-.728v-4.074c-.014-1.483-1.26-2.435-2.674-2.491-.798-.014-1.484.252-1.945.812zm9.813 1.847c1.106.224 2.198.798 2.198 1.988 0 1.4-1.358 2.044-2.394 2.044-.84 0-1.651-.35-2.169-1.022.14-.14.322-.322.434-.448.853 1.176 3.289 1.134 3.415-.588-.014-.798-.98-1.204-1.624-1.33-1.078-.182-2.071-.756-2.085-1.917 0-2.086 2.841-2.604 4.185-1.344l-.434.476c-.896-.868-3.051-.588-3.037.868.014.826.895 1.147 1.511 1.273zm5.072 3.906h-.728v-7.111h.728v7.111zm.014-9.784v1.077h-.756v-1.077h.756zm2.843 6.242c0 1.946 1.414 3.08 2.786 3.08 1.385 0 2.799-1.134 2.799-3.08 0-1.945-1.414-3.037-2.799-3.037-1.372 0-2.786 1.092-2.786 3.037zm6.313 0c0 1.988-1.498 3.71-3.527 3.71-2.016 0-3.514-1.722-3.514-3.71 0-1.987 1.498-3.709 3.514-3.709 2.029 0 3.527 1.722 3.527 3.709zm-2.128-6.13h-.867l-.84 1.455h.644l1.063-1.455zm4.987 3.919v5.753h-.728v-7.097h.63l.098.602c.504-.49 1.274-.742 1.974-.742 1.833.028 3.373 1.162 3.373 3.163v4.074h-.728v-4.074c-.014-1.483-1.26-2.435-2.673-2.491-.798-.014-1.484.252-1.946.812zm14.487 5.165c.797 0 1.637-.294 2.141-.924l.546.378c-.672.826-1.624 1.232-2.687 1.232-2.282 0-3.444-1.946-3.43-3.71 0-1.777 1.19-3.569 3.416-3.583 1.931-.014 3.289 1.498 3.289 3.401 0 .168-.014.28-.028.462h-6.005c.098 1.4 1.078 2.744 2.758 2.744zm-2.758-3.36h5.389c-.084-1.525-1.176-2.547-2.645-2.575-1.652.014-2.548 1.148-2.744 2.575zm8.98-1.805v5.753h-.728v-7.097h.63l.098.602c.504-.49 1.274-.742 1.973-.742 1.834.028 3.374 1.162 3.374 3.163v4.074h-.728v-4.074c-.014-1.483-1.26-2.435-2.674-2.491-.797-.014-1.483.252-1.945.812zM42.915 141.87l-.504.504c-.742-.7-1.778-1.176-2.827-1.148-2.646.042-4.06 2.296-4.06 4.382 0 2.071 1.456 4.325 4.06 4.325 1.12 0 2.323-.56 3.093-1.358l.532.434c-.896.98-2.212 1.652-3.625 1.652-3.15 0-4.83-2.576-4.83-5.053 0-2.478 1.68-5.095 4.83-5.095a4.76 4.76 0 013.331 1.357zm3.239 2.884v5.725h-.728v-9.798h.728v3.345c.504-.49 1.274-.742 1.974-.742 1.833.028 3.247 1.162 3.247 3.163v4.032h-.728v-4.032c-.014-1.483-1.134-2.435-2.547-2.491-.798-.014-1.484.238-1.946.798zm7.815-1.372h.588l.112.924c.84-1.344 2.52-1.078 3.332-.728l-.294.602c-1.33-.644-3.066.084-3.024 1.75v4.549h-.714v-7.097zm5.595 3.555c0 1.946 1.413 3.08 2.785 3.08 1.386 0 2.8-1.134 2.8-3.08 0-1.945-1.414-3.037-2.8-3.037-1.372 0-2.785 1.092-2.785 3.037zm6.312 0c0 1.988-1.497 3.71-3.527 3.71-2.015 0-3.513-1.722-3.513-3.71 0-1.987 1.498-3.709 3.513-3.709 2.03 0 3.527 1.722 3.527 3.709zm4.805-3.023c-.798-.014-1.484.252-1.946.812v5.753h-.727v-7.097h.63l.097.602c.504-.49 1.274-.728 1.974-.728 1.218.056 2.03.364 2.463 1.414.616-1.246 1.512-1.4 2.45-1.4 1.526 0 2.772.826 2.772 2.981v4.228h-.728v-4.228c0-1.651-.966-2.323-2.044-2.323-1.106 0-2.058.504-2.072 2.184v4.367h-.685l-.028-4.367c-.056-1.47-.798-2.198-2.156-2.198zm13.238 5.977c.798 0 1.638-.294 2.142-.924l.545.378c-.671.826-1.623 1.232-2.687 1.232-2.282 0-3.443-1.946-3.43-3.71 0-1.777 1.19-3.569 3.416-3.583 1.932-.014 3.29 1.498 3.29 3.401 0 .168-.015.28-.029.462h-6.004c.097 1.4 1.077 2.744 2.757 2.744zm-2.757-3.36h5.388c-.084-1.525-1.175-2.547-2.645-2.575-1.652.014-2.547 1.148-2.743 2.575zm7.412 5.767l.825-2.743h.854l-1.12 2.743h-.56zm12.865-11.631v.727h-4.115v3.808h4.059v.714H97.31v3.821h4.129v.728h-4.885v-9.798h4.885zm5.224 2.687c.588 0 1.26.168 1.806.7v-3.387h.742v9.812h-.602l-.112-.756c-.504.672-1.316.84-1.946.826-4.339-.056-4.325-7.209.112-7.195zm.028 6.537c.7 0 1.274-.28 1.792-.98v-4.115c-.462-.56-1.162-.826-1.96-.798-3.373.21-3.317 5.823.168 5.893zm8.161-6.565a2.6 2.6 0 011.82.728l.126-.672h.602v7.195c0 1.987-1.442 2.673-2.94 2.659-.993-.014-2.001-.378-2.659-1.12l.42-.476c.532.574 1.385.924 2.197.924 1.232 0 2.268-.434 2.268-1.987v-.854c-.504.672-1.316.84-1.946.826-4.381-.056-4.367-7.237.112-7.223zm.028 6.565c.7 0 1.274-.28 1.792-.98v-4.115c-.462-.56-1.162-.854-1.96-.826-3.415.21-3.401 5.851.168 5.921zm8.146 0c.798 0 1.638-.294 2.142-.924l.546.378c-.672.826-1.624 1.232-2.688 1.232-2.281 0-3.443-1.946-3.429-3.71 0-1.777 1.19-3.569 3.415-3.583 1.932-.014 3.29 1.498 3.29 3.401 0 .168-.014.28-.028.462h-6.005c.098 1.4 1.078 2.744 2.757 2.744zm-2.757-3.36h5.389c-.084-1.525-1.176-2.547-2.646-2.575-1.651.014-2.547 1.148-2.743 2.575zm12.001.406c0 1.946 1.413 3.08 2.785 3.08 1.386 0 2.8-1.134 2.8-3.08 0-1.945-1.414-3.037-2.8-3.037-1.372 0-2.785 1.092-2.785 3.037zm6.312 0c0 1.988-1.497 3.71-3.527 3.71-2.015 0-3.513-1.722-3.513-3.71 0-1.987 1.498-3.709 3.513-3.709 2.03 0 3.527 1.722 3.527 3.709zm10.892-6.256v.713h-4.144v3.892h4.088v.728h-4.088v4.465h-.741v-9.798h4.885zm2.876 9.798h-.728v-7.111h.728v7.111zm.013-9.784v1.077h-.755v-1.077h.755zm2.69 2.687h.587l.112.924c.84-1.344 2.52-1.078 3.332-.728l-.294.602c-1.33-.644-3.066.084-3.024 1.75v4.549h-.713v-7.097zm8.352 6.509c.798 0 1.638-.294 2.142-.924l.545.378c-.671.826-1.623 1.232-2.687 1.232-2.282 0-3.443-1.946-3.429-3.71 0-1.777 1.189-3.569 3.415-3.583 1.932-.014 3.289 1.498 3.289 3.401 0 .168-.014.28-.028.462h-6.004c.098 1.4 1.077 2.744 2.757 2.744zm-2.757-3.36h5.388c-.084-1.525-1.175-2.547-2.645-2.575-1.652.014-2.547 1.148-2.743 2.575zm9.175-3.877v.728h1.568v.63h-1.568v6.467h-.728v-6.467h-1.217v-.63h1.217v-.728c0-1.386.924-2.169 2.45-1.987v.615c-1.372-.097-1.722.532-1.722 1.372zm3.427 4.283c0 1.946 1.414 3.08 2.785 3.08 1.386 0 2.8-1.134 2.8-3.08 0-1.945-1.414-3.037-2.8-3.037-1.371 0-2.785 1.092-2.785 3.037zm6.313 0c0 1.988-1.498 3.71-3.528 3.71-2.015 0-3.513-1.722-3.513-3.71 0-1.987 1.498-3.709 3.513-3.709 2.03 0 3.528 1.722 3.528 3.709zm4.289-.462l2.043-3.093h.868l-2.435 3.541c.783 1.092 1.721 2.45 2.505 3.556h-.84l-2.141-3.136-2.1 3.136h-.854l2.464-3.556c-.784-1.119-1.652-2.407-2.436-3.541h.882l2.044 3.093zm13.779-2.351l-.392.476c-.518-.434-1.19-.63-1.876-.63-1.4-.014-2.729 1.134-2.743 3.009 0 1.372.937 2.912 2.757 2.912.7 0 1.372-.266 1.904-.7.168.21.28.322.434.504a3.496 3.496 0 01-2.338.896c-2.281 0-3.485-1.848-3.485-3.626 0-1.791 1.246-3.667 3.485-3.681.91 0 1.61.224 2.254.84zm2.246 2.813c0 1.946 1.414 3.08 2.786 3.08 1.385 0 2.799-1.134 2.799-3.08 0-1.945-1.414-3.037-2.799-3.037-1.372 0-2.786 1.092-2.786 3.037zm6.313 0c0 1.988-1.498 3.71-3.527 3.71-2.016 0-3.514-1.722-3.514-3.71 0-1.987 1.498-3.709 3.514-3.709 2.029 0 3.527 1.722 3.527 3.709zm2.859-2.211v5.753h-.728v-7.097h.63l.098.602c.504-.49 1.274-.742 1.974-.742 1.833.028 3.373 1.162 3.373 3.163v4.074h-.728v-4.074c-.014-1.483-1.26-2.435-2.673-2.491-.798-.014-1.484.252-1.946.812zm16.796 4.241v-5.585h.728v7.097h-.63l-.098-.826c-.434.574-1.288.952-1.988.952-1.833-.028-3.359-.826-3.359-3.094v-4.129h.728v4.129c0 1.932 1.26 2.366 2.673 2.422a2.356 2.356 0 001.946-.966zm4.145-4.241v5.753h-.728v-7.097h.63l.098.602c.504-.49 1.274-.742 1.974-.742 1.833.028 3.373 1.162 3.373 3.163v4.074h-.728v-4.074c-.014-1.483-1.259-2.435-2.673-2.491-.798-.014-1.484.252-1.946.812zm13.409 1.847c1.106.224 2.197.798 2.197 1.988 0 1.4-1.357 2.044-2.393 2.044-.84 0-1.652-.35-2.17-1.022.14-.14.322-.322.434-.448.854 1.176 3.29 1.134 3.416-.588-.014-.798-.98-1.204-1.624-1.33-1.078-.182-2.072-.756-2.086-1.917 0-2.086 2.842-2.604 4.185-1.344l-.433.476c-.896-.868-3.052-.588-3.038.868.014.826.896 1.147 1.512 1.273zm4.498.364c0 1.946 1.414 3.08 2.785 3.08 1.386 0 2.8-1.134 2.8-3.08 0-1.945-1.414-3.037-2.8-3.037-1.371 0-2.785 1.092-2.785 3.037zm6.313 0c0 1.988-1.498 3.71-3.528 3.71-2.015 0-3.513-1.722-3.513-3.71 0-1.987 1.498-3.709 3.513-3.709 2.03 0 3.528 1.722 3.528 3.709zm3.923 2.912v.644c-1.204.056-1.876-.616-1.876-1.988v-7.824h.742v7.824c0 .84.238 1.358 1.134 1.344zm2.23-2.912c0 1.946 1.414 3.08 2.786 3.08 1.385 0 2.799-1.134 2.799-3.08 0-1.945-1.414-3.037-2.799-3.037-1.372 0-2.786 1.092-2.786 3.037zm6.313 0c0 1.988-1.498 3.71-3.527 3.71-2.016 0-3.514-1.722-3.514-3.71 0-1.987 1.498-3.709 3.514-3.709 2.029 0 3.527 1.722 3.527 3.709zm10.919-2.813l-.392.476c-.518-.434-1.19-.63-1.875-.63-1.4-.014-2.73 1.134-2.744 3.009 0 1.372.938 2.912 2.758 2.912.699 0 1.371-.266 1.903-.7.168.21.28.322.434.504a3.495 3.495 0 01-2.337.896c-2.282 0-3.486-1.848-3.486-3.626 0-1.791 1.246-3.667 3.486-3.681.909 0 1.609.224 2.253.84zm4.021 5.725v.644c-1.204.056-1.876-.616-1.876-1.988v-7.824h.742v7.824c0 .84.238 1.358 1.134 1.344zm2.805.63h-.728v-7.111h.728v7.111zm.014-9.784v1.077h-.756v-1.077h.756zm7.882 3.429l-.392.476c-.518-.434-1.19-.63-1.876-.63-1.4-.014-2.729 1.134-2.743 3.009 0 1.372.938 2.912 2.757 2.912.7 0 1.372-.266 1.904-.7.168.21.28.322.434.504a3.496 3.496 0 01-2.338.896c-2.281 0-3.485-1.848-3.485-3.626 0-1.791 1.246-3.667 3.485-3.681.91 0 1.61.224 2.254.84zm3.111 6.369h-.882v-1.092h.882v1.092zm6.738-9.812h.938l5.375 9.07v-9.07h.756v9.798h-1.176l-5.137-8.679v8.679h-.756v-9.798zm10.044 6.256c0 1.946 1.414 3.08 2.786 3.08 1.385 0 2.799-1.134 2.799-3.08 0-1.945-1.414-3.037-2.799-3.037-1.372 0-2.786 1.092-2.786 3.037zm6.313 0c0 1.988-1.498 3.71-3.527 3.71-2.016 0-3.514-1.722-3.514-3.71 0-1.987 1.498-3.709 3.514-3.709 2.029 0 3.527 1.722 3.527 3.709zm-283.208 17c0 1.946 1.413 3.08 2.785 3.08 1.386 0 2.8-1.134 2.8-3.08 0-1.945-1.414-3.037-2.8-3.037-1.372 0-2.785 1.092-2.785 3.037zm6.312 0c0 1.988-1.497 3.71-3.527 3.71-2.016 0-3.513-1.722-3.513-3.71 0-1.987 1.497-3.709 3.513-3.709 2.03 0 3.527 1.722 3.527 3.709zm7.325-2.813l-.392.476c-.518-.434-1.19-.63-1.876-.63-1.4-.014-2.73 1.134-2.743 3.009 0 1.372.937 2.912 2.757 2.912.7 0 1.372-.266 1.904-.7.168.21.28.322.434.504a3.495 3.495 0 01-2.338.896c-2.282 0-3.485-1.848-3.485-3.626 0-1.791 1.245-3.667 3.485-3.681.91 0 1.61.224 2.254.84zm7.327 4.843v-5.585h.728v7.097h-.63l-.098-.826c-.434.574-1.287.952-1.987.952-1.834-.028-3.36-.826-3.36-3.094v-4.129h.728v4.129c0 1.932 1.26 2.366 2.674 2.422a2.356 2.356 0 001.945-.966zm5.965-5.627c4.437-.014 4.451 7.153.112 7.209-.616.014-1.442-.14-1.945-.784v3.457h-.714v-9.84h.616l.112.672c.546-.532 1.231-.714 1.82-.714zm-.028 6.551c3.485-.07 3.541-5.697.168-5.907-.798-.028-1.498.252-1.96.812v4.115c.519.7 1.092.98 1.792.98zm10.302-.882v-1.946c-.616-.392-1.4-.56-2.03-.56-1.623 0-2.449.756-2.449 1.722 0 1.008.756 1.75 2.31 1.75.727 0 1.651-.35 2.17-.966zm.686 1.47h-.56l-.14-.756a3.277 3.277 0 01-2.155.91c-2.058.014-3.024-1.078-3.024-2.45 0-1.246 1.092-2.351 3.15-2.365.588 0 1.357.182 2.043.587v-.587c0-1.526-1.091-1.89-2.253-1.89-.812 0-1.358.196-2.044.63l-.322-.518c.7-.532 1.568-.784 2.408-.784 1.47 0 2.897.658 2.897 2.562v4.661zm9.088-.588c.798 0 1.638-.294 2.142-.924l.546.378c-.672.826-1.624 1.232-2.688 1.232-2.281 0-3.443-1.946-3.429-3.71 0-1.777 1.19-3.569 3.415-3.583 1.932-.014 3.29 1.498 3.29 3.401 0 .168-.014.28-.028.462h-6.005c.098 1.4 1.078 2.744 2.757 2.744zm-2.757-3.36h5.389c-.084-1.525-1.176-2.547-2.646-2.575-1.651.014-2.547 1.148-2.743 2.575zm10.113.042c1.106.224 2.198.798 2.198 1.988 0 1.4-1.358 2.044-2.394 2.044-.84 0-1.651-.35-2.17-1.022.14-.14.323-.322.435-.448.854 1.176 3.29 1.134 3.415-.588-.014-.798-.98-1.204-1.624-1.33-1.077-.182-2.071-.756-2.085-1.917 0-2.086 2.841-2.604 4.185-1.344l-.434.476c-.896-.868-3.051-.588-3.037.868.014.826.895 1.147 1.511 1.273zm6.892-3.233c4.437-.014 4.451 7.153.112 7.209-.616.014-1.442-.14-1.946-.784v3.457h-.713v-9.84h.616l.111.672c.546-.532 1.232-.714 1.82-.714zm-.028 6.551c3.485-.07 3.541-5.697.168-5.907-.798-.028-1.498.252-1.96.812v4.115c.518.7 1.092.98 1.792.98zm10.302-.882v-1.946c-.616-.392-1.4-.56-2.029-.56-1.624 0-2.45.756-2.45 1.722 0 1.008.756 1.75 2.31 1.75.727 0 1.651-.35 2.169-.966zm.686 1.47h-.56l-.14-.756a3.277 3.277 0 01-2.155.91c-2.058.014-3.024-1.078-3.024-2.45 0-1.246 1.092-2.351 3.15-2.365.587 0 1.357.182 2.043.587v-.587c0-1.526-1.092-1.89-2.253-1.89-.812 0-1.358.196-2.044.63l-.322-.518c.7-.532 1.568-.784 2.408-.784 1.469 0 2.897.658 2.897 2.562v4.661zm7.747-6.355l-.392.476c-.518-.434-1.19-.63-1.876-.63-1.399-.014-2.729 1.134-2.743 3.009 0 1.372.938 2.912 2.757 2.912.7 0 1.372-.266 1.904-.7.168.21.28.322.434.504a3.496 3.496 0 01-2.338.896c-2.281 0-3.485-1.848-3.485-3.626 0-1.791 1.246-3.667 3.485-3.681.91 0 1.61.224 2.254.84zm2.957 6.355h-.728v-7.111h.728v7.111zm.014-9.784v1.077h-.756v-1.077h.756zm2.843 6.242c0 1.946 1.414 3.08 2.786 3.08 1.385 0 2.799-1.134 2.799-3.08 0-1.945-1.414-3.037-2.799-3.037-1.372 0-2.786 1.092-2.786 3.037zm6.313 0c0 1.988-1.498 3.71-3.527 3.71-2.016 0-3.514-1.722-3.514-3.71 0-1.987 1.498-3.709 3.514-3.709 2.029 0 3.527 1.722 3.527 3.709zm5.838 6.075v-.602c.812.028 1.134-.252 1.358-.826l.406-1.077-2.898-7.125h.784l2.506 6.369 2.393-6.369h.784l-3.289 8.44c-.35.952-1.022 1.19-1.82 1.19h-.224zm12.453-6.439c1.105.224 2.197.798 2.197 1.988 0 1.4-1.358 2.044-2.393 2.044-.84 0-1.652-.35-2.17-1.022.14-.14.322-.322.434-.448.854 1.176 3.289 1.134 3.415-.588-.014-.798-.98-1.204-1.623-1.33-1.078-.182-2.072-.756-2.086-1.917 0-2.086 2.841-2.604 4.185-1.344l-.434.476c-.896-.868-3.051-.588-3.037.868.014.826.896 1.147 1.512 1.273zm7.283 3.318c.798 0 1.638-.294 2.142-.924l.546.378c-.672.826-1.624 1.232-2.688 1.232-2.281 0-3.443-1.946-3.429-3.71 0-1.777 1.19-3.569 3.415-3.583 1.932-.014 3.289 1.498 3.289 3.401 0 .168-.014.28-.028.462h-6.004c.098 1.4 1.077 2.744 2.757 2.744zm-2.757-3.36h5.389c-.084-1.525-1.176-2.547-2.646-2.575-1.652.014-2.547 1.148-2.743 2.575zm16.508 2.478v-1.946c-.616-.392-1.4-.56-2.03-.56-1.624 0-2.45.756-2.45 1.722 0 1.008.756 1.75 2.31 1.75.728 0 1.652-.35 2.17-.966zm.685 1.47h-.559l-.14-.756a3.278 3.278 0 01-2.156.91c-2.058.014-3.023-1.078-3.023-2.45 0-1.246 1.091-2.351 3.149-2.365.588 0 1.358.182 2.044.587v-.587c0-1.526-1.092-1.89-2.254-1.89-.812 0-1.358.196-2.044.63l-.321-.518c.699-.532 1.567-.784 2.407-.784 1.47 0 2.897.658 2.897 2.562v4.661zm7.747-6.355l-.392.476c-.518-.434-1.189-.63-1.875-.63-1.4-.014-2.73 1.134-2.744 3.009 0 1.372.938 2.912 2.758 2.912.7 0 1.371-.266 1.903-.7.168.21.28.322.434.504a3.493 3.493 0 01-2.337.896c-2.282 0-3.486-1.848-3.486-3.626 0-1.791 1.246-3.667 3.486-3.681.91 0 1.609.224 2.253.84zm4.497 5.753v.658c-1.246.056-2.169-.602-2.169-1.988v-4.563h-1.05v-.602h1.05v-1.736l.713-.154v1.89h1.442v.602h-1.442v4.563c0 .84.546 1.344 1.456 1.33zm2.903.602h-.728v-7.111h.728v7.111zm.014-9.784v1.077h-.756v-1.077h.756zm2.535 2.687l2.226 6.565h.056l2.197-6.565h.77l-2.477 7.153h-1.036l-2.492-7.153h.756zm11.65 5.627v-1.946c-.616-.392-1.4-.56-2.03-.56-1.624 0-2.449.756-2.449 1.722 0 1.008.755 1.75 2.309 1.75.728 0 1.652-.35 2.17-.966zm.686 1.47h-.56l-.14-.756a3.278 3.278 0 01-2.156.91c-2.057.014-3.023-1.078-3.023-2.45 0-1.246 1.092-2.351 3.149-2.365.588 0 1.358.182 2.044.587v-.587c0-1.526-1.092-1.89-2.254-1.89-.812 0-1.358.196-2.043.63l-.322-.518c.699-.532 1.567-.784 2.407-.784 1.47 0 2.898.658 2.898 2.562v4.661zm10.809-1.47v-1.946c-.615-.392-1.399-.56-2.029-.56-1.624 0-2.45.756-2.45 1.722 0 1.008.756 1.75 2.31 1.75.728 0 1.652-.35 2.169-.966zm.686 1.47h-.56l-.14-.756a3.273 3.273 0 01-2.155.91c-2.058.014-3.024-1.078-3.024-2.45 0-1.246 1.092-2.351 3.15-2.365.588 0 1.358.182 2.043.587v-.587c0-1.526-1.091-1.89-2.253-1.89-.812 0-1.358.196-2.044.63l-.322-.518c.7-.532 1.568-.784 2.408-.784 1.47 0 2.897.658 2.897 2.562v4.661zm7.803-1.512v-5.585h.728v7.097h-.63l-.098-.826c-.434.574-1.288.952-1.988.952-1.833-.028-3.359-.826-3.359-3.094v-4.129h.728v4.129c0 1.932 1.26 2.366 2.673 2.422a2.356 2.356 0 001.946-.966zm5.685.91v.658c-1.246.056-2.17-.602-2.17-1.988v-4.563h-1.049v-.602h1.049v-1.736l.714-.154v1.89h1.442v.602h-1.442v4.563c0 .84.546 1.344 1.456 1.33zm2.329-2.94c0 1.946 1.414 3.08 2.785 3.08 1.386 0 2.8-1.134 2.8-3.08 0-1.945-1.414-3.037-2.8-3.037-1.371 0-2.785 1.092-2.785 3.037zm6.313 0c0 1.988-1.498 3.71-3.528 3.71-2.015 0-3.513-1.722-3.513-3.71 0-1.987 1.498-3.709 3.513-3.709 2.03 0 3.528 1.722 3.528 3.709zm4.804-3.023c-.798-.014-1.484.252-1.945.812v5.753h-.728v-7.097h.63l.098.602c.503-.49 1.273-.728 1.973-.728 1.218.056 2.03.364 2.464 1.414.616-1.246 1.511-1.4 2.449-1.4 1.526 0 2.772.826 2.772 2.981v4.228h-.728v-4.228c0-1.651-.966-2.323-2.044-2.323-1.106 0-2.057.504-2.071 2.184v4.367h-.686l-.028-4.367c-.056-1.47-.798-2.198-2.156-2.198zm14.932 3.163c-.616-.392-1.372-.56-2.002-.56-3.261 0-3.233 3.458-.14 3.458.728 0 1.624-.35 2.142-.966v-1.932zm.154 3.402l-.14-.756a3.278 3.278 0 01-2.156.91c-4.045.028-4.073-4.773.126-4.815.588 0 1.33.182 2.016.587v-.293c0-1.526-1.064-2.086-2.226-2.086-.756 0-1.413.224-2.043.616l-.364-.504c.7-.532 1.609-.798 2.449-.798 1.47 0 2.898.868 2.898 2.772v4.367h-.56zm-1.036-9.658h-.868l-.84 1.455h.644l1.064-1.455zm6.417 9.056v.658c-1.246.056-2.17-.602-2.17-1.988v-4.563h-1.049v-.602h1.049v-1.736l.714-.154v1.89h1.442v.602h-1.442v4.563c0 .84.546 1.344 1.456 1.33zm2.903.602h-.728v-7.111h.728v7.111zm.014-9.784v1.077h-.756v-1.077h.756zm7.882 3.429l-.392.476c-.518-.434-1.19-.63-1.876-.63-1.399-.014-2.729 1.134-2.743 3.009 0 1.372.938 2.912 2.757 2.912.7 0 1.372-.266 1.904-.7.168.21.28.322.434.504a3.496 3.496 0 01-2.338.896c-2.281 0-3.485-1.848-3.485-3.626 0-1.791 1.246-3.667 3.485-3.681.91 0 1.61.224 2.254.84zm6.89 4.885v-1.946c-.616-.392-1.399-.56-2.029-.56-1.624 0-2.45.756-2.45 1.722 0 1.008.756 1.75 2.31 1.75.728 0 1.651-.35 2.169-.966zm.686 1.47h-.56l-.14-.756a3.275 3.275 0 01-2.155.91c-2.058.014-3.024-1.078-3.024-2.45 0-1.246 1.092-2.351 3.15-2.365.588 0 1.357.182 2.043.587v-.587c0-1.526-1.091-1.89-2.253-1.89-.812 0-1.358.196-2.044.63l-.322-.518c.7-.532 1.568-.784 2.408-.784 1.469 0 2.897.658 2.897 2.562v4.661zm5.227-6.565c-.797-.014-1.483.252-1.945.812v5.753h-.728v-7.097h.63l.098.602c.504-.49 1.274-.728 1.973-.728 1.218.056 2.03.364 2.464 1.414.616-1.246 1.512-1.4 2.449-1.4 1.526 0 2.772.826 2.772 2.981v4.228h-.728v-4.228c0-1.651-.966-2.323-2.044-2.323-1.105 0-2.057.504-2.071 2.184v4.367h-.686l-.028-4.367c-.056-1.47-.798-2.198-2.156-2.198zm13.238 5.977c.798 0 1.638-.294 2.142-.924l.546.378c-.672.826-1.624 1.232-2.688 1.232-2.281 0-3.443-1.946-3.429-3.71 0-1.777 1.19-3.569 3.415-3.583 1.932-.014 3.29 1.498 3.29 3.401 0 .168-.014.28-.028.462h-6.005c.098 1.4 1.078 2.744 2.757 2.744zm-2.757-3.36h5.389c-.084-1.525-1.176-2.547-2.646-2.575-1.651.014-2.547 1.148-2.743 2.575zm8.98-1.805v5.753h-.728v-7.097h.63l.098.602c.504-.49 1.273-.742 1.973-.742 1.834.028 3.374 1.162 3.374 3.163v4.074h-.728v-4.074c-.014-1.483-1.26-2.435-2.674-2.491-.798-.014-1.483.252-1.945.812zm10.219 5.151v.658c-1.245.056-2.169-.602-2.169-1.988v-4.563h-1.05v-.602h1.05v-1.736l.714-.154v1.89h1.441v.602h-1.441v4.563c0 .84.545 1.344 1.455 1.33zm5.115.014c.797 0 1.637-.294 2.141-.924l.546.378c-.672.826-1.624 1.232-2.687 1.232-2.282 0-3.444-1.946-3.43-3.71 0-1.777 1.19-3.569 3.416-3.583 1.931-.014 3.289 1.498 3.289 3.401 0 .168-.014.28-.028.462h-6.005c.098 1.4 1.078 2.744 2.758 2.744zm-2.758-3.36h5.389c-.084-1.525-1.176-2.547-2.645-2.575-1.652.014-2.548 1.148-2.744 2.575zM40.354 178.124l-.392.476c-.518-.434-1.19-.63-1.876-.63-1.4-.014-2.73 1.134-2.743 3.009 0 1.372.937 2.912 2.757 2.912.7 0 1.372-.266 1.904-.7.168.21.28.322.434.504a3.495 3.495 0 01-2.338.896c-2.282 0-3.485-1.848-3.485-3.626 0-1.791 1.245-3.667 3.485-3.681.91 0 1.61.224 2.254.84zm7.328 4.843v-5.585h.727v7.097h-.63l-.097-.826c-.434.574-1.288.952-1.988.952-1.834-.028-3.36-.826-3.36-3.094v-4.129h.728v4.129c0 1.932 1.26 2.366 2.674 2.422a2.356 2.356 0 001.946-.966zm8.078.042v-1.946c-.616-.392-1.4-.56-2.03-.56-1.623 0-2.45.756-2.45 1.722 0 1.008.757 1.75 2.31 1.75.728 0 1.652-.35 2.17-.966zm.686 1.47h-.56l-.14-.756a3.277 3.277 0 01-2.156.91c-2.057.014-3.023-1.078-3.023-2.45 0-1.246 1.092-2.351 3.15-2.365.587 0 1.357.182 2.043.587v-.587c0-1.526-1.092-1.89-2.254-1.89-.812 0-1.357.196-2.043.63l-.322-.518c.7-.532 1.568-.784 2.407-.784 1.47 0 2.898.658 2.898 2.562v4.661zm3.281-5.753v5.753H59v-7.097h.63l.097.602c.504-.49 1.274-.742 1.974-.742 1.834.028 3.373 1.162 3.373 3.163v4.074h-.727v-4.074c-.014-1.483-1.26-2.435-2.674-2.491-.798-.014-1.484.252-1.946.812zm10.85-1.372c.588 0 1.26.168 1.806.7v-3.387h.741v9.812h-.602l-.112-.756c-.503.672-1.315.84-1.945.826-4.34-.056-4.325-7.209.112-7.195zm.028 6.537c.7 0 1.274-.28 1.792-.98v-4.115c-.462-.56-1.162-.826-1.96-.798-3.373.21-3.317 5.823.168 5.893zm5.239-2.954c0 1.946 1.413 3.08 2.785 3.08 1.386 0 2.8-1.134 2.8-3.08 0-1.945-1.414-3.037-2.8-3.037-1.372 0-2.785 1.092-2.785 3.037zm6.312 0c0 1.988-1.497 3.71-3.527 3.71-2.016 0-3.513-1.722-3.513-3.71 0-1.987 1.497-3.709 3.513-3.709 2.03 0 3.527 1.722 3.527 3.709zm10.92-2.813l-.392.476c-.518-.434-1.19-.63-1.876-.63-1.4-.014-2.73 1.134-2.744 3.009 0 1.372.938 2.912 2.758 2.912.7 0 1.372-.266 1.903-.7.169.21.28.322.434.504a3.495 3.495 0 01-2.337.896c-2.282 0-3.485-1.848-3.485-3.626 0-1.791 1.245-3.667 3.485-3.681.91 0 1.61.224 2.253.84zm2.246 2.813c0 1.946 1.414 3.08 2.785 3.08 1.386 0 2.8-1.134 2.8-3.08 0-1.945-1.414-3.037-2.8-3.037-1.371 0-2.785 1.092-2.785 3.037zm6.313 0c0 1.988-1.498 3.71-3.528 3.71-2.015 0-3.513-1.722-3.513-3.71 0-1.987 1.498-3.709 3.514-3.709 2.029 0 3.527 1.722 3.527 3.709zm4.804-3.023c-.797-.014-1.483.252-1.945.812v5.753h-.728v-7.097h.63l.098.602c.504-.49 1.274-.728 1.973-.728 1.218.056 2.03.364 2.464 1.414.616-1.246 1.512-1.4 2.449-1.4 1.526 0 2.772.826 2.772 2.981v4.228h-.728v-4.228c0-1.651-.966-2.323-2.044-2.323-1.105 0-2.057.504-2.071 2.184v4.367h-.686l-.028-4.367c-.056-1.47-.798-2.198-2.156-2.198zm12.847-.574c4.437-.014 4.451 7.153.111 7.209-.615.014-1.441-.14-1.945-.784v3.457h-.714v-9.84h.616l.112.672c.546-.532 1.232-.714 1.82-.714zm-.028 6.551c3.485-.07 3.541-5.697.167-5.907-.797-.028-1.497.252-1.959.812v4.115c.518.7 1.092.98 1.792.98zm5.64-6.509h.588l.112.924c.84-1.344 2.52-1.078 3.332-.728l-.294.602c-1.33-.644-3.066.084-3.024 1.75v4.549h-.714v-7.097zm10.075 5.627v-1.946c-.616-.392-1.4-.56-2.03-.56-1.624 0-2.45.756-2.45 1.722 0 1.008.756 1.75 2.31 1.75.728 0 1.652-.35 2.17-.966zm.685 1.47h-.559l-.14-.756a3.278 3.278 0 01-2.156.91c-2.058.014-3.023-1.078-3.023-2.45 0-1.246 1.091-2.351 3.149-2.365.588 0 1.358.182 2.044.587v-.587c0-1.526-1.092-1.89-2.254-1.89-.812 0-1.358.196-2.044.63l-.322-.518c.7-.532 1.568-.784 2.408-.784 1.47 0 2.897.658 2.897 2.562v4.661zm4.416-3.906c1.106.224 2.197.798 2.197 1.988 0 1.4-1.357 2.044-2.393 2.044-.84 0-1.652-.35-2.17-1.022.14-.14.322-.322.434-.448.854 1.176 3.29 1.134 3.416-.588-.014-.798-.98-1.204-1.624-1.33-1.078-.182-2.072-.756-2.086-1.917 0-2.086 2.842-2.604 4.185-1.344l-.433.476c-.896-.868-3.052-.588-3.038.868.014.826.896 1.147 1.512 1.273zm10.878 3.318c.798 0 1.638-.294 2.142-.924l.546.378c-.672.826-1.624 1.232-2.688 1.232-2.281 0-3.443-1.946-3.429-3.71 0-1.777 1.19-3.569 3.415-3.583 1.932-.014 3.29 1.498 3.29 3.401 0 .168-.014.28-.028.462h-6.005c.098 1.4 1.078 2.744 2.757 2.744zm-2.757-3.36h5.389c-.084-1.525-1.176-2.547-2.646-2.575-1.651.014-2.547 1.148-2.743 2.575zm8.98-1.805v5.753h-.728v-7.097h.63l.098.602c.504-.49 1.273-.742 1.973-.742 1.834.028 3.374 1.162 3.374 3.163v4.074h-.728v-4.074c-.014-1.483-1.26-2.435-2.674-2.491-.798-.014-1.483.252-1.945.812zm13.338 5.123v.644c-1.203.056-1.875-.616-1.875-1.988v-7.824h.742v7.824c0 .84.238 1.358 1.133 1.344zm2.077.63v-7.097h.714v7.097h-.714zm1.708-9.728h-.868l-.84 1.455h.644l1.064-1.455zm2.437 3.975v5.753h-.728v-7.097h.63l.098.602c.504-.49 1.274-.742 1.974-.742 1.833.028 3.373 1.162 3.373 3.163v4.074h-.728v-4.074c-.014-1.483-1.259-2.435-2.673-2.491-.798-.014-1.484.252-1.946.812zm10.892 5.165c.798 0 1.637-.294 2.141-.924l.546.378c-.672.826-1.624 1.232-2.687 1.232-2.282 0-3.444-1.946-3.43-3.71 0-1.777 1.19-3.569 3.416-3.583 1.931-.014 3.289 1.498 3.289 3.401 0 .168-.014.28-.028.462h-6.005c.098 1.4 1.078 2.744 2.758 2.744zm-2.758-3.36h5.389c-.084-1.525-1.176-2.547-2.645-2.575-1.652.014-2.548 1.148-2.744 2.575zm12.913 2.478v-1.946c-.616-.392-1.4-.56-2.029-.56-1.624 0-2.45.756-2.45 1.722 0 1.008.756 1.75 2.31 1.75.727 0 1.651-.35 2.169-.966zm.686 1.47h-.56l-.14-.756a3.275 3.275 0 01-2.155.91c-2.058.014-3.024-1.078-3.024-2.45 0-1.246 1.092-2.351 3.15-2.365.587 0 1.357.182 2.043.587v-.587c0-1.526-1.092-1.89-2.253-1.89-.812 0-1.358.196-2.044.63l-.322-.518c.7-.532 1.568-.784 2.408-.784 1.469 0 2.897.658 2.897 2.562v4.661zm3.436.014h-.882v-1.092h.882v1.092z" fill="#000"/></g><defs><filter id="filter0_d_154_825" x="-22.88" y="-26.343" width="468.986" height="288.986" filterUnits="userSpaceOnUse" color-interpolation-filters="sRGB"><feFlood flood-opacity="0" result="BackgroundImageFix"/><feColorMatrix in="SourceAlpha" values="0 0 0 0 0 0 0 0 0 0 0 0 0 0 0 0 0 0 127 0" result="hardAlpha"/><feOffset dy="3.999"/><feGaussianBlur stdDeviation="5.999"/><feComposite in2="hardAlpha" operator="out"/><feColorMatrix values="0 0 0 0 0.578693 0 0 0 0 0.578693 0 0 0 0 0.578693 0 0 0 0.25 0"/><feBlend in2="BackgroundImageFix" result="effect1_dropShadow_154_825"/><feBlend in="SourceGraphic" in2="effect1_dropShadow_154_825" result="shape"/></filter></defs></svg>