<svg width="424" height="244" viewBox="0 0 424 244" fill="none" xmlns="http://www.w3.org/2000/svg"><g filter="url(#filter0_d_154_847)"><rect x="12.961" y="8.65" width="399" height="219" rx="29.994" fill="#fff" fill-opacity=".4" shape-rendering="crispEdges"/><path d="M38.057 52.188h1.424c.831-.048 1.28-.576 1.28-1.248 0-.608-.4-1.216-1.28-1.216h-1.424v2.464zm1.424 1.951h-1.424v2.896h1.424c1.151 0 1.711-.608 1.711-1.424 0-.8-.592-1.472-1.711-1.472zm2.175-1.087v.048c1.232.447 1.744 1.551 1.744 2.56 0 2.543-1.92 3.406-3.951 3.406H35.8V47.805h3.68c1.935 0 3.47 1.12 3.47 3.167 0 .64-.303 1.584-1.295 2.08zM52.7 59.066l-1.792-.016-.336-.735c-.448.607-1.231.895-2.143.847-1.792-.096-3.248-1.311-3.248-3.39v-4.816h2.192v4.72c0 1.087.816 1.695 1.76 1.695.447 0 .943-.128 1.375-.416v-5.999H52.7v8.11zm4.406-5.119c.16.048.304.064.448.096 1.408.24 2.864 1.008 2.864 2.624 0 1.92-1.824 2.607-3.168 2.607-1.055 0-2.207-.416-3.087-1.583l1.168-1.248a2.774 2.774 0 001.951.944c.432.016.976-.288.976-.72 0-.592-.624-.672-1.04-.752-1.327-.24-2.703-1.056-2.72-2.623 0-1.664 1.489-2.56 3.04-2.56.832 0 1.792.288 2.736 1.264l-1.168 1.184c-.576-.432-1.136-.592-1.584-.592-.368 0-.96.272-.96.783 0 .273.273.496.544.576zm11.588-1.92l-1.231 1.36a2.57 2.57 0 00-1.68-.703c-1.152-.032-2.224.784-2.24 2.351-.016 1.328.96 2.24 2.08 2.304.64.032 1.328-.208 1.903-.816l1.248 1.28c-.912 1.135-1.887 1.455-3.12 1.455-2.75 0-4.254-2.047-4.254-4.239.016-2.191 1.551-4.27 4.255-4.287 1.136 0 2.015.288 3.04 1.296zm3.178 4.336c-.032 1.488 2.24 1.36 3.055.512v-1.28a3.644 3.644 0 00-1.424-.288c-.832 0-1.615.304-1.631 1.056zm5.215 2.703h-1.744l-.288-.72c-.512.64-1.312.896-1.952.896-2.127 0-3.263-1.28-3.263-2.815 0-1.84 1.776-2.767 3.52-2.736a4.552 4.552 0 011.551.32c-.048-1.135-.768-1.551-1.6-1.567-.8-.016-1.743.256-2.223.656l-.736-1.36c1.008-.816 2.031-1.04 3.151-1.04 1.856 0 3.584.992 3.584 3.36v5.006zm9.687-1.855v1.855c-1.968.336-3.663-.448-3.583-2.607v-3.76h-1.216v-1.743h1.216v-2.112l2.127-.24v2.352h1.456V52.7h-1.456v3.71c0 .529.528.929 1.456.8zm9.058 1.855l-1.792-.016-.336-.735c-.448.607-1.232.895-2.143.847-1.792-.096-3.248-1.311-3.248-3.39v-4.816h2.192v4.72c0 1.087.816 1.695 1.76 1.695.447 0 .943-.128 1.375-.416v-5.999h2.192v8.11zm13.906-4.095c0 2.272-1.456 4.223-3.919 4.223-.368 0-1.056-.128-1.456-.448v3.36h-2.16v-11.15h1.616l.192.832c.64-.816 1.488-.96 2.16-.96 2.159 0 3.567 1.856 3.567 4.143zm-5.343-1.663v3.71c1.536.833 3.151.017 3.151-2.047 0-1.343-.688-2.271-1.935-2.271-.384 0-.832.128-1.216.608zm7.024-2.432h1.775l.176.848c.96-1.216 2.656-1.184 3.728-.256l-.928 1.648c-1.024-.672-2.592-.432-2.592.895v5.055h-2.159v-8.19zm8.181 4.143c0 1.488 1.168 2.272 2.143 2.272 1.024 0 2.112-.784 2.112-2.272 0-1.584-1.088-2.271-2.112-2.271-.975 0-2.143.736-2.143 2.271zm6.414 0c0 2.496-1.823 4.271-4.271 4.271-2.431 0-4.287-1.775-4.287-4.27 0-2.56 1.856-4.288 4.287-4.288 2.448 0 4.271 1.728 4.271 4.287zm1.299.032c0-2.271 1.456-4.223 3.919-4.223.368 0 1.04.128 1.44.448l-.016-3.407h2.192v11.197h-1.616l-.192-.831c-.64.815-1.488.96-2.16.96-2.159 0-3.567-1.856-3.567-4.144zm5.343 1.664v-3.663c-.336-.24-.768-.32-1.072-.32-1.215 0-2.079.72-2.079 2.32 0 1.343.688 2.27 1.935 2.27.384 0 .832-.127 1.216-.607zm11.713 2.351l-1.792-.016-.336-.735c-.448.607-1.231.895-2.143.847-1.792-.096-3.248-1.311-3.248-3.39v-4.816h2.192v4.72c0 1.087.816 1.695 1.76 1.695.448 0 .943-.128 1.375-.416v-5.999h2.192v8.11zm8.918-7.038l-1.232 1.36a2.57 2.57 0 00-1.68-.704c-1.152-.032-2.223.784-2.239 2.351-.016 1.328.959 2.24 2.079 2.304.64.032 1.328-.208 1.904-.816l1.248 1.28c-.912 1.135-1.888 1.455-3.12 1.455-2.751 0-4.255-2.047-4.255-4.239.016-2.191 1.552-4.27 4.255-4.287 1.136 0 2.016.288 3.04 1.296zm5.145 5.183v1.855c-1.968.336-3.664-.448-3.584-2.607v-3.76h-1.215v-1.743h1.215v-2.112l2.128-.24v2.352h1.456V52.7h-1.456v3.71c0 .529.528.929 1.456.8zm3.175-2.192c0 1.488 1.168 2.272 2.144 2.272 1.023 0 2.111-.784 2.111-2.272 0-1.584-1.088-2.271-2.111-2.271-.976 0-2.144.736-2.144 2.271zm6.415 0c0 2.496-1.824 4.271-4.271 4.271-2.432 0-4.288-1.775-4.288-4.27 0-2.56 1.856-4.288 4.288-4.288 2.447 0 4.271 1.728 4.271 4.287zm11.486 1.6l1.231 1.088c-.975 1.072-2.047 1.52-3.231 1.52-2.767 0-4.159-2.144-4.143-4.24 0-2.095 1.44-4.19 4.127-4.207 2.368-.016 4.031 1.584 3.999 4 0 .255-.048.687-.224 1.087h-5.71c.367 1.6 2.623 1.936 3.951.752zm-3.951-2.432h3.807c-.176-1.12-1.024-1.52-1.856-1.52-.848 0-1.776.433-1.951 1.52zm7.552-3.231h1.792l.32.72c.463-.608 1.247-.88 2.159-.832 1.792.096 3.248 1.456 3.248 3.535v4.687h-2.192v-4.59c0-1.616-1.808-2.304-3.135-1.424v6.014h-2.192v-8.11zm17.361 6.255v1.855c-1.968.336-3.663-.448-3.583-2.607v-3.76h-1.216v-1.743h1.216v-2.112l2.127-.24v2.352h1.456V52.7h-1.456v3.71c0 .529.528.929 1.456.8zm9.058 1.855l-1.792-.016-.336-.735c-.448.607-1.232.895-2.143.847-1.792-.096-3.248-1.311-3.248-3.39v-4.816h2.192v4.72c0 1.087.816 1.695 1.759 1.695.448 0 .944-.128 1.376-.416v-5.999h2.192v8.11zm9.923-1.855v1.855c-1.968.336-3.664-.448-3.584-2.607v-3.76h-1.215v-1.743h1.215v-2.112l2.128-.24v2.352h1.456V52.7h-1.456v3.71c0 .529.528.929 1.456.8zm3.495-7.167h-2.176v-2.16h2.176v2.16zm-2.176.912h2.192v8.11h-2.192v-8.11zm10.009 5.663l1.231 1.088c-.975 1.072-2.047 1.52-3.231 1.52-2.767 0-4.159-2.144-4.143-4.24 0-2.095 1.44-4.19 4.127-4.207 2.368-.016 4.031 1.584 3.999 4 0 .255-.048.687-.224 1.087h-5.711c.368 1.6 2.624 1.936 3.952.752zm-3.952-2.432h3.808c-.176-1.12-1.024-1.52-1.856-1.52-.848 0-1.776.433-1.952 1.52zm7.553-3.231h1.792l.32.72c.463-.608 1.247-.88 2.159-.832 1.792.096 3.247 1.456 3.247 3.535v4.687h-2.191v-4.59c0-1.616-1.808-2.304-3.135-1.424v6.014h-2.192v-8.11zm9.113 4.095c0-2.271 1.456-4.223 3.919-4.223.368 0 1.04.128 1.44.448l-.016-3.407h2.192v11.197h-1.616l-.192-.831c-.64.815-1.488.96-2.16.96-2.159 0-3.567-1.856-3.567-4.144zm5.343 1.664v-3.663c-.336-.24-.768-.32-1.072-.32-1.216 0-2.079.72-2.079 2.32 0 1.343.687 2.27 1.935 2.27.384 0 .832-.127 1.216-.607zm5.874-.352c-.032 1.488 2.239 1.36 3.055.512v-1.28a3.643 3.643 0 00-1.423-.288c-.832 0-1.616.304-1.632 1.056zm5.215 2.703h-1.744l-.288-.72c-.512.64-1.311.896-1.951.896-2.128 0-3.264-1.28-3.264-2.815 0-1.84 1.776-2.767 3.52-2.736a4.553 4.553 0 011.551.32c-.048-1.135-.768-1.551-1.599-1.567-.8-.016-1.744.256-2.224.656l-.736-1.36c1.008-.816 2.032-1.04 3.152-1.04 1.855 0 3.583.992 3.583 3.36v5.006zm9.975-11.213V49.5c-1.039-.16-1.631.16-1.631.896v.56h1.631v1.712H268.3v6.398h-2.208v-6.398h-1.12v-1.712h1.12v-.56c-.064-2.063 1.856-2.88 3.807-2.543zm2.588 8.51c-.032 1.488 2.239 1.36 3.055.512v-1.28a3.645 3.645 0 00-1.424-.288c-.832 0-1.615.304-1.631 1.056zm5.215 2.703h-1.744l-.288-.72c-.512.64-1.312.896-1.952.896-2.127 0-3.263-1.28-3.263-2.815 0-1.84 1.776-2.767 3.519-2.736a4.554 4.554 0 011.552.32c-.048-1.135-.768-1.551-1.6-1.567-.8-.016-1.743.256-2.223.656l-.736-1.36c1.008-.816 2.031-1.04 3.151-1.04 1.856 0 3.584.992 3.584 3.36v5.006zm4.827-1.391h.112l.32-2.176 1.407-4.591h2.336l-2.768 8.19h-2.735l-2.751-8.19h2.335l1.392 4.56.352 2.207zm6.895-2.656c0 1.488 1.168 2.272 2.144 2.272 1.023 0 2.111-.784 2.111-2.272 0-1.584-1.088-2.271-2.111-2.271-.976 0-2.144.736-2.144 2.271zm6.415 0c0 2.496-1.824 4.271-4.271 4.271-2.432 0-4.287-1.775-4.287-4.27 0-2.56 1.855-4.288 4.287-4.288 2.447 0 4.271 1.728 4.271 4.287zm1.666-4.143h1.776l.176.848c.96-1.216 2.656-1.184 3.727-.256l-.928 1.648c-1.023-.672-2.591-.432-2.591.895v5.055h-2.16v-8.19zm8.657-.832h-2.175v-2.16h2.175v2.16zm-2.175.912h2.191v8.11h-2.191v-8.11zm7.897 6.255v1.855c-1.967.336-3.663-.448-3.583-2.607v-3.76h-1.216v-1.743h1.216v-2.112l2.128-.24v2.352h1.455V52.7h-1.455v3.71c0 .529.527.929 1.455.8zm3.032-.848c-.032 1.488 2.239 1.36 3.055.512v-1.28a3.645 3.645 0 00-1.424-.288c-.832 0-1.615.304-1.631 1.056zm5.215 2.703h-1.744l-.288-.72c-.512.64-1.312.896-1.952.896-2.127 0-3.263-1.28-3.263-2.815 0-1.84 1.776-2.767 3.519-2.736a4.554 4.554 0 011.552.32c-.048-1.135-.768-1.551-1.6-1.567-.8-.016-1.743.256-2.223.656l-.736-1.36c1.008-.816 2.031-1.04 3.151-1.04 1.856 0 3.584.992 3.584 3.36v5.006z" fill="#040241"/><g opacity=".4"><circle cx="376.255" cy="55.566" r="15.922" fill="#B9C9F8"/><path d="M369.511 57.239c0 .88.816 1.375 1.632 1.375s1.632-.496 1.632-1.375V52.63c0-.88-.848-1.375-1.68-1.36-.8.017-1.584.513-1.584 1.36v4.608zm-2.239-4.608c0-2.271 1.872-3.423 3.807-3.423 1.952-.032 3.935 1.104 3.935 3.423v4.608c0 1.04-.368 1.823-.991 2.399-.72.688-1.792 1.04-2.88 1.04-1.072.016-2.159-.336-2.895-1.04-.608-.592-.976-1.376-.976-2.4v-4.607zm16.678-3.295v7.247h1.056v1.983h-1.056v1.968h-2.176v-1.968h-4.287l-1.263-1.584 5.054-7.646h2.672zm-1.824 2.16l-.096-.032-1.103 2.031-2.048 3.088h2.895v-2.88l.352-2.207z" fill="#DAE3FF"/></g><circle cx="355.527" cy="55.566" r="15.922" fill="#B9C9F8"/><path d="M349.119 57.239c0 .88.816 1.375 1.632 1.375s1.632-.496 1.632-1.375V52.63c0-.88-.848-1.375-1.68-1.36-.8.017-1.584.513-1.584 1.36v4.608zm-2.239-4.608c0-2.271 1.871-3.423 3.807-3.423 1.952-.032 3.935 1.104 3.935 3.423v4.608c0 1.04-.368 1.823-.992 2.399-.72.688-1.791 1.04-2.879 1.04-1.072.016-2.16-.336-2.895-1.04-.608-.592-.976-1.376-.976-2.4v-4.607zm12.039 6.015l.016.048 2.159-.256h2.608v2.096h-6.991l-.56-1.456 4.735-5.343c.864-.992.72-2.655-.88-2.72-.655-.047-1.407.433-1.839 1.184l-1.728-.96c.784-1.551 2.144-2.255 3.647-2.207 2.128.064 3.52 1.552 3.552 3.248 0 .96-.464 2.015-1.248 2.863l-1.984 2.16-1.487 1.343zM36.29 123.681h.937l5.375 9.07v-9.07h.756v9.798h-1.176l-5.137-8.679v8.679h-.756v-9.798zm14.55 8.328v-1.946c-.616-.392-1.4-.56-2.03-.56-1.623 0-2.449.756-2.449 1.722 0 1.008.756 1.75 2.31 1.75.727 0 1.651-.35 2.17-.966zm.686 1.47h-.56l-.14-.756a3.277 3.277 0 01-2.155.91c-2.058.014-3.024-1.078-3.024-2.45 0-1.246 1.092-2.351 3.15-2.365.588 0 1.357.182 2.043.587v-.587c0-1.526-1.092-1.89-2.253-1.89-.812 0-1.358.196-2.044.63l-.322-.518c.7-.532 1.568-.784 2.408-.784 1.47 0 2.897.658 2.897 2.562v4.661zm2.4-7.097l2.225 6.565h.056l2.198-6.565h.77l-2.478 7.153h-1.036l-2.491-7.153h.756zm9.928 6.509c.798 0 1.638-.294 2.141-.924l.546.378c-.672.826-1.623 1.232-2.687 1.232-2.282 0-3.444-1.946-3.43-3.71 0-1.777 1.19-3.569 3.416-3.583 1.931-.014 3.29 1.498 3.29 3.401 0 .168-.015.28-.029.462h-6.005c.098 1.4 1.078 2.744 2.758 2.744zm-2.758-3.36h5.39c-.085-1.525-1.177-2.547-2.646-2.575-1.652.014-2.548 1.148-2.744 2.575zm11.192-3.205a2.6 2.6 0 011.82.728l.125-.672h.602v7.195c0 1.987-1.441 2.673-2.94 2.659-.993-.014-2-.378-2.659-1.12l.42-.476c.532.574 1.386.924 2.198.924 1.231 0 2.267-.434 2.267-1.987v-.854c-.504.672-1.315.84-1.945.826-4.381-.056-4.367-7.237.112-7.223zm.028 6.565c.7 0 1.273-.28 1.791-.98v-4.115c-.462-.56-1.161-.854-1.96-.826-3.415.21-3.4 5.851.169 5.921zm9.867-.882v-1.946c-.615-.392-1.4-.56-2.03-.56-1.623 0-2.449.756-2.449 1.722 0 1.008.756 1.75 2.31 1.75.728 0 1.652-.35 2.17-.966zm.686 1.47h-.56l-.14-.756a3.277 3.277 0 01-2.155.91c-2.058.014-3.023-1.078-3.023-2.45 0-1.246 1.091-2.351 3.149-2.365.588 0 1.358.182 2.043.587v-.587c0-1.526-1.091-1.89-2.253-1.89-.812 0-1.358.196-2.044.63l-.322-.518c.7-.532 1.568-.784 2.408-.784 1.47 0 2.897.658 2.897 2.562v4.661zm11.342-6.355l-.392.476c-.518-.434-1.19-.63-1.875-.63-1.4-.014-2.73 1.134-2.744 3.009 0 1.372.938 2.912 2.758 2.912.7 0 1.371-.266 1.903-.7.168.21.28.322.434.504a3.495 3.495 0 01-2.337.896c-2.282 0-3.486-1.848-3.486-3.626 0-1.791 1.246-3.667 3.486-3.681.91 0 1.61.224 2.253.84zm2.247 2.813c0 1.946 1.413 3.08 2.785 3.08 1.386 0 2.8-1.134 2.8-3.08 0-1.945-1.414-3.037-2.8-3.037-1.371 0-2.785 1.092-2.785 3.037zm6.313 0c0 1.988-1.498 3.71-3.528 3.71-2.015 0-3.513-1.722-3.513-3.71 0-1.987 1.498-3.709 3.513-3.709 2.03 0 3.528 1.722 3.528 3.709zm4.804-3.023c-.798-.014-1.484.252-1.945.812v5.753h-.728v-7.097h.63l.098.602c.503-.49 1.273-.728 1.973-.728 1.218.056 2.03.364 2.464 1.414.616-1.246 1.511-1.4 2.449-1.4 1.526 0 2.772.826 2.772 2.981v4.228h-.728v-4.228c0-1.651-.966-2.323-2.044-2.323-1.106 0-2.057.504-2.071 2.184v4.367h-.686l-.028-4.367c-.056-1.47-.798-2.198-2.156-2.198zm10.453 3.023c0 1.946 1.413 3.08 2.785 3.08 1.386 0 2.8-1.134 2.8-3.08 0-1.945-1.414-3.037-2.8-3.037-1.372 0-2.785 1.092-2.785 3.037zm6.312 0c0 1.988-1.497 3.71-3.527 3.71-2.015 0-3.513-1.722-3.513-3.71 0-1.987 1.498-3.709 3.513-3.709 2.03 0 3.527 1.722 3.527 3.709zm7.518 2.912v.644c-1.204.056-1.875-.616-1.875-1.988v-7.824h.741v7.824c0 .84.238 1.358 1.134 1.344zm2.231-2.912c0 1.946 1.414 3.08 2.785 3.08 1.386 0 2.8-1.134 2.8-3.08 0-1.945-1.414-3.037-2.8-3.037-1.371 0-2.785 1.092-2.785 3.037zm6.313 0c0 1.988-1.498 3.71-3.528 3.71-2.015 0-3.513-1.722-3.513-3.71 0-1.987 1.498-3.709 3.513-3.709 2.03 0 3.528 1.722 3.528 3.709zm6.454-2.183v5.725h-.728v-9.798h.728v3.345c.504-.49 1.273-.742 1.973-.742 1.834.028 3.248 1.162 3.248 3.163v4.032h-.728v-4.032c-.014-1.483-1.134-2.435-2.548-2.491-.798-.014-1.483.238-1.945.798zm12.476 4.255v-1.946c-.616-.392-1.4-.56-2.03-.56-1.623 0-2.449.756-2.449 1.722 0 1.008.756 1.75 2.31 1.75.727 0 1.651-.35 2.169-.966zm.686 1.47h-.56l-.14-.756a3.277 3.277 0 01-2.155.91c-2.058.014-3.024-1.078-3.024-2.45 0-1.246 1.092-2.351 3.149-2.365.588 0 1.358.182 2.044.587v-.587c0-1.526-1.092-1.89-2.253-1.89-.812 0-1.358.196-2.044.63l-.322-.518c.7-.532 1.568-.784 2.408-.784 1.469 0 2.897.658 2.897 2.562v4.661zm2.554-7.097h.588l.112.924c.839-1.344 2.519-1.078 3.331-.728l-.294.602c-1.33-.644-3.065.084-3.023 1.75v4.549h-.714v-7.097zm5.713 7.097v-7.097h.714v7.097h-.714zm1.708-9.728h-.868l-.84 1.455h.644l1.064-1.455zm6.371 8.258v-1.946c-.616-.392-1.4-.56-2.03-.56-1.623 0-2.449.756-2.449 1.722 0 1.008.756 1.75 2.309 1.75.728 0 1.652-.35 2.17-.966zm.686 1.47h-.56l-.14-.756a3.278 3.278 0 01-2.156.91c-2.057.014-3.023-1.078-3.023-2.45 0-1.246 1.092-2.351 3.149-2.365.588 0 1.358.182 2.044.587v-.587c0-1.526-1.092-1.89-2.254-1.89-.812 0-1.357.196-2.043.63l-.322-.518c.7-.532 1.567-.784 2.407-.784 1.47 0 2.898.658 2.898 2.562v4.661zm4.415-3.906c1.106.224 2.198.798 2.198 1.988 0 1.4-1.358 2.044-2.394 2.044-.84 0-1.651-.35-2.169-1.022.14-.14.322-.322.434-.448.853 1.176 3.289 1.134 3.415-.588-.014-.798-.98-1.204-1.624-1.33-1.078-.182-2.071-.756-2.085-1.917 0-2.086 2.841-2.604 4.185-1.344l-.434.476c-.896-.868-3.052-.588-3.038.868.014.826.896 1.147 1.512 1.273zm8.667-1.847v5.753h-.728v-7.097h.63l.098.602c.504-.49 1.274-.742 1.974-.742 1.833.028 3.373 1.162 3.373 3.163v4.074h-.728v-4.074c-.014-1.483-1.26-2.435-2.673-2.491-.798-.014-1.484.252-1.946.812zm8.106 2.211c0 1.946 1.414 3.08 2.786 3.08 1.385 0 2.799-1.134 2.799-3.08 0-1.945-1.414-3.037-2.799-3.037-1.372 0-2.786 1.092-2.786 3.037zm6.313 0c0 1.988-1.498 3.71-3.527 3.71-2.016 0-3.514-1.722-3.514-3.71 0-1.987 1.498-3.709 3.514-3.709 2.029 0 3.527 1.722 3.527 3.709zm2.131-3.555h.588l.112.924c.84-1.344 2.519-1.078 3.331-.728l-.294.602c-1.329-.644-3.065.084-3.023 1.75v4.549h-.714v-7.097zm8.387.532c-.798-.014-1.483.252-1.945.812v5.753h-.728v-7.097h.63l.098.602c.504-.49 1.273-.728 1.973-.728 1.218.056 2.03.364 2.464 1.414.616-1.246 1.511-1.4 2.449-1.4 1.526 0 2.772.826 2.772 2.981v4.228h-.728v-4.228c0-1.651-.966-2.323-2.044-2.323-1.106 0-2.057.504-2.071 2.184v4.367h-.686l-.028-4.367c-.056-1.47-.798-2.198-2.156-2.198zm14.96 5.095v-1.946c-.616-.392-1.4-.56-2.03-.56-1.623 0-2.449.756-2.449 1.722 0 1.008.756 1.75 2.309 1.75.728 0 1.652-.35 2.17-.966zm.686 1.47h-.56l-.14-.756a3.278 3.278 0 01-2.156.91c-2.057.014-3.023-1.078-3.023-2.45 0-1.246 1.092-2.351 3.149-2.365.588 0 1.358.182 2.044.587v-.587c0-1.526-1.092-1.89-2.254-1.89-.812 0-1.357.196-2.043.63l-.322-.518c.7-.532 1.567-.784 2.407-.784 1.47 0 2.898.658 2.898 2.562v4.661zm4.345-.63v.644c-1.204.056-1.875-.616-1.875-1.988v-7.824h.741v7.824c0 .84.238 1.358 1.134 1.344zm4.75-5.935c-.797-.014-1.483.252-1.945.812v5.753h-.728v-7.097h.63l.098.602c.504-.49 1.273-.728 1.973-.728 1.218.056 2.03.364 2.464 1.414.616-1.246 1.512-1.4 2.449-1.4 1.526 0 2.772.826 2.772 2.981v4.228h-.728v-4.228c0-1.651-.966-2.323-2.044-2.323-1.105 0-2.057.504-2.071 2.184v4.367h-.686l-.028-4.367c-.056-1.47-.798-2.198-2.156-2.198zm13.238 5.977c.798 0 1.638-.294 2.142-.924l.546.378c-.672.826-1.624 1.232-2.688 1.232-2.281 0-3.443-1.946-3.429-3.71 0-1.777 1.19-3.569 3.415-3.583 1.932-.014 3.29 1.498 3.29 3.401 0 .168-.014.28-.028.462h-6.005c.098 1.4 1.078 2.744 2.757 2.744zm-2.757-3.36h5.389c-.084-1.525-1.176-2.547-2.646-2.575-1.651.014-2.547 1.148-2.743 2.575zm8.98-1.805v5.753h-.728v-7.097h.63l.098.602c.504-.49 1.273-.742 1.973-.742 1.834.028 3.374 1.162 3.374 3.163v4.074h-.728v-4.074c-.014-1.483-1.26-2.435-2.674-2.491-.798-.014-1.483.252-1.945.812zm10.219 5.151v.658c-1.246.056-2.169-.602-2.169-1.988v-4.563h-1.05v-.602h1.05v-1.736l.714-.154v1.89h1.441v.602h-1.441v4.563c0 .84.545 1.344 1.455 1.33zm5.115.014c.797 0 1.637-.294 2.141-.924l.546.378c-.672.826-1.624 1.232-2.687 1.232-2.282 0-3.444-1.946-3.43-3.71 0-1.777 1.19-3.569 3.416-3.583 1.931-.014 3.289 1.498 3.289 3.401 0 .168-.014.28-.028.462h-6.005c.098 1.4 1.078 2.744 2.758 2.744zm-2.758-3.36h5.389c-.084-1.525-1.176-2.547-2.645-2.575-1.652.014-2.548 1.148-2.744 2.575zm14.786 3.36c.798 0 1.638-.294 2.142-.924l.546.378c-.672.826-1.624 1.232-2.688 1.232-2.281 0-3.443-1.946-3.429-3.71 0-1.777 1.19-3.569 3.415-3.583 1.932-.014 3.29 1.498 3.29 3.401 0 .168-.014.28-.028.462h-6.005c.098 1.4 1.078 2.744 2.757 2.744zm-2.757-3.36h5.389c-.084-1.525-1.176-2.547-2.646-2.575-1.651.014-2.547 1.148-2.743 2.575zm8.98-1.805v5.753h-.728v-7.097h.63l.098.602c.504-.49 1.273-.742 1.973-.742 1.834.028 3.374 1.162 3.374 3.163v4.074h-.728v-4.074c-.014-1.483-1.26-2.435-2.674-2.491-.798-.014-1.483.252-1.945.812zM35.057 150.479l3.472-9.896h1.133c1.162 3.233 2.366 6.662 3.528 9.896h-.798l-1.176-3.276h-4.213l-1.134 3.276h-.812zm2.212-3.976h3.71l-1.876-5.43-1.834 5.43zm10.312-2.589c-.798-.014-1.483.252-1.945.812v5.753h-.728v-7.097h.63l.098.602c.504-.49 1.273-.728 1.973-.728 1.218.056 2.03.364 2.464 1.414.616-1.246 1.511-1.4 2.45-1.4 1.525 0 2.77.826 2.77 2.981v4.228h-.727v-4.228c0-1.651-.966-2.323-2.044-2.323-1.105 0-2.057.504-2.071 2.184v4.367h-.686l-.028-4.367c-.056-1.47-.798-2.198-2.156-2.198zm14.96 5.095v-1.946c-.616-.392-1.4-.56-2.03-.56-1.623 0-2.45.756-2.45 1.722 0 1.008.757 1.75 2.31 1.75.728 0 1.652-.35 2.17-.966zm.686 1.47h-.56l-.14-.756a3.277 3.277 0 01-2.156.91c-2.057.014-3.023-1.078-3.023-2.45 0-1.246 1.092-2.351 3.15-2.365.587 0 1.357.182 2.043.587v-.587c0-1.526-1.092-1.89-2.254-1.89-.811 0-1.357.196-2.043.63l-.322-.518c.7-.532 1.568-.784 2.407-.784 1.47 0 2.898.658 2.898 2.562v4.661zm6.963-.63v.63h-4.97v-.448l4.06-6.019h-3.92v-.63h4.732v.476l-4.045 5.991h4.143zm2.183-2.912c0 1.946 1.413 3.08 2.785 3.08 1.386 0 2.8-1.134 2.8-3.08 0-1.945-1.414-3.037-2.8-3.037-1.371 0-2.785 1.092-2.785 3.037zm6.313 0c0 1.988-1.498 3.71-3.528 3.71-2.015 0-3.513-1.722-3.513-3.71 0-1.987 1.498-3.709 3.513-3.709 2.03 0 3.528 1.722 3.528 3.709zm2.858-2.211v5.753h-.727v-7.097h.63l.097.602c.504-.49 1.274-.742 1.974-.742 1.834.028 3.373 1.162 3.373 3.163v4.074h-.727v-4.074c-.014-1.483-1.26-2.435-2.674-2.491-.798-.014-1.484.252-1.945.812zm7.113 7.572l.826-2.743h.853l-1.12 2.743h-.56zm10.696-2.407c.797 0 1.637-.294 2.141-.924l.546.378c-.672.826-1.624 1.232-2.687 1.232-2.282 0-3.444-1.946-3.43-3.71 0-1.777 1.19-3.569 3.416-3.583 1.931-.014 3.289 1.498 3.289 3.401 0 .168-.014.28-.028.462h-6.005c.098 1.4 1.078 2.744 2.758 2.744zm-2.758-3.36h5.389c-.084-1.525-1.176-2.547-2.645-2.575-1.652.014-2.548 1.148-2.744 2.575zm14.019-3.317c0 .728-.294 1.61-1.414 2.044 1.428.504 1.862 1.511 1.848 2.449 0 1.862-1.456 2.772-3.178 2.772h-2.743v-9.798h2.757c1.47 0 2.73 1.007 2.73 2.533zm-4.731 1.736h2.001c1.344 0 2.002-.91 2.002-1.75s-.658-1.876-2.002-1.876h-2.001v3.626zm2.001.672h-2.001v4.185h2.001c1.624 0 2.422-1.162 2.422-2.128 0-.966-.812-2.057-2.422-2.057zm10.208 3.387v-1.946c-.616-.392-1.399-.56-2.029-.56-1.624 0-2.45.756-2.45 1.722 0 1.008.756 1.75 2.31 1.75.728 0 1.651-.35 2.169-.966zm.686 1.47h-.56l-.14-.756a3.275 3.275 0 01-2.155.91c-2.058.014-3.024-1.078-3.024-2.45 0-1.246 1.092-2.351 3.15-2.365.588 0 1.357.182 2.043.587v-.587c0-1.526-1.091-1.89-2.253-1.89-.812 0-1.358.196-2.044.63l-.322-.518c.7-.532 1.568-.784 2.408-.784 1.469 0 2.897.658 2.897 2.562v4.661zm2.666 2.533v-.602c.812.028 1.134-.252 1.358-.826l.406-1.077-2.898-7.125h.784l2.506 6.369 2.393-6.369h.784l-3.289 8.44c-.35.952-1.022 1.19-1.82 1.19h-.224zm5.814-.714l.826-2.743h.854l-1.12 2.743h-.56zm13.566-10.274l2.379 8.035 2.436-9.378h.798c-.882 3.247-1.792 6.634-2.674 9.868h-1.12l-2.197-7.363-2.212 7.349h-1.12c-.881-3.262-1.805-6.593-2.687-9.854h.77l2.491 9.378c.742-2.408 1.638-5.613 2.394-8.035h.742zm11.687 6.985v-1.946c-.616-.392-1.4-.56-2.029-.56-1.624 0-2.45.756-2.45 1.722 0 1.008.756 1.75 2.31 1.75.727 0 1.651-.35 2.169-.966zm.686 1.47h-.56l-.14-.756a3.277 3.277 0 01-2.155.91c-2.058.014-3.024-1.078-3.024-2.45 0-1.246 1.092-2.351 3.15-2.365.587 0 1.357.182 2.043.587v-.587c0-1.526-1.092-1.89-2.253-1.89-.812 0-1.358.196-2.044.63l-.322-.518c.7-.532 1.568-.784 2.408-.784 1.469 0 2.897.658 2.897 2.562v4.661zm4.346-.63v.644c-1.204.056-1.876-.616-1.876-1.988v-7.824h.742v7.824c0 .84.238 1.358 1.134 1.344zm4.75-5.935c-.798-.014-1.484.252-1.946.812v5.753h-.728v-7.097h.63l.098.602c.504-.49 1.274-.728 1.974-.728 1.217.056 2.029.364 2.463 1.414.616-1.246 1.512-1.4 2.45-1.4 1.525 0 2.771.826 2.771 2.981v4.228h-.728v-4.228c0-1.651-.966-2.323-2.043-2.323-1.106 0-2.058.504-2.072 2.184v4.367h-.686l-.028-4.367c-.056-1.47-.798-2.198-2.155-2.198zm14.959 5.095v-1.946c-.616-.392-1.399-.56-2.029-.56-1.624 0-2.45.756-2.45 1.722 0 1.008.756 1.75 2.31 1.75.728 0 1.651-.35 2.169-.966zm.686 1.47h-.56l-.14-.756a3.275 3.275 0 01-2.155.91c-2.058.014-3.024-1.078-3.024-2.45 0-1.246 1.092-2.351 3.15-2.365.588 0 1.357.182 2.043.587v-.587c0-1.526-1.091-1.89-2.253-1.89-.812 0-1.358.196-2.044.63l-.322-.518c.7-.532 1.568-.784 2.408-.784 1.469 0 2.897.658 2.897 2.562v4.661zm2.554-7.097h.588l.112.924c.84-1.344 2.519-1.078 3.331-.728l-.294.602c-1.329-.644-3.065.084-3.023 1.75v4.549h-.714v-7.097zm7.981 6.495v.658c-1.246.056-2.169-.602-2.169-1.988v-4.563h-1.05v-.602h1.05v-1.736l.714-.154v1.89h1.441v.602h-1.441v4.563c0 .84.545 1.344 1.455 1.33zm11.019-.91v-5.585h.728v7.097h-.63l-.098-.826c-.434.574-1.288.952-1.987.952-1.834-.028-3.36-.826-3.36-3.094v-4.129h.728v4.129c0 1.932 1.26 2.366 2.673 2.422a2.356 2.356 0 001.946-.966zm7.166-2.03c0 1.946 1.414 3.08 2.786 3.08 1.386 0 2.799-1.134 2.799-3.08 0-1.945-1.413-3.037-2.799-3.037-1.372 0-2.786 1.092-2.786 3.037zm6.313 0c0 1.988-1.498 3.71-3.527 3.71-2.016 0-3.514-1.722-3.514-3.71 0-1.987 1.498-3.709 3.514-3.709 2.029 0 3.527 1.722 3.527 3.709zm4.399 2.94v.658c-1.246.056-2.17-.602-2.17-1.988v-4.563h-1.05v-.602h1.05v-1.736l.714-.154v1.89h1.442v.602h-1.442v4.563c0 .84.546 1.344 1.456 1.33zm2.175-6.495h.588l.112.924c.839-1.344 2.519-1.078 3.331-.728l-.294.602c-1.33-.644-3.065.084-3.023 1.75v4.549h-.714v-7.097zm10.074 5.627v-1.946c-.616-.392-1.4-.56-2.03-.56-1.624 0-2.449.756-2.449 1.722 0 1.008.756 1.75 2.309 1.75.728 0 1.652-.35 2.17-.966zm.686 1.47h-.56l-.14-.756a3.278 3.278 0 01-2.156.91c-2.057.014-3.023-1.078-3.023-2.45 0-1.246 1.092-2.351 3.149-2.365.588 0 1.358.182 2.044.587v-.587c0-1.526-1.092-1.89-2.254-1.89-.812 0-1.358.196-2.043.63l-.322-.518c.7-.532 1.567-.784 2.407-.784 1.47 0 2.898.658 2.898 2.562v4.661zm4.415-3.906c1.106.224 2.198.798 2.198 1.988 0 1.4-1.358 2.044-2.394 2.044-.84 0-1.652-.35-2.169-1.022.14-.14.321-.322.433-.448.854 1.176 3.29 1.134 3.416-.588-.014-.798-.98-1.204-1.624-1.33-1.078-.182-2.071-.756-2.085-1.917 0-2.086 2.841-2.604 4.185-1.344l-.434.476c-.896-.868-3.052-.588-3.038.868.014.826.896 1.147 1.512 1.273zm10.207 3.304v.658c-1.246.056-2.17-.602-2.17-1.988v-4.563h-1.05v-.602h1.05v-1.736l.714-.154v1.89h1.442v.602h-1.442v4.563c0 .84.546 1.344 1.456 1.33zm2.903.602h-.728v-7.111h.728v7.111zm.014-9.784v1.077h-.756v-1.077h.756zm5.628 9.196c.798 0 1.638-.294 2.142-.924l.546.378c-.672.826-1.624 1.232-2.688 1.232-2.281 0-3.443-1.946-3.429-3.71 0-1.777 1.19-3.569 3.415-3.583 1.932-.014 3.289 1.498 3.289 3.401 0 .168-.014.28-.028.462h-6.004c.098 1.4 1.077 2.744 2.757 2.744zm-2.757-3.36h5.389c-.084-1.525-1.176-2.547-2.646-2.575-1.652.014-2.547 1.148-2.743 2.575zm8.979-1.805v5.753h-.727v-7.097h.629l.098.602c.504-.49 1.274-.742 1.974-.742 1.834.028 3.373 1.162 3.373 3.163v4.074h-.728v-4.074c-.014-1.483-1.259-2.435-2.673-2.491-.798-.014-1.484.252-1.946.812zm10.85-1.372c.588 0 1.26.168 1.805.7v-3.387h.742v9.812h-.602l-.112-.756c-.503.672-1.315.84-1.945.826-4.339-.056-4.325-7.209.112-7.195zm.028 6.537c.7 0 1.274-.28 1.791-.98v-4.115c-.461-.56-1.161-.826-1.959-.798-3.373.21-3.317 5.823.168 5.893zm9.882-.882v-1.946c-.616-.392-1.399-.56-2.029-.56-1.624 0-2.45.756-2.45 1.722 0 1.008.756 1.75 2.31 1.75.728 0 1.651-.35 2.169-.966zm.686 1.47h-.56l-.14-.756a3.275 3.275 0 01-2.155.91c-2.058.014-3.024-1.078-3.024-2.45 0-1.246 1.092-2.351 3.15-2.365.588 0 1.357.182 2.043.587v-.587c0-1.526-1.092-1.89-2.253-1.89-.812 0-1.358.196-2.044.63l-.322-.518c.7-.532 1.568-.784 2.408-.784 1.469 0 2.897.658 2.897 2.562v4.661zm4.416-3.906c1.105.224 2.197.798 2.197 1.988 0 1.4-1.358 2.044-2.393 2.044-.84 0-1.652-.35-2.17-1.022.14-.14.322-.322.434-.448.854 1.176 3.289 1.134 3.415-.588-.014-.798-.98-1.204-1.623-1.33-1.078-.182-2.072-.756-2.086-1.917 0-2.086 2.841-2.604 4.185-1.344l-.434.476c-.896-.868-3.051-.588-3.037.868.014.826.896 1.147 1.512 1.273zm10.878 3.318c.798 0 1.638-.294 2.142-.924l.546.378c-.672.826-1.624 1.232-2.688 1.232-2.281 0-3.443-1.946-3.429-3.71 0-1.777 1.19-3.569 3.415-3.583 1.932-.014 3.289 1.498 3.289 3.401 0 .168-.014.28-.028.462h-6.004c.098 1.4 1.077 2.744 2.757 2.744zm-2.757-3.36h5.389c-.084-1.525-1.176-2.547-2.646-2.575-1.652.014-2.547 1.148-2.743 2.575zm8.979-1.805v5.753h-.727v-7.097h.629l.098.602c.504-.49 1.274-.742 1.974-.742 1.834.028 3.373 1.162 3.373 3.163v4.074h-.727v-4.074c-.014-1.483-1.26-2.435-2.674-2.491-.798-.014-1.484.252-1.946.812zm13.339 5.123v.644c-1.204.056-1.876-.616-1.876-1.988v-7.824h.742v7.824c0 .84.238 1.358 1.134 1.344zm2.077.63v-7.097h.714v7.097h-.714zm1.708-9.728h-.868l-.84 1.455h.644l1.064-1.455zm2.437 3.975v5.753h-.728v-7.097h.63l.098.602c.504-.49 1.274-.742 1.974-.742 1.833.028 3.373 1.162 3.373 3.163v4.074h-.728v-4.074c-.014-1.483-1.26-2.435-2.673-2.491-.798-.014-1.484.252-1.946.812zm10.891 5.165c.798 0 1.638-.294 2.142-.924l.546.378c-.672.826-1.624 1.232-2.688 1.232-2.281 0-3.443-1.946-3.429-3.71 0-1.777 1.19-3.569 3.415-3.583 1.932-.014 3.29 1.498 3.29 3.401 0 .168-.014.28-.028.462h-6.005c.098 1.4 1.078 2.744 2.757 2.744zm-2.757-3.36h5.389c-.084-1.525-1.176-2.547-2.646-2.575-1.651.014-2.547 1.148-2.743 2.575zm12.913 2.478v-1.946c-.616-.392-1.4-.56-2.03-.56-1.623 0-2.449.756-2.449 1.722 0 1.008.756 1.75 2.309 1.75.728 0 1.652-.35 2.17-.966zm.686 1.47h-.56l-.14-.756a3.278 3.278 0 01-2.156.91c-2.057.014-3.023-1.078-3.023-2.45 0-1.246 1.092-2.351 3.149-2.365.588 0 1.358.182 2.044.587v-.587c0-1.526-1.092-1.89-2.254-1.89-.811 0-1.357.196-2.043.63l-.322-.518c.7-.532 1.568-.784 2.407-.784 1.47 0 2.898.658 2.898 2.562v4.661zm3.435.014h-.881v-1.092h.881v1.092zm-311.096 7.188h.938l5.375 9.07v-9.07h.756v9.798h-1.176l-5.137-8.679v8.679h-.756v-9.798zm15.29 8.286v-5.585h.727v7.097h-.63l-.098-.826c-.434.574-1.287.952-1.987.952-1.834-.028-3.36-.826-3.36-3.094v-4.129h.728v4.129c0 1.932 1.26 2.366 2.674 2.422a2.356 2.356 0 001.945-.966zm6.356.924c.798 0 1.638-.294 2.142-.924l.546.378c-.672.826-1.624 1.232-2.688 1.232-2.281 0-3.443-1.946-3.43-3.71 0-1.777 1.19-3.569 3.416-3.583 1.932-.014 3.29 1.498 3.29 3.401 0 .168-.015.28-.029.462h-6.004c.098 1.4 1.077 2.744 2.757 2.744zm-2.757-3.36h5.389c-.084-1.525-1.176-2.547-2.646-2.575-1.652.014-2.547 1.148-2.743 2.575zm10.113.042c1.106.224 2.198.798 2.198 1.988 0 1.4-1.358 2.044-2.394 2.044-.84 0-1.651-.35-2.17-1.022.14-.14.323-.322.435-.448.853 1.176 3.289 1.134 3.415-.588-.014-.798-.98-1.204-1.624-1.33-1.078-.182-2.071-.756-2.085-1.917 0-2.086 2.841-2.604 4.185-1.344l-.434.476c-.896-.868-3.051-.588-3.037.868.014.826.895 1.147 1.511 1.273zm6.612 3.304v.658c-1.246.056-2.17-.602-2.17-1.988v-4.563h-1.05v-.602h1.05v-1.736l.714-.154v1.89h1.442v.602h-1.442v4.563c0 .84.546 1.344 1.456 1.33zm2.175-6.495h.588l.112.924c.84-1.344 2.52-1.078 3.331-.728l-.294.602c-1.33-.644-3.065.084-3.023 1.75v4.549h-.714v-7.097zm10.074 5.627v-1.946c-.616-.392-1.4-.56-2.03-.56-1.623 0-2.45.756-2.45 1.722 0 1.008.757 1.75 2.31 1.75.728 0 1.652-.35 2.17-.966zm.686 1.47h-.56l-.14-.756a3.277 3.277 0 01-2.156.91c-2.057.014-3.023-1.078-3.023-2.45 0-1.246 1.092-2.351 3.15-2.365.587 0 1.357.182 2.043.587v-.587c0-1.526-1.092-1.89-2.254-1.89-.811 0-1.357.196-2.043.63l-.322-.518c.7-.532 1.567-.784 2.407-.784 1.47 0 2.898.658 2.898 2.562v4.661zm9.088-.588c.798 0 1.638-.294 2.141-.924l.546.378c-.671.826-1.623 1.232-2.687 1.232-2.282 0-3.443-1.946-3.43-3.71 0-1.777 1.19-3.569 3.416-3.583 1.931-.014 3.29 1.498 3.29 3.401 0 .168-.015.28-.029.462h-6.005c.098 1.4 1.078 2.744 2.758 2.744zm-2.758-3.36h5.39c-.085-1.525-1.176-2.547-2.646-2.575-1.652.014-2.548 1.148-2.744 2.575zm10.506-.056l2.044-3.093h.867l-2.435 3.541c.784 1.092 1.721 2.45 2.505 3.556h-.84l-2.141-3.136-2.1 3.136h-.853l2.463-3.556c-.784-1.119-1.652-2.407-2.435-3.541h.881l2.044 3.093zm7.259 3.402v.658c-1.246.056-2.17-.602-2.17-1.988v-4.563h-1.05v-.602h1.05v-1.736l.714-.154v1.89h1.442v.602h-1.442v4.563c0 .84.546 1.344 1.456 1.33zm5.114.014c.798 0 1.638-.294 2.141-.924l.546.378c-.672.826-1.623 1.232-2.687 1.232-2.282 0-3.443-1.946-3.429-3.71 0-1.777 1.189-3.569 3.415-3.583 1.932-.014 3.289 1.498 3.289 3.401 0 .168-.014.28-.028.462h-6.005c.098 1.4 1.078 2.744 2.758 2.744zm-2.758-3.36h5.389c-.084-1.525-1.175-2.547-2.645-2.575-1.652.014-2.548 1.148-2.744 2.575zm8.98-1.805v5.753h-.728v-7.097h.63l.098.602c.504-.49 1.274-.742 1.974-.742 1.833.028 3.373 1.162 3.373 3.163v4.074h-.728v-4.074c-.014-1.483-1.259-2.435-2.673-2.491-.798-.014-1.484.252-1.946.812zm9.814 1.847c1.106.224 2.197.798 2.197 1.988 0 1.4-1.357 2.044-2.393 2.044-.84 0-1.652-.35-2.17-1.022.14-.14.322-.322.434-.448.854 1.176 3.29 1.134 3.416-.588-.014-.798-.98-1.204-1.624-1.33-1.078-.182-2.072-.756-2.086-1.917 0-2.086 2.842-2.604 4.185-1.344l-.433.476c-.896-.868-3.052-.588-3.038.868.014.826.896 1.147 1.512 1.273zm5.072 3.906h-.728v-7.111h.728v7.111zm.014-9.784v1.077h-.756v-1.077h.756zm2.843 6.242c0 1.946 1.414 3.08 2.785 3.08 1.386 0 2.8-1.134 2.8-3.08 0-1.945-1.414-3.037-2.8-3.037-1.371 0-2.785 1.092-2.785 3.037zm6.313 0c0 1.988-1.498 3.71-3.528 3.71-2.015 0-3.513-1.722-3.513-3.71 0-1.987 1.498-3.709 3.513-3.709 2.03 0 3.528 1.722 3.528 3.709zm-2.128-6.13h-.868l-.84 1.455h.644l1.064-1.455zm4.987 3.919v5.753h-.728v-7.097h.63l.098.602c.504-.49 1.273-.742 1.973-.742 1.834.028 3.374 1.162 3.374 3.163v4.074h-.728v-4.074c-.014-1.483-1.26-2.435-2.674-2.491-.798-.014-1.483.252-1.945.812zm14.444-1.372c.588 0 1.26.168 1.806.7v-3.387h.742v9.812h-.602l-.112-.756c-.504.672-1.316.84-1.946.826-4.339-.056-4.325-7.209.112-7.195zm.028 6.537c.7 0 1.274-.28 1.792-.98v-4.115c-.462-.56-1.162-.826-1.96-.798-3.373.21-3.317 5.823.168 5.893zm8.161 0c.798 0 1.638-.294 2.142-.924l.545.378c-.671.826-1.623 1.232-2.687 1.232-2.282 0-3.443-1.946-3.429-3.71 0-1.777 1.189-3.569 3.415-3.583 1.932-.014 3.289 1.498 3.289 3.401 0 .168-.014.28-.028.462h-6.004c.097 1.4 1.077 2.744 2.757 2.744zm-2.757-3.36h5.388c-.084-1.525-1.175-2.547-2.645-2.575-1.652.014-2.548 1.148-2.743 2.575zm10.519 3.346v.658c-1.246.056-2.17-.602-2.17-1.988v-4.563h-1.049v-.602h1.049v-1.736l.714-.154v1.89h1.442v.602h-1.442v4.563c0 .84.546 1.344 1.456 1.33zm5.114.014c.798 0 1.638-.294 2.142-.924l.546.378c-.672.826-1.624 1.232-2.688 1.232-2.281 0-3.443-1.946-3.429-3.71 0-1.777 1.19-3.569 3.415-3.583 1.932-.014 3.29 1.498 3.29 3.401 0 .168-.014.28-.028.462h-6.005c.098 1.4 1.078 2.744 2.757 2.744zm-2.757-3.36h5.389c-.084-1.525-1.176-2.547-2.646-2.575-1.651.014-2.547 1.148-2.743 2.575zm13.445-2.407l-.392.476c-.518-.434-1.19-.63-1.876-.63-1.4-.014-2.729 1.134-2.743 3.009 0 1.372.938 2.912 2.757 2.912.7 0 1.372-.266 1.904-.7.168.21.28.322.434.504a3.496 3.496 0 01-2.338.896c-2.281 0-3.485-1.848-3.485-3.626 0-1.791 1.246-3.667 3.485-3.681.91 0 1.61.224 2.254.84zm4.497 5.753v.658c-1.246.056-2.17-.602-2.17-1.988v-4.563h-1.05v-.602h1.05v-1.736l.714-.154v1.89h1.442v.602h-1.442v4.563c0 .84.546 1.344 1.456 1.33zm6.836-.868v-1.946c-.616-.392-1.4-.56-2.03-.56-1.624 0-2.45.756-2.45 1.722 0 1.008.756 1.75 2.31 1.75.728 0 1.652-.35 2.17-.966zm.685 1.47h-.559l-.14-.756a3.278 3.278 0 01-2.156.91c-2.058.014-3.023-1.078-3.023-2.45 0-1.246 1.091-2.351 3.149-2.365.588 0 1.358.182 2.044.587v-.587c0-1.526-1.092-1.89-2.254-1.89-.812 0-1.358.196-2.044.63l-.321-.518c.699-.532 1.567-.784 2.407-.784 1.47 0 2.897.658 2.897 2.562v4.661zm2.554-7.097h.588l.112.924c.84-1.344 2.52-1.078 3.331-.728l-.293.602c-1.33-.644-3.066.084-3.024 1.75v4.549h-.714v-7.097zm10.046 3.695c-.616-.392-1.371-.56-2.001-.56-3.262 0-3.234 3.458-.14 3.458.728 0 1.623-.35 2.141-.966v-1.932zm.154 3.402l-.14-.756a3.275 3.275 0 01-2.155.91c-4.045.028-4.073-4.773.126-4.815.588 0 1.329.182 2.015.587v-.293c0-1.526-1.063-2.086-2.225-2.086-.756 0-1.414.224-2.044.616l-.364-.504c.7-.532 1.61-.798 2.45-.798 1.469 0 2.897.868 2.897 2.772v4.367h-.56zm-1.035-9.658h-.868l-.84 1.455h.644l1.064-1.455zm12.405 8.188v-1.946c-.616-.392-1.4-.56-2.03-.56-1.623 0-2.449.756-2.449 1.722 0 1.008.756 1.75 2.31 1.75.727 0 1.651-.35 2.169-.966zm.686 1.47h-.56l-.14-.756a3.277 3.277 0 01-2.155.91c-2.058.014-3.024-1.078-3.024-2.45 0-1.246 1.092-2.351 3.149-2.365.588 0 1.358.182 2.044.587v-.587c0-1.526-1.092-1.89-2.253-1.89-.812 0-1.358.196-2.044.63l-.322-.518c.7-.532 1.568-.784 2.408-.784 1.469 0 2.897.658 2.897 2.562v4.661zm7.803-1.512v-5.585h.728v7.097h-.63l-.098-.826c-.434.574-1.288.952-1.988.952-1.834-.028-3.359-.826-3.359-3.094v-4.129h.728v4.129c0 1.932 1.259 2.366 2.673 2.422a2.356 2.356 0 001.946-.966zm5.685.91v.658c-1.246.056-2.17-.602-2.17-1.988v-4.563h-1.05v-.602h1.05v-1.736l.714-.154v1.89h1.442v.602h-1.442v4.563c0 .84.546 1.344 1.456 1.33zm2.328-2.94c0 1.946 1.414 3.08 2.786 3.08 1.386 0 2.799-1.134 2.799-3.08 0-1.945-1.413-3.037-2.799-3.037-1.372 0-2.786 1.092-2.786 3.037zm6.313 0c0 1.988-1.498 3.71-3.527 3.71-2.016 0-3.513-1.722-3.513-3.71 0-1.987 1.497-3.709 3.513-3.709 2.029 0 3.527 1.722 3.527 3.709zm4.805-3.023c-.798-.014-1.484.252-1.946.812v5.753h-.728v-7.097h.63l.098.602c.504-.49 1.274-.728 1.974-.728 1.218.056 2.029.364 2.463 1.414.616-1.246 1.512-1.4 2.45-1.4 1.526 0 2.771.826 2.771 2.981v4.228h-.728v-4.228c0-1.651-.965-2.323-2.043-2.323-1.106 0-2.058.504-2.072 2.184v4.367h-.686l-.028-4.367c-.056-1.47-.797-2.198-2.155-2.198zm14.931 3.163c-.615-.392-1.371-.56-2.001-.56-3.262 0-3.234 3.458-.14 3.458.728 0 1.624-.35 2.141-.966v-1.932zm.154 3.402l-.14-.756a3.273 3.273 0 01-2.155.91c-4.045.028-4.073-4.773.126-4.815.588 0 1.33.182 2.015.587v-.293c0-1.526-1.063-2.086-2.225-2.086-.756 0-1.414.224-2.044.616l-.364-.504c.7-.532 1.61-.798 2.45-.798 1.47 0 2.897.868 2.897 2.772v4.367h-.56zm-1.035-9.658h-.868l-.84 1.455h.644l1.064-1.455zm6.417 9.056v.658c-1.246.056-2.17-.602-2.17-1.988v-4.563h-1.05v-.602h1.05v-1.736l.714-.154v1.89h1.442v.602h-1.442v4.563c0 .84.546 1.344 1.456 1.33zm2.902.602h-.727v-7.111h.727v7.111zm.014-9.784v1.077h-.755v-1.077h.755zm7.883 3.429l-.392.476c-.518-.434-1.19-.63-1.876-.63-1.4-.014-2.729 1.134-2.743 3.009 0 1.372.937 2.912 2.757 2.912.7 0 1.372-.266 1.904-.7.168.21.28.322.433.504a3.492 3.492 0 01-2.337.896c-2.282 0-3.485-1.848-3.485-3.626 0-1.791 1.245-3.667 3.485-3.681.91 0 1.61.224 2.254.84zm6.89 4.885v-1.946c-.616-.392-1.4-.56-2.03-.56-1.623 0-2.449.756-2.449 1.722 0 1.008.756 1.75 2.309 1.75.728 0 1.652-.35 2.17-.966zm.686 1.47h-.56l-.14-.756a3.278 3.278 0 01-2.156.91c-2.057.014-3.023-1.078-3.023-2.45 0-1.246 1.092-2.351 3.149-2.365.588 0 1.358.182 2.044.587v-.587c0-1.526-1.092-1.89-2.254-1.89-.811 0-1.357.196-2.043.63l-.322-.518c.7-.532 1.568-.784 2.407-.784 1.47 0 2.898.658 2.898 2.562v4.661zm5.227-6.565c-.798-.014-1.484.252-1.945.812v5.753h-.728v-7.097h.63l.098.602c.503-.49 1.273-.728 1.973-.728 1.218.056 2.03.364 2.464 1.414.615-1.246 1.511-1.4 2.449-1.4 1.526 0 2.772.826 2.772 2.981v4.228h-.728v-4.228c0-1.651-.966-2.323-2.044-2.323-1.106 0-2.057.504-2.071 2.184v4.367h-.686l-.028-4.367c-.056-1.47-.798-2.198-2.156-2.198zm13.238 5.977c.798 0 1.638-.294 2.142-.924l.546.378c-.672.826-1.624 1.232-2.688 1.232-2.281 0-3.443-1.946-3.429-3.71 0-1.777 1.19-3.569 3.415-3.583 1.932-.014 3.289 1.498 3.289 3.401 0 .168-.014.28-.028.462h-6.004c.098 1.4 1.077 2.744 2.757 2.744zm-2.757-3.36h5.389c-.084-1.525-1.176-2.547-2.646-2.575-1.652.014-2.547 1.148-2.743 2.575zm8.979-1.805v5.753h-.727v-7.097h.629l.098.602c.504-.49 1.274-.742 1.974-.742 1.834.028 3.373 1.162 3.373 3.163v4.074h-.728v-4.074c-.014-1.483-1.259-2.435-2.673-2.491-.798-.014-1.484.252-1.946.812zm10.22 5.151v.658c-1.246.056-2.17-.602-2.17-1.988v-4.563h-1.049v-.602h1.049v-1.736l.714-.154v1.89h1.442v.602h-1.442v4.563c0 .84.546 1.344 1.456 1.33zm5.114.014c.798 0 1.638-.294 2.142-.924l.546.378c-.672.826-1.624 1.232-2.688 1.232-2.281 0-3.443-1.946-3.429-3.71 0-1.777 1.19-3.569 3.415-3.583 1.932-.014 3.29 1.498 3.29 3.401 0 .168-.014.28-.028.462h-6.005c.098 1.4 1.078 2.744 2.757 2.744zm-2.757-3.36h5.389c-.084-1.525-1.176-2.547-2.646-2.575-1.651.014-2.547 1.148-2.743 2.575zm-294.3 20.36c.797 0 1.637-.294 2.141-.924l.546.378c-.672.826-1.623 1.232-2.687 1.232-2.282 0-3.444-1.946-3.43-3.71 0-1.777 1.19-3.569 3.416-3.583 1.931-.014 3.289 1.498 3.289 3.401 0 .168-.014.28-.028.462h-6.005c.098 1.4 1.078 2.744 2.758 2.744zm-2.758-3.36h5.39c-.085-1.525-1.177-2.547-2.646-2.575-1.652.014-2.548 1.148-2.744 2.575zm10.044 3.318v.644c-1.204.056-1.876-.616-1.876-1.988v-7.824h.742v7.824c0 .84.238 1.358 1.134 1.344zm8.219-6.509c4.437-.014 4.451 7.153.112 7.209-.616.014-1.442-.14-1.946-.784v3.457h-.713v-9.84h.615l.112.672c.546-.532 1.232-.714 1.82-.714zm-.028 6.551c3.485-.07 3.541-5.697.168-5.907-.798-.028-1.498.252-1.96.812v4.115c.518.7 1.092.98 1.792.98zm5.64-6.509h.589l.112.924c.84-1.344 2.52-1.078 3.331-.728l-.294.602c-1.33-.644-3.065.084-3.023 1.75v4.549h-.714v-7.097zm5.595 3.555c0 1.946 1.414 3.08 2.786 3.08 1.385 0 2.8-1.134 2.8-3.08 0-1.945-1.415-3.037-2.8-3.037-1.372 0-2.786 1.092-2.786 3.037zm6.313 0c0 1.988-1.498 3.71-3.527 3.71-2.016 0-3.514-1.722-3.514-3.71 0-1.987 1.498-3.709 3.514-3.709 2.03 0 3.527 1.722 3.527 3.709zm5.029-3.583c.587 0 1.26.168 1.805.7v-3.387h.742v9.812h-.602l-.112-.756c-.504.672-1.316.84-1.945.826-4.34-.056-4.326-7.209.112-7.195zm.028 6.537c.7 0 1.273-.28 1.791-.98v-4.115c-.462-.56-1.162-.826-1.96-.798-3.373.21-3.317 5.823.169 5.893zm10.47-.924v-5.585h.728v7.097h-.63l-.098-.826c-.434.574-1.288.952-1.988.952-1.833-.028-3.359-.826-3.359-3.094v-4.129h.728v4.129c0 1.932 1.26 2.366 2.673 2.422a2.356 2.356 0 001.946-.966zm8.61-4.843l-.392.476c-.518-.434-1.19-.63-1.875-.63-1.4-.014-2.73 1.134-2.744 3.009 0 1.372.938 2.912 2.758 2.912.7 0 1.371-.266 1.903-.7.168.21.28.322.434.504a3.495 3.495 0 01-2.337.896c-2.282 0-3.486-1.848-3.486-3.626 0-1.791 1.246-3.667 3.486-3.681.91 0 1.61.224 2.253.84zm4.497 5.753v.658c-1.246.056-2.17-.602-2.17-1.988v-4.563h-1.05v-.602h1.05v-1.736l.714-.154v1.89h1.442v.602h-1.442v4.563c0 .84.546 1.344 1.456 1.33zm2.329-2.94c0 1.946 1.414 3.08 2.785 3.08 1.386 0 2.8-1.134 2.8-3.08 0-1.945-1.414-3.037-2.8-3.037-1.371 0-2.785 1.092-2.785 3.037zm6.313 0c0 1.988-1.498 3.71-3.528 3.71-2.015 0-3.513-1.722-3.513-3.71 0-1.987 1.498-3.709 3.513-3.709 2.03 0 3.528 1.722 3.528 3.709zm8.651-3.597c.588 0 1.274.182 1.82.714l.112-.672h.616v9.84h-.728v-3.457c-.504.644-1.316.798-1.932.784-4.339-.056-4.325-7.223.112-7.209zm.028 6.551c.7 0 1.274-.28 1.792-.98v-4.115c-.462-.56-1.162-.84-1.96-.812-3.373.21-3.317 5.837.168 5.907zm10.443-.924v-5.585h.727v7.097h-.629l-.098-.826c-.434.574-1.288.952-1.988.952-1.834-.028-3.359-.826-3.359-3.094v-4.129h.728v4.129c0 1.932 1.259 2.366 2.673 2.422a2.356 2.356 0 001.946-.966zm6.356.924c.798 0 1.638-.294 2.142-.924l.546.378c-.672.826-1.624 1.232-2.688 1.232-2.281 0-3.443-1.946-3.429-3.71 0-1.777 1.19-3.569 3.415-3.583 1.932-.014 3.29 1.498 3.29 3.401 0 .168-.014.28-.028.462h-6.005c.098 1.4 1.078 2.744 2.757 2.744zm-2.757-3.36h5.389c-.084-1.525-1.176-2.547-2.646-2.575-1.651.014-2.547 1.148-2.743 2.575zm14.786 3.36c.798 0 1.638-.294 2.142-.924l.546.378c-.672.826-1.624 1.232-2.688 1.232-2.281 0-3.443-1.946-3.429-3.71 0-1.777 1.19-3.569 3.415-3.583 1.932-.014 3.289 1.498 3.289 3.401 0 .168-.014.28-.028.462H144c.098 1.4 1.077 2.744 2.757 2.744zm-2.757-3.36h5.389c-.084-1.525-1.176-2.547-2.646-2.575-1.652.014-2.547 1.148-2.743 2.575zm10.113.042c1.106.224 2.198.798 2.198 1.988 0 1.4-1.358 2.044-2.394 2.044-.84 0-1.651-.35-2.169-1.022.14-.14.322-.322.434-.448.853 1.176 3.289 1.134 3.415-.588-.014-.798-.98-1.204-1.624-1.33-1.078-.182-2.071-.756-2.085-1.917 0-2.086 2.841-2.604 4.185-1.344l-.434.476c-.896-.868-3.051-.588-3.037.868.014.826.895 1.147 1.511 1.273zm6.612 3.304v.658c-1.246.056-2.17-.602-2.17-1.988v-4.563h-1.049v-.602h1.049v-1.736l.714-.154v1.89h1.442v.602h-1.442v4.563c0 .84.546 1.344 1.456 1.33zm6.808-2.8c-.616-.392-1.372-.56-2.002-.56-3.261 0-3.233 3.458-.14 3.458.728 0 1.624-.35 2.142-.966v-1.932zm.154 3.402l-.14-.756a3.278 3.278 0 01-2.156.91c-4.045.028-4.073-4.773.126-4.815.588 0 1.33.182 2.016.587v-.293c0-1.526-1.064-2.086-2.226-2.086-.756 0-1.413.224-2.043.616l-.364-.504c.7-.532 1.61-.798 2.449-.798 1.47 0 2.898.868 2.898 2.772v4.367h-.56zm-1.036-9.658h-.868l-.84 1.455h.644l1.064-1.455zm6.011 5.752c1.106.224 2.198.798 2.198 1.988 0 1.4-1.358 2.044-2.394 2.044-.84 0-1.651-.35-2.169-1.022.14-.14.322-.322.434-.448.853 1.176 3.289 1.134 3.415-.588-.014-.798-.98-1.204-1.624-1.33-1.078-.182-2.071-.756-2.085-1.917 0-2.086 2.841-2.604 4.185-1.344l-.434.476c-.896-.868-3.051-.588-3.037.868.014.826.895 1.147 1.511 1.273zm7.785-3.191l2.226 6.565h.056l2.197-6.565h.77l-2.477 7.153h-1.036l-2.491-7.153h.755zm7.717 7.097h-.728v-7.111h.728v7.111zm.014-9.784v1.077h-.756v-1.077h.756zm5.628 9.196c.798 0 1.638-.294 2.142-.924l.546.378c-.672.826-1.624 1.232-2.688 1.232-2.281 0-3.443-1.946-3.429-3.71 0-1.777 1.19-3.569 3.415-3.583 1.932-.014 3.29 1.498 3.29 3.401 0 .168-.014.28-.028.462h-6.005c.098 1.4 1.078 2.744 2.757 2.744zm-2.757-3.36h5.389c-.084-1.525-1.176-2.547-2.646-2.575-1.651.014-2.547 1.148-2.743 2.575zm8.98-1.805v5.753h-.728v-7.097h.63l.098.602c.503-.49 1.273-.742 1.973-.742 1.834.028 3.374 1.162 3.374 3.163v4.074h-.728v-4.074c-.014-1.483-1.26-2.435-2.674-2.491-.798-.014-1.484.252-1.945.812zm10.849-1.372c.588 0 1.26.168 1.806.7v-3.387h.742v9.812h-.602l-.112-.756c-.504.672-1.316.84-1.946.826-4.339-.056-4.325-7.209.112-7.195zm.028 6.537c.7 0 1.274-.28 1.792-.98v-4.115c-.462-.56-1.162-.826-1.96-.798-3.373.21-3.317 5.823.168 5.893zm5.239-2.954c0 1.946 1.413 3.08 2.785 3.08 1.386 0 2.8-1.134 2.8-3.08 0-1.945-1.414-3.037-2.8-3.037-1.372 0-2.785 1.092-2.785 3.037zm6.312 0c0 1.988-1.497 3.71-3.527 3.71-2.015 0-3.513-1.722-3.513-3.71 0-1.987 1.498-3.709 3.513-3.709 2.03 0 3.527 1.722 3.527 3.709zm3.013 3.556h-.881v-1.092h.881v1.092z" fill="#000"/></g><defs><filter id="filter0_d_154_847" x="-22.032" y="-26.343" width="468.986" height="288.986" filterUnits="userSpaceOnUse" color-interpolation-filters="sRGB"><feFlood flood-opacity="0" result="BackgroundImageFix"/><feColorMatrix in="SourceAlpha" values="0 0 0 0 0 0 0 0 0 0 0 0 0 0 0 0 0 0 127 0" result="hardAlpha"/><feOffset dy="3.999"/><feGaussianBlur stdDeviation="5.999"/><feComposite in2="hardAlpha" operator="out"/><feColorMatrix values="0 0 0 0 0.578693 0 0 0 0 0.578693 0 0 0 0 0.578693 0 0 0 0.25 0"/><feBlend in2="BackgroundImageFix" result="effect1_dropShadow_154_847"/><feBlend in="SourceGraphic" in2="effect1_dropShadow_154_847" result="shape"/></filter></defs></svg>