<svg width="146" height="45" viewBox="0 0 146 45" fill="none" xmlns="http://www.w3.org/2000/svg"><g filter="url(#filter0_d_157_83)"><path fill="#57F8C7" d="M138.55 4.158h-131v30h131z"/><path d="M21.195 21.12h2.078l1.462 1.907.69.847 2.331 3.041h-2.16l-1.558-2.03-.533-.738-2.31-3.027zm7.012-2.46c0 1.494-.273 2.779-.82 3.854-.547 1.07-1.296 1.895-2.248 2.474-.948.574-2.026.861-3.233.861-1.212 0-2.294-.287-3.246-.861-.948-.579-1.695-1.406-2.242-2.48-.546-1.076-.82-2.358-.82-3.848 0-1.495.274-2.777.82-3.848.547-1.075 1.294-1.9 2.242-2.474.952-.579 2.034-.868 3.246-.868 1.207 0 2.285.29 3.233.868.952.574 1.701 1.399 2.248 2.474.547 1.07.82 2.353.82 3.848zm-2.091 0c0-1.14-.185-2.098-.554-2.877-.364-.784-.865-1.376-1.503-1.777-.633-.406-1.351-.609-2.153-.609-.806 0-1.526.203-2.16.609-.633.4-1.134.993-1.503 1.777-.364.779-.547 1.738-.547 2.877 0 1.139.183 2.1.547 2.884.37.779.87 1.371 1.504 1.776.633.401 1.353.602 2.16.602.801 0 1.519-.2 2.152-.602.638-.405 1.139-.997 1.503-1.776.37-.784.554-1.745.554-2.884zm11.306 2.644v-6.143h2.05v10.497h-2.01V23.84h-.109a3.276 3.276 0 01-1.161 1.4c-.529.37-1.187.554-1.975.554-.675 0-1.272-.148-1.791-.444-.515-.3-.92-.745-1.216-1.333-.292-.587-.438-1.314-.438-2.18v-6.676h2.044v6.43c0 .716.198 1.285.594 1.709.397.424.911.636 1.545.636.382 0 .763-.096 1.14-.288.384-.19.7-.48.95-.867.256-.388.381-.88.377-1.477zm9.416 4.566c-1.034 0-1.925-.221-2.672-.663a4.497 4.497 0 01-1.722-1.88c-.401-.81-.602-1.76-.602-2.85 0-1.075.2-2.022.602-2.843.405-.82.97-1.46 1.694-1.92.73-.46 1.581-.69 2.556-.69.593 0 1.167.098 1.723.294a4.17 4.17 0 011.496.922c.442.42.79.964 1.046 1.634.255.665.383 1.474.383 2.426v.724h-8.345v-1.53h6.342c0-.538-.11-1.014-.328-1.429a2.48 2.48 0 00-.922-.99c-.392-.242-.852-.363-1.38-.363-.575 0-1.076.141-1.504.424a2.844 2.844 0 00-.984 1.093 3.156 3.156 0 00-.342 1.456v1.196c0 .701.123 1.298.369 1.79.25.492.599.868 1.045 1.128.447.255.969.383 1.565.383.388 0 .74-.055 1.06-.165.319-.113.594-.282.827-.505.232-.223.41-.5.533-.827l1.934.348a3.502 3.502 0 01-.834 1.497 4.04 4.04 0 01-1.497.991c-.597.232-1.278.349-2.043.349zm16.58 0c-1.034 0-1.925-.221-2.672-.663a4.497 4.497 0 01-1.722-1.88c-.4-.81-.601-1.76-.601-2.85 0-1.075.2-2.022.601-2.843.406-.82.97-1.46 1.695-1.92.729-.46 1.58-.69 2.556-.69.592 0 1.166.098 1.722.294a4.17 4.17 0 011.497.922c.442.42.79.964 1.045 1.634.255.665.383 1.474.383 2.426v.724h-8.344v-1.53h6.342c0-.538-.11-1.014-.328-1.429a2.48 2.48 0 00-.923-.99c-.392-.242-.852-.363-1.38-.363-.575 0-1.076.141-1.504.424a2.844 2.844 0 00-.984 1.093 3.156 3.156 0 00-.342 1.456v1.196c0 .701.123 1.298.37 1.79.25.492.598.868 1.045 1.128.446.255.968.383 1.565.383.387 0 .74-.055 1.06-.165.318-.113.594-.282.826-.505.233-.223.41-.5.533-.827l1.934.348a3.503 3.503 0 01-.834 1.497 4.041 4.041 0 01-1.496.991c-.597.232-1.278.349-2.044.349zm14.733-8.147l-1.852.328a2.196 2.196 0 00-.369-.676 1.826 1.826 0 00-.67-.526c-.282-.137-.635-.205-1.059-.205-.578 0-1.061.13-1.448.39-.388.254-.581.585-.581.99 0 .35.13.633.39.848.259.214.678.389 1.257.526l1.667.382c.966.224 1.686.568 2.16 1.032.474.465.71 1.069.71 1.811 0 .63-.182 1.19-.546 1.682-.36.487-.864.87-1.51 1.148-.643.278-1.388.417-2.235.417-1.176 0-2.135-.251-2.877-.752-.743-.506-1.199-1.223-1.367-2.153l1.975-.3c.123.514.376.904.758 1.168.383.26.882.39 1.497.39.67 0 1.205-.14 1.606-.417.401-.283.602-.627.602-1.032 0-.328-.124-.604-.37-.827-.241-.223-.612-.392-1.114-.506L73 21.051c-.98-.223-1.704-.578-2.174-1.066-.464-.487-.697-1.104-.697-1.852 0-.62.173-1.161.52-1.626.346-.465.824-.827 1.435-1.087.61-.264 1.31-.396 2.098-.396 1.134 0 2.027.246 2.679.738.651.488 1.082 1.141 1.291 1.961zM80.7 29.594V15.161h1.996v1.701h.17c.12-.218.29-.471.513-.758.224-.287.533-.538.93-.752.396-.219.92-.328 1.572-.328.847 0 1.603.214 2.269.642.665.429 1.186 1.046 1.565 1.852.382.807.574 1.777.574 2.912 0 1.134-.19 2.107-.568 2.918-.378.806-.897 1.428-1.558 1.866-.66.432-1.414.649-2.262.649-.638 0-1.16-.107-1.565-.322-.4-.214-.715-.464-.943-.751a5.69 5.69 0 01-.526-.766h-.123v5.57h-2.044zm2.003-9.185c0 .738.107 1.385.321 1.941.214.556.524.991.93 1.305.405.31.901.465 1.49.465.61 0 1.12-.162 1.53-.485.41-.328.72-.772.93-1.333.214-.56.32-1.191.32-1.893 0-.692-.104-1.314-.314-1.865-.205-.552-.515-.987-.93-1.306-.41-.319-.922-.478-1.537-.478-.592 0-1.093.152-1.503.458-.406.305-.713.73-.923 1.278-.21.546-.314 1.184-.314 1.913zm14.495 5.46c-1.034 0-1.925-.22-2.672-.662a4.496 4.496 0 01-1.722-1.88c-.4-.81-.601-1.76-.601-2.85 0-1.075.2-2.022.601-2.843.406-.82.97-1.46 1.695-1.92.729-.46 1.58-.69 2.556-.69.592 0 1.166.098 1.722.294a4.174 4.174 0 011.497.922c.442.42.79.964 1.045 1.634.255.665.383 1.474.383 2.426v.724h-8.344v-1.53h6.342c0-.538-.11-1.014-.328-1.429a2.48 2.48 0 00-.923-.99c-.392-.242-.852-.363-1.38-.363-.575 0-1.076.141-1.504.424a2.845 2.845 0 00-.984 1.093 3.156 3.156 0 00-.342 1.456v1.196c0 .701.123 1.298.37 1.79.25.492.598.868 1.045 1.128.446.255.968.383 1.565.383.387 0 .74-.055 1.06-.165.318-.113.594-.282.826-.505.232-.223.41-.5.533-.827l1.934.348a3.503 3.503 0 01-.834 1.497 4.036 4.036 0 01-1.496.991c-.597.232-1.278.349-2.044.349zm6.867-.211V15.16h1.975v1.667h.11a2.534 2.534 0 011.011-1.332 2.896 2.896 0 011.654-.493 8.732 8.732 0 01.868.048v1.955a3.683 3.683 0 00-.437-.075 4.176 4.176 0 00-.629-.048c-.483 0-.914.102-1.292.307a2.29 2.29 0 00-1.216 2.057v6.41h-2.044zm10.443.232c-.665 0-1.266-.123-1.804-.369a3.046 3.046 0 01-1.278-1.087c-.31-.473-.464-1.054-.464-1.742 0-.593.113-1.08.341-1.463.228-.383.536-.685.923-.909.387-.223.82-.392 1.298-.505.479-.114.966-.2 1.463-.26l1.531-.178c.391-.05.676-.13.854-.239.178-.11.266-.287.266-.533v-.048c0-.597-.168-1.06-.505-1.387-.333-.328-.829-.492-1.49-.492-.688 0-1.23.152-1.627.458-.391.3-.663.635-.813 1.004l-1.92-.437c.228-.638.56-1.153.998-1.545a4.033 4.033 0 011.524-.86 5.944 5.944 0 011.811-.274c.419 0 .863.05 1.332.15.474.096.916.274 1.326.533.415.26.754.631 1.018 1.114.265.479.397 1.1.397 1.866v6.97h-1.996v-1.434h-.082c-.132.264-.33.524-.594.779a3.166 3.166 0 01-1.019.635c-.414.169-.911.253-1.49.253zm.445-1.64c.565 0 1.048-.112 1.448-.335.406-.223.713-.515.923-.875a2.27 2.27 0 00.321-1.168v-1.354c-.073.073-.214.142-.423.206-.205.059-.44.111-.704.157-.265.04-.522.08-.773.116l-.628.082c-.397.05-.759.134-1.087.253-.323.118-.583.29-.779.512-.191.219-.287.51-.287.875 0 .506.187.889.56 1.148.374.255.85.383 1.429.383zm15.42-6.527l-1.852.328a2.2 2.2 0 00-.37-.676 1.827 1.827 0 00-.669-.526c-.283-.137-.636-.205-1.06-.205-.578 0-1.061.13-1.448.39-.388.254-.581.585-.581.99 0 .35.13.633.389.848.26.214.679.389 1.258.526l1.667.382c.966.224 1.686.568 2.16 1.032.474.465.711 1.069.711 1.811 0 .63-.183 1.19-.547 1.682-.36.487-.864.87-1.51 1.148-.643.278-1.388.417-2.235.417-1.176 0-2.135-.251-2.877-.752-.743-.506-1.199-1.223-1.367-2.153l1.975-.3c.123.514.376.904.758 1.168.383.26.882.39 1.497.39.67 0 1.205-.14 1.606-.417.401-.283.602-.627.602-1.032 0-.328-.124-.604-.37-.827-.241-.223-.612-.392-1.113-.506l-1.777-.39c-.98-.223-1.704-.578-2.174-1.066-.464-.487-.697-1.104-.697-1.852 0-.62.173-1.161.52-1.626.346-.465.824-.827 1.435-1.087.61-.264 1.31-.396 2.098-.396 1.134 0 2.027.246 2.679.738.651.488 1.082 1.141 1.292 1.961z" fill="#fff"/></g><defs><filter id="filter0_d_157_83" x=".512" y=".639" width="145.076" height="44.076" filterUnits="userSpaceOnUse" color-interpolation-filters="sRGB"><feFlood flood-opacity="0" result="BackgroundImageFix"/><feColorMatrix in="SourceAlpha" values="0 0 0 0 0 0 0 0 0 0 0 0 0 0 0 0 0 0 127 0" result="hardAlpha"/><feOffset dy="3.519"/><feGaussianBlur stdDeviation="3.519"/><feColorMatrix values="0 0 0 0 0 0 0 0 0 0 0 0 0 0 0 0 0 0 0.12 0"/><feBlend in2="BackgroundImageFix" result="effect1_dropShadow_157_83"/><feBlend in="SourceGraphic" in2="effect1_dropShadow_157_83" result="shape"/></filter></defs></svg>