<svg width="73" height="18" viewBox="0 0 73 18" fill="none" xmlns="http://www.w3.org/2000/svg"><rect x=".843" y="1.293" width="71.2" height="16.2" rx="8.1" stroke="#09D1C7" stroke-width=".8"/><path d="M13.542 11.884V6.775h.91l1.511 3.409h.112l1.505-3.409h.917v5.11h-.686v-4.36l.05.013-1.45 3.29h-.84l-1.455-3.29.056-.014v4.36h-.63zm7.929.126c-.327 0-.61-.056-.847-.168a1.639 1.639 0 01-.58-.44 1.964 1.964 0 01-.337-.623 2.378 2.378 0 01-.105-.7v-.126a2.4 2.4 0 01.105-.707c.075-.229.187-.434.336-.616.15-.187.338-.334.567-.44.233-.113.506-.169.819-.169.406 0 .74.089 1 .266.267.173.463.397.588.672.131.275.197.57.197.882v.3h-3.318v-.503h2.828l-.154.273c0-.266-.042-.495-.126-.686a.984.984 0 00-.378-.455c-.168-.107-.38-.161-.637-.161-.266 0-.488.06-.665.182a1.128 1.128 0 00-.392.497 1.95 1.95 0 00-.126.728c0 .266.042.506.126.72.089.21.224.378.406.505.182.12.413.181.693.181.294 0 .532-.065.714-.196.186-.13.298-.282.336-.454h.63a1.483 1.483 0 01-.308.664 1.483 1.483 0 01-.581.427 2.024 2.024 0 01-.791.147zm2.038 1.302v-.602h.392c.178 0 .313-.049.406-.147a.548.548 0 00.147-.406v-4.01h.644v3.912c0 .313-.044.56-.133.742a.756.756 0 01-.413.392c-.186.08-.436.12-.748.12h-.294zm.357-4.633v-.532h1.232v.532h-1.232zm.75-1.19c-.15 0-.262-.04-.337-.119a.438.438 0 01-.105-.3c0-.122.035-.222.105-.302.075-.079.187-.119.336-.119.15 0 .26.04.33.12.074.079.111.179.111.3a.421.421 0 01-.112.301c-.07.08-.18.12-.329.12zm3.494 4.521c-.326 0-.613-.056-.86-.168a1.983 1.983 0 01-.63-.44 2.01 2.01 0 01-.385-.623 2.015 2.015 0 01-.126-.7v-.126c0-.238.044-.472.133-.7.088-.233.219-.441.392-.623.172-.187.382-.334.63-.44.247-.113.529-.169.846-.169.318 0 .6.056.847.168.247.107.457.254.63.441.173.182.303.39.392.623.089.228.133.462.133.7v.126c0 .238-.044.47-.133.7a1.852 1.852 0 01-.385.622 1.902 1.902 0 01-.623.441 2.068 2.068 0 01-.86.168zm0-.602c.28 0 .518-.06.714-.181.2-.127.352-.295.455-.504.107-.21.161-.446.161-.707 0-.266-.054-.504-.16-.714a1.216 1.216 0 00-.463-.497 1.316 1.316 0 00-.707-.182c-.27 0-.506.06-.707.182-.2.121-.354.287-.461.497-.108.21-.161.448-.161.714 0 .261.05.497.154.707.107.21.259.377.454.503.201.122.441.182.721.182zm3.008.476V8.147h.532v1.54h-.028c0-.546.119-.945.357-1.197.243-.257.604-.385 1.085-.385h.126v.602h-.238c-.373 0-.66.1-.861.3-.2.197-.301.481-.301.855v2.022h-.672zm6.185.126c-.327 0-.614-.056-.861-.168a1.983 1.983 0 01-.63-.44 2.01 2.01 0 01-.385-.623 2.015 2.015 0 01-.126-.7v-.126c0-.238.044-.472.133-.7.089-.233.22-.441.392-.623.173-.187.383-.334.63-.44.247-.113.53-.169.847-.169.317 0 .6.056.847.168.247.107.457.254.63.441.172.182.303.39.391.623.09.228.133.462.133.7v.126c0 .238-.044.47-.133.7a1.852 1.852 0 01-.385.622 1.902 1.902 0 01-.622.441 2.068 2.068 0 01-.861.168zm0-.602c.28 0 .518-.06.714-.181.2-.127.352-.295.454-.504a1.53 1.53 0 00.162-.707c0-.266-.054-.504-.162-.714a1.216 1.216 0 00-.461-.497 1.316 1.316 0 00-.707-.182c-.27 0-.506.06-.707.182-.2.121-.355.287-.462.497-.107.21-.161.448-.161.714 0 .261.051.497.154.707.107.21.259.377.455.503.2.122.44.182.72.182zm3.008 1.876V8.147h.532v1.617l-.126-.014c.023-.401.107-.728.252-.98.149-.257.342-.446.58-.567.238-.121.497-.182.777-.182a1.725 1.725 0 011.309.574c.159.177.28.383.364.616.084.233.126.48.126.742v.126c0 .261-.044.508-.133.742a1.89 1.89 0 01-.378.615 1.724 1.724 0 01-1.302.574c-.266 0-.52-.058-.763-.175a1.429 1.429 0 01-.602-.567c-.158-.26-.25-.604-.272-1.028l.308.56v2.484h-.672zm1.896-1.862c.252 0 .471-.058.658-.175.187-.12.331-.287.434-.496.103-.215.154-.46.154-.735 0-.28-.051-.525-.154-.735a1.18 1.18 0 00-1.092-.672c-.224 0-.431.051-.623.154a1.146 1.146 0 00-.462.434 1.296 1.296 0 00-.167.679v.322c0 .256.058.476.175.657.116.182.27.322.461.42.192.098.397.147.616.147zm4.532.588c-.322 0-.602-.056-.84-.168a1.686 1.686 0 01-.581-.448 2.09 2.09 0 01-.35-.63 2.198 2.198 0 01-.112-.685v-.126c0-.238.037-.472.112-.7.08-.229.196-.434.35-.616a1.76 1.76 0 01.588-.448c.233-.112.506-.168.819-.168.312 0 .592.058.84.175.251.117.452.282.601.497.154.21.24.46.26.749h-.645a.901.901 0 00-.322-.581c-.182-.159-.427-.238-.735-.238-.265 0-.487.06-.664.182a1.11 1.11 0 00-.4.497 1.82 1.82 0 00-.132.714c0 .256.044.492.133.707.088.21.221.377.399.503.182.122.408.182.678.182.21 0 .392-.037.546-.111a.988.988 0 00.371-.302.877.877 0 00.168-.426h.644a1.36 1.36 0 01-.259.762c-.154.215-.359.383-.616.504a2.009 2.009 0 01-.853.175zm2.823-.126V8.147h.672v3.737h-.672zm-.574-3.205v-.532h1.246v.532h-1.246zm.763-1.134c-.15 0-.261-.04-.336-.119a.438.438 0 01-.105-.3c0-.122.035-.222.105-.302.075-.079.187-.119.336-.119.15 0 .259.04.329.12.075.079.112.179.112.3a.422.422 0 01-.112.301c-.07.08-.18.12-.329.12zm3.504 4.465c-.327 0-.614-.056-.861-.168a1.983 1.983 0 01-.63-.44 2.013 2.013 0 01-.385-.623 2.017 2.017 0 01-.126-.7v-.126c0-.238.044-.472.133-.7.089-.233.22-.441.392-.623.173-.187.383-.334.63-.44.247-.113.53-.169.847-.169.317 0 .6.056.846.168.248.107.458.254.63.441.173.182.304.39.392.623.089.228.133.462.133.7v.126c0 .238-.044.47-.133.7a1.852 1.852 0 01-.385.622 1.902 1.902 0 01-.623.441 2.068 2.068 0 01-.86.168zm0-.602c.28 0 .518-.06.713-.181.201-.127.353-.295.455-.504a1.53 1.53 0 00.161-.707c0-.266-.053-.504-.16-.714a1.216 1.216 0 00-.462-.497 1.317 1.317 0 00-.707-.182c-.271 0-.507.06-.707.182-.2.121-.355.287-.462.497-.107.21-.161.448-.161.714 0 .261.051.497.154.707.107.21.259.377.455.503.2.122.44.182.72.182zm-.343-3.807l.616-1.386h.706l-.776 1.386h-.546zm3.35 4.283V8.147h.532V9.75h-.084c0-.369.05-.68.147-.931.103-.257.257-.45.462-.58.206-.136.465-.204.777-.204h.028c.471 0 .819.147 1.043.441.229.294.343.719.343 1.274v2.134h-.672V9.61c0-.29-.082-.52-.245-.693-.163-.177-.387-.266-.672-.266-.294 0-.532.091-.714.273-.182.182-.273.425-.273.728v2.232h-.671z" fill="#09D1C7"/></svg>