<svg width="424" height="244" viewBox="0 0 424 244" fill="none" xmlns="http://www.w3.org/2000/svg"><g filter="url(#filter0_d_154_871)"><rect x="12.961" y="8.576" width="399" height="219" rx="29.994" fill="#fff" fill-opacity=".4" shape-rendering="crispEdges"/><path d="M39.637 58.992V47.746h2.32v11.246h-2.32zm4.544-8.11h1.792l.32.72c.464-.609 1.247-.88 2.16-.832 1.79.095 3.247 1.455 3.247 3.535v4.687h-2.192V54.4c0-1.616-1.808-2.304-3.135-1.424v6.015H44.18v-8.11zm11.845 2.99c.16.049.304.065.448.097 1.408.24 2.863 1.008 2.863 2.623 0 1.92-1.823 2.608-3.167 2.608-1.056 0-2.208-.416-3.087-1.584l1.167-1.248a2.775 2.775 0 001.952.944c.432.016.976-.288.976-.72 0-.592-.624-.672-1.04-.752-1.328-.24-2.704-1.055-2.72-2.623 0-1.664 1.488-2.56 3.04-2.56.832 0 1.791.288 2.735 1.264l-1.167 1.184c-.576-.432-1.136-.592-1.584-.592-.368 0-.96.272-.96.784 0 .272.272.496.544.576zm8.656 3.264v1.856c-1.968.336-3.663-.448-3.583-2.608v-3.759h-1.216v-1.744H61.1V48.77l2.127-.24v2.351h1.456v1.744h-1.456v3.711c0 .528.528.928 1.456.8zm3.031-.848c-.031 1.488 2.24 1.36 3.056.512v-1.28a3.645 3.645 0 00-1.424-.287c-.832 0-1.615.303-1.632 1.055zm5.216 2.704h-1.744l-.288-.72c-.512.64-1.312.896-1.952.896-2.127 0-3.263-1.28-3.263-2.816 0-1.84 1.776-2.767 3.52-2.735a4.552 4.552 0 011.55.32c-.047-1.136-.767-1.552-1.599-1.568-.8-.016-1.743.256-2.223.656l-.736-1.36c1.008-.816 2.031-1.04 3.151-1.04 1.856 0 3.584.992 3.584 3.36v5.007zm5.115-1.776v1.792c-1.84.304-3.312-.368-3.312-2.608v-8.606h2.192V56.4c0 .416.208.896 1.12.816zm3.151-.928c-.032 1.488 2.24 1.36 3.056.512v-1.28a3.645 3.645 0 00-1.424-.287c-.832 0-1.616.303-1.632 1.055zm5.215 2.704h-1.743l-.288-.72c-.512.64-1.312.896-1.952.896-2.128 0-3.263-1.28-3.263-2.816 0-1.84 1.775-2.767 3.519-2.735a4.552 4.552 0 011.552.32c-.048-1.136-.768-1.552-1.6-1.568-.8-.016-1.744.256-2.224.656l-.736-1.36c1.008-.816 2.032-1.04 3.152-1.04 1.856 0 3.583.992 3.583 3.36v5.007zm9.224-1.776v1.792c-1.84.304-3.311-.368-3.311-2.608v-8.606h2.191V56.4c0 .416.208.896 1.12.816zm3.151-.928c-.032 1.488 2.24 1.36 3.056.512v-1.28a3.646 3.646 0 00-1.424-.287c-.832 0-1.616.303-1.632 1.055zM104 58.992h-1.743l-.288-.72c-.512.64-1.312.896-1.952.896-2.127 0-3.263-1.28-3.263-2.816 0-1.84 1.775-2.767 3.519-2.735a4.554 4.554 0 011.552.32c-.048-1.136-.768-1.552-1.6-1.568-.8-.016-1.743.256-2.223.656l-.736-1.36c1.007-.816 2.031-1.04 3.151-1.04 1.856 0 3.583.992 3.583 3.36v5.007zm11.784-2.448l1.231 1.088c-.976 1.072-2.047 1.52-3.231 1.52-2.768 0-4.159-2.144-4.143-4.24 0-2.095 1.439-4.19 4.127-4.206 2.367-.017 4.031 1.583 3.999 3.999 0 .256-.048.688-.224 1.087h-5.711c.368 1.6 2.624 1.936 3.952.752zm-3.952-2.431h3.808c-.176-1.12-1.024-1.52-1.856-1.52-.848 0-1.776.432-1.952 1.52zm10.672-.576l1.648-2.703h2.479l-2.623 4.079 2.655 4.079h-2.479l-1.68-2.736-1.679 2.736h-2.528l2.671-4.063-2.623-4.096h2.543l1.616 2.704zm9.024 3.6v1.855c-1.968.336-3.663-.448-3.583-2.608v-3.759h-1.216v-1.744h1.216V48.77l2.127-.24v2.351h1.456v1.744h-1.456v3.711c0 .528.528.928 1.456.8zm7.11-.593l1.232 1.088c-.976 1.072-2.048 1.52-3.231 1.52-2.768 0-4.159-2.144-4.143-4.24 0-2.095 1.439-4.19 4.127-4.206 2.367-.017 4.031 1.583 3.999 3.999 0 .256-.048.688-.224 1.087h-5.711c.368 1.6 2.624 1.936 3.951.752zm-3.951-2.431h3.807c-.176-1.12-1.023-1.52-1.855-1.52-.848 0-1.776.432-1.952 1.52zm7.553-3.232h1.791l.32.72c.464-.608 1.248-.88 2.16-.831 1.791.095 3.247 1.455 3.247 3.535v4.687h-2.191V54.4c0-1.616-1.808-2.304-3.136-1.424v6.015h-2.191v-8.11zm11.844 2.992c.16.048.304.064.448.096 1.408.24 2.864 1.008 2.864 2.623 0 1.92-1.824 2.608-3.168 2.608-1.055 0-2.207-.416-3.087-1.584l1.168-1.248a2.773 2.773 0 001.951.944c.432.016.976-.288.976-.72 0-.592-.624-.672-1.04-.752-1.327-.24-2.703-1.055-2.719-2.623 0-1.664 1.488-2.56 3.039-2.56.832 0 1.792.288 2.736 1.264l-1.168 1.184c-.576-.432-1.136-.592-1.584-.592-.368 0-.96.272-.96.784 0 .272.272.496.544.576zm6.965-3.903h-2.176v-2.16h2.176v2.16zm-2.176.911h2.192v8.11h-2.192v-8.11zm6.262 4.064c0 1.487 1.168 2.271 2.143 2.271 1.024 0 2.112-.784 2.112-2.271 0-1.584-1.088-2.272-2.112-2.272-.975 0-2.143.736-2.143 2.272zm6.415 0c0 2.495-1.824 4.27-4.272 4.27-2.431 0-4.287-1.775-4.287-4.27 0-2.56 1.856-4.288 4.287-4.288 2.448 0 4.272 1.728 4.272 4.288zm-1.76-7.583l-1.808 2.464h-2.031l1.375-2.464h2.464zm3.49 3.52h1.792l.32.72c.464-.609 1.248-.88 2.159-.832 1.792.095 3.248 1.455 3.248 3.535v4.687h-2.192V54.4c0-1.616-1.807-2.304-3.135-1.424v6.015h-2.192v-8.11zm19.457 5.662l1.232 1.088c-.976 1.072-2.048 1.52-3.232 1.52-2.767 0-4.159-2.144-4.143-4.24 0-2.095 1.44-4.19 4.127-4.206 2.368-.017 4.031 1.583 3.999 3.999 0 .256-.048.688-.224 1.087h-5.71c.368 1.6 2.623 1.936 3.951.752zm-3.951-2.431h3.807c-.176-1.12-1.024-1.52-1.856-1.52-.848 0-1.775.432-1.951 1.52zm7.552-3.232h1.792l.32.72c.464-.608 1.247-.88 2.159-.831 1.792.095 3.248 1.455 3.248 3.535v4.687h-2.192V54.4c0-1.616-1.808-2.304-3.135-1.424v6.015h-2.192v-8.11zm17.361 6.255v1.856c-1.967.336-3.663-.448-3.583-2.608v-3.759H208.9v-1.744h1.216V48.77l2.127-.24v2.351h1.456v1.744h-1.456v3.711c0 .528.528.928 1.456.8zm9.058 1.856l-1.792-.016-.336-.736c-.448.608-1.232.896-2.143.848-1.792-.096-3.248-1.312-3.248-3.392v-4.815h2.192v4.72c0 1.087.816 1.695 1.76 1.695.447 0 .943-.128 1.375-.416v-5.999h2.192v8.11zm6.371-8.11h1.792l.32.72c.464-.609 1.248-.88 2.16-.832 1.791.095 3.247 1.455 3.247 3.535v4.687h-2.192V54.4c0-1.616-1.807-2.304-3.135-1.424v6.015h-2.192v-8.11zm11.285 5.406c-.032 1.488 2.24 1.36 3.056.512v-1.28a3.646 3.646 0 00-1.424-.287c-.832 0-1.616.303-1.632 1.055zm5.215 2.704h-1.743l-.288-.72c-.512.64-1.312.896-1.952.896-2.128 0-3.263-1.28-3.263-2.816 0-1.84 1.775-2.767 3.519-2.735a4.554 4.554 0 011.552.32c-.048-1.136-.768-1.552-1.6-1.568-.8-.016-1.744.256-2.224.656l-.735-1.36c1.007-.816 2.031-1.04 3.151-1.04 1.856 0 3.583.992 3.583 3.36v5.007zm4.827-1.392h.112l.32-2.175 1.408-4.591h2.336l-2.768 8.19h-2.735l-2.752-8.19h2.336l1.391 4.558.352 2.208zm10.815-1.056l1.232 1.088c-.976 1.072-2.048 1.52-3.232 1.52-2.767 0-4.159-2.144-4.143-4.24 0-2.095 1.44-4.19 4.127-4.206 2.368-.017 4.032 1.583 4 3.999 0 .256-.048.688-.224 1.087h-5.711c.368 1.6 2.623 1.936 3.951.752zm-3.951-2.431h3.807c-.176-1.12-1.024-1.52-1.856-1.52-.847 0-1.775.432-1.951 1.52zm12.731 4.703v-.24c-.384.4-1.152.544-1.52.544-2.463 0-3.919-1.952-3.919-4.223 0-2.288 1.408-4.143 3.567-4.143.672 0 1.52.143 2.16.96l.192-.833h1.616v8.015c0 2.223-1.744 3.215-3.616 3.215-1.279 0-2.495-.352-3.583-1.44l1.024-1.295c.992 1.088 4.079 1.567 4.079-.56zm-.096-1.92v-3.663c-.384-.48-.832-.608-1.216-.608-1.247 0-1.935.928-1.935 2.272 0 1.6.864 2.32 2.079 2.32.304 0 .736-.08 1.072-.32zm5.999-.608c-.032 1.488 2.24 1.36 3.055.512v-1.28a3.641 3.641 0 00-1.423-.287c-.832 0-1.616.303-1.632 1.055zm5.215 2.704h-1.744l-.288-.72c-.512.64-1.311.896-1.951.896-2.128 0-3.264-1.28-3.264-2.816 0-1.84 1.776-2.767 3.52-2.735a4.543 4.543 0 011.551.32c-.048-1.136-.767-1.552-1.599-1.568-.8-.016-1.744.256-2.224.656l-.736-1.36c1.008-.816 2.032-1.04 3.152-1.04 1.855 0 3.583.992 3.583 3.36v5.007zm1.596-4.015c0-2.272 1.455-4.223 3.919-4.223.368 0 1.04.127 1.44.447l-.016-3.407h2.191v11.198h-1.615l-.192-.832c-.64.816-1.488.96-2.16.96-2.159 0-3.567-1.856-3.567-4.143zm5.343 1.663v-3.663c-.336-.24-.768-.32-1.072-.32-1.216 0-2.08.72-2.08 2.32 0 1.343.688 2.271 1.936 2.271.384 0 .832-.128 1.216-.608zm5.861-1.695c0 1.487 1.168 2.271 2.144 2.271 1.024 0 2.112-.784 2.112-2.271 0-1.584-1.088-2.272-2.112-2.272-.976 0-2.144.736-2.144 2.272zm6.415 0c0 2.495-1.824 4.27-4.271 4.27-2.432 0-4.287-1.775-4.287-4.27 0-2.56 1.855-4.288 4.287-4.288 2.447 0 4.271 1.728 4.271 4.288zm1.667-4.144h1.775l.176.848c.96-1.215 2.656-1.184 3.728-.256l-.928 1.648c-1.024-.672-2.592-.432-2.592.896v5.055h-2.159v-8.19zm8.158 8.223h-2.287v-2.176h2.287v2.176z" fill="#040241"/><g opacity=".4"><circle cx="380.371" cy="55.492" r="15.922" fill="#B9C9F8"/><path d="M373.627 57.164c0 .88.816 1.376 1.631 1.376.816 0 1.632-.496 1.632-1.376v-4.607c0-.88-.848-1.376-1.68-1.36-.799.016-1.583.512-1.583 1.36v4.607zm-2.24-4.607c0-2.272 1.872-3.424 3.807-3.424 1.952-.032 3.936 1.104 3.936 3.424v4.607c0 1.04-.368 1.823-.992 2.4-.72.687-1.792 1.04-2.88 1.04-1.071.015-2.159-.337-2.895-1.04-.608-.593-.976-1.376-.976-2.4v-4.607zm16.678-3.296v7.247h1.056v1.984h-1.056v1.967h-2.175v-1.967h-4.288l-1.263-1.584 5.055-7.647h2.671zm-1.823 2.16l-.096-.032-1.104 2.032-2.048 3.087h2.896v-2.88l.352-2.207z" fill="#DAE3FF"/></g><circle cx="359.642" cy="55.492" r="15.922" fill="#B9C9F8"/><path d="M355.006 57.164c0 .88.816 1.376 1.632 1.376s1.632-.496 1.632-1.376v-4.607c0-.88-.848-1.376-1.68-1.36-.8.016-1.584.512-1.584 1.36v4.607zm-2.239-4.607c0-2.272 1.872-3.424 3.807-3.424 1.952-.032 3.935 1.104 3.935 3.424v4.607c0 1.04-.368 1.823-.991 2.4-.72.687-1.792 1.04-2.88 1.04-1.072.015-2.159-.337-2.895-1.04-.608-.593-.976-1.376-.976-2.4v-4.607zm10.503-1.232h-1.264v-2.064h3.52V60.46h-2.256v-9.134zM40.56 126c-.085 1.357 1.245 1.749 2.113 1.973 1.386.35 2.925 1.12 2.827 3.08-.14 1.609-1.623 2.477-2.995 2.477-1.148 0-2.366-.658-2.898-1.904.196-.098.434-.238.602-.322.42.896 1.288 1.498 2.31 1.498 1.26.014 2.17-.714 2.24-1.805.111-1.512-1.288-2.044-2.296-2.31-1.218-.336-2.702-.91-2.646-2.729.056-1.68 1.414-2.506 2.744-2.506 1.12 0 2.24.588 2.715 1.708l-.588.294c-.42-.798-1.301-1.26-2.1-1.26-.979-.014-1.959.56-2.029 1.806zm10.35 6.816c.797 0 1.637-.294 2.141-.924l.546.378c-.672.826-1.624 1.232-2.688 1.232-2.281 0-3.443-1.946-3.429-3.709 0-1.778 1.19-3.57 3.416-3.584 1.931-.014 3.289 1.498 3.289 3.402 0 .168-.014.28-.028.462h-6.005c.098 1.399 1.078 2.743 2.758 2.743zm-2.758-3.359h5.389c-.084-1.526-1.176-2.548-2.645-2.576-1.652.014-2.548 1.148-2.744 2.576zm10.044 3.317v.644c-1.204.056-1.876-.616-1.876-1.988v-7.824h.742v7.824c0 .84.238 1.358 1.134 1.344zm5.016.042c.797 0 1.637-.294 2.141-.924l.546.378c-.672.826-1.624 1.232-2.687 1.232-2.282 0-3.444-1.946-3.43-3.709 0-1.778 1.19-3.57 3.416-3.584 1.931-.014 3.29 1.498 3.29 3.402 0 .168-.015.28-.029.462h-6.005c.098 1.399 1.078 2.743 2.758 2.743zm-2.758-3.359h5.39c-.085-1.526-1.177-2.548-2.646-2.576-1.652.014-2.548 1.148-2.744 2.576zm13.445-2.408l-.392.476c-.518-.434-1.19-.63-1.875-.63-1.4-.014-2.73 1.134-2.744 3.01 0 1.371.938 2.911 2.758 2.911.7 0 1.371-.266 1.903-.7.168.21.28.322.434.504a3.495 3.495 0 01-2.337.896c-2.282 0-3.486-1.848-3.486-3.625 0-1.792 1.246-3.668 3.486-3.682.91 0 1.61.224 2.253.84zm7.272 0l-.392.476c-.518-.434-1.19-.63-1.876-.63-1.4-.014-2.729 1.134-2.743 3.01 0 1.371.938 2.911 2.758 2.911.7 0 1.371-.266 1.903-.7.168.21.28.322.434.504a3.495 3.495 0 01-2.337.896c-2.282 0-3.486-1.848-3.486-3.625 0-1.792 1.246-3.668 3.486-3.682.91 0 1.61.224 2.253.84zm2.957 6.355H83.4v-7.111h.728v7.111zm.014-9.784v1.078h-.755v-1.078h.755zm2.843 6.243c0 1.945 1.414 3.079 2.786 3.079 1.386 0 2.8-1.134 2.8-3.079 0-1.946-1.414-3.038-2.8-3.038-1.372 0-2.786 1.092-2.786 3.038zm6.313 0c0 1.987-1.498 3.709-3.527 3.709-2.016 0-3.514-1.722-3.514-3.709 0-1.988 1.498-3.709 3.514-3.709 2.03 0 3.527 1.721 3.527 3.709zm2.86-2.212v5.753h-.729v-7.097h.63l.098.602c.504-.49 1.274-.741 1.974-.741 1.833.027 3.373 1.161 3.373 3.163v4.073h-.728v-4.073c-.014-1.484-1.26-2.436-2.673-2.492-.798-.014-1.484.252-1.946.812zm12.612 4.283v-1.945c-.616-.392-1.399-.56-2.029-.56-1.624 0-2.45.756-2.45 1.722 0 1.007.756 1.749 2.31 1.749.728 0 1.651-.35 2.169-.966zm.686 1.47h-.56l-.14-.756a3.275 3.275 0 01-2.155.91c-2.058.014-3.024-1.078-3.024-2.449 0-1.246 1.092-2.352 3.15-2.366.588 0 1.357.182 2.043.588v-.588c0-1.526-1.092-1.89-2.253-1.89-.812 0-1.358.196-2.044.63l-.322-.518c.7-.532 1.568-.783 2.408-.783 1.469 0 2.897.657 2.897 2.561v4.661zm7.941-.63v.644c-1.204.056-1.876-.616-1.876-1.988v-7.824h.742v7.824c0 .84.238 1.358 1.134 1.344zm6.737-.84v-1.945c-.615-.392-1.399-.56-2.029-.56-1.624 0-2.45.756-2.45 1.722 0 1.007.756 1.749 2.31 1.749.728 0 1.651-.35 2.169-.966zm.686 1.47h-.56l-.14-.756a3.273 3.273 0 01-2.155.91c-2.058.014-3.024-1.078-3.024-2.449 0-1.246 1.092-2.352 3.15-2.366.588 0 1.358.182 2.043.588v-.588c0-1.526-1.091-1.89-2.253-1.89-.812 0-1.358.196-2.044.63l-.322-.518c.7-.532 1.568-.783 2.408-.783 1.47 0 2.897.657 2.897 2.561v4.661zm8.823-6.565c-.798-.014-1.484.252-1.946.812v5.753h-.728v-7.097h.63l.098.602c.504-.49 1.274-.727 1.974-.727 1.217.055 2.029.363 2.463 1.413.616-1.246 1.512-1.4 2.45-1.4 1.525 0 2.771.826 2.771 2.982v4.227h-.728v-4.227c0-1.652-.966-2.324-2.043-2.324-1.106 0-2.058.504-2.072 2.184v4.367h-.686l-.028-4.367c-.056-1.47-.798-2.198-2.155-2.198zm13.237 5.977c.798 0 1.638-.294 2.142-.924l.546.378c-.672.826-1.624 1.232-2.688 1.232-2.281 0-3.443-1.946-3.429-3.709 0-1.778 1.19-3.57 3.415-3.584 1.932-.014 3.29 1.498 3.29 3.402 0 .168-.014.28-.028.462h-6.005c.098 1.399 1.078 2.743 2.757 2.743zm-2.757-3.359h5.389c-.084-1.526-1.176-2.548-2.646-2.576-1.651.014-2.547 1.148-2.743 2.576zm6.81 6.593v-.63c.966 0 1.442-.546 1.442-1.358v-7.769h.742v7.769c0 1.372-.924 2.044-2.184 1.988zm2.17-12.444v1.05h-.77v-1.05h.77zm2.857 6.257c0 1.945 1.414 3.079 2.785 3.079 1.386 0 2.8-1.134 2.8-3.079 0-1.946-1.414-3.038-2.8-3.038-1.371 0-2.785 1.092-2.785 3.038zm6.313 0c0 1.987-1.498 3.709-3.528 3.709-2.015 0-3.513-1.722-3.513-3.709 0-1.988 1.498-3.709 3.513-3.709 2.03 0 3.528 1.721 3.528 3.709zm2.131-3.556h.588l.112.924c.839-1.343 2.519-1.077 3.331-.728l-.294.602c-1.33-.644-3.065.084-3.023 1.75v4.549h-.714v-7.097zm9.462 3.556c0 1.945 1.414 3.079 2.786 3.079 1.386 0 2.799-1.134 2.799-3.079 0-1.946-1.413-3.038-2.799-3.038-1.372 0-2.786 1.092-2.786 3.038zm6.313 0c0 1.987-1.498 3.709-3.527 3.709-2.016 0-3.513-1.722-3.513-3.709 0-1.988 1.497-3.709 3.513-3.709 2.029 0 3.527 1.721 3.527 3.709zm2.754-4.283v.727h1.568v.63h-1.568v6.467h-.727v-6.467h-1.218v-.63h1.218v-.727c0-1.386.923-2.17 2.449-1.988v.616c-1.372-.098-1.722.532-1.722 1.372zm6.212 7.236c.798 0 1.638-.294 2.142-.924l.546.378c-.672.826-1.624 1.232-2.688 1.232-2.281 0-3.443-1.946-3.429-3.709 0-1.778 1.19-3.57 3.415-3.584 1.932-.014 3.29 1.498 3.29 3.402 0 .168-.014.28-.028.462h-6.005c.098 1.399 1.078 2.743 2.757 2.743zm-2.757-3.359h5.389c-.084-1.526-1.176-2.548-2.646-2.576-1.651.014-2.547 1.148-2.743 2.576zm8.252-3.15h.588l.112.924c.84-1.343 2.519-1.077 3.331-.728l-.294.602c-1.33-.644-3.065.084-3.023 1.75v4.549h-.714v-7.097zm7.981 6.495v.658c-1.246.056-2.169-.602-2.169-1.988v-4.563h-1.05v-.602h1.05v-1.735l.713-.154v1.889h1.442v.602h-1.442v4.563c0 .84.546 1.344 1.456 1.33zm6.836-.868v-1.945c-.616-.392-1.4-.56-2.029-.56-1.624 0-2.45.756-2.45 1.722 0 1.007.756 1.749 2.31 1.749.727 0 1.651-.35 2.169-.966zm.686 1.47h-.56l-.14-.756a3.277 3.277 0 01-2.155.91c-2.058.014-3.024-1.078-3.024-2.449 0-1.246 1.092-2.352 3.15-2.366.587 0 1.357.182 2.043.588v-.588c0-1.526-1.092-1.89-2.253-1.89-.812 0-1.358.196-2.044.63l-.322-.518c.7-.532 1.568-.783 2.408-.783 1.469 0 2.897.657 2.897 2.561v4.661zm9.046-7.125c.588 0 1.26.168 1.806.7v-3.387h.742v9.812h-.602l-.112-.756c-.504.672-1.316.84-1.946.826-4.339-.056-4.325-7.209.112-7.195zm.028 6.537c.7 0 1.274-.28 1.792-.98v-4.115c-.462-.56-1.162-.826-1.96-.798-3.373.21-3.317 5.823.168 5.893zm5.949.588h-.727v-7.111h.727v7.111zm.014-9.784v1.078h-.755v-1.078h.755zm2.69 2.687h.587l.112.924c.84-1.343 2.52-1.077 3.332-.728l-.294.602c-1.33-.644-3.066.084-3.024 1.75v4.549h-.713v-7.097zm8.352 6.509c.798 0 1.638-.294 2.142-.924l.545.378c-.671.826-1.623 1.232-2.687 1.232-2.282 0-3.443-1.946-3.429-3.709 0-1.778 1.189-3.57 3.415-3.584 1.932-.014 3.289 1.498 3.289 3.402 0 .168-.014.28-.028.462h-6.005c.098 1.399 1.078 2.743 2.758 2.743zm-2.758-3.359h5.389c-.084-1.526-1.175-2.548-2.645-2.576-1.652.014-2.548 1.148-2.744 2.576zm13.445-2.408l-.392.476c-.517-.434-1.189-.63-1.875-.63-1.4-.014-2.73 1.134-2.744 3.01 0 1.371.938 2.911 2.758 2.911.7 0 1.372-.266 1.903-.7.168.21.28.322.434.504a3.493 3.493 0 01-2.337.896c-2.282 0-3.486-1.848-3.486-3.625 0-1.792 1.246-3.668 3.486-3.682.91 0 1.609.224 2.253.84zm4.497 5.753v.658c-1.245.056-2.169-.602-2.169-1.988v-4.563h-1.05v-.602h1.05v-1.735l.714-.154v1.889h1.441v.602h-1.441v4.563c0 .84.545 1.344 1.455 1.33zm6.836-.868v-1.945c-.616-.392-1.399-.56-2.029-.56-1.624 0-2.45.756-2.45 1.722 0 1.007.756 1.749 2.31 1.749.728 0 1.651-.35 2.169-.966zm.686 1.47h-.56l-.14-.756a3.275 3.275 0 01-2.155.91c-2.058.014-3.024-1.078-3.024-2.449 0-1.246 1.092-2.352 3.15-2.366.588 0 1.357.182 2.043.588v-.588c0-1.526-1.092-1.89-2.253-1.89-.812 0-1.358.196-2.044.63l-.322-.518c.7-.532 1.568-.783 2.408-.783 1.469 0 2.897.657 2.897 2.561v4.661zm5.227-6.565c-.797-.014-1.483.252-1.945.812v5.753h-.728v-7.097h.63l.098.602c.504-.49 1.274-.727 1.973-.727 1.218.055 2.03.363 2.464 1.413.616-1.246 1.512-1.4 2.449-1.4 1.526 0 2.772.826 2.772 2.982v4.227h-.728v-4.227c0-1.652-.966-2.324-2.044-2.324-1.105 0-2.057.504-2.071 2.184v4.367h-.686l-.028-4.367c-.056-1.47-.798-2.198-2.156-2.198zm13.238 5.977c.798 0 1.638-.294 2.142-.924l.546.378c-.672.826-1.624 1.232-2.688 1.232-2.281 0-3.443-1.946-3.429-3.709 0-1.778 1.19-3.57 3.415-3.584 1.932-.014 3.29 1.498 3.29 3.402 0 .168-.014.28-.028.462h-6.005c.098 1.399 1.078 2.743 2.757 2.743zm-2.757-3.359h5.389c-.084-1.526-1.176-2.548-2.646-2.576-1.651.014-2.547 1.148-2.743 2.576zm8.98-1.806v5.753h-.728v-7.097h.63l.098.602c.504-.49 1.273-.741 1.973-.741 1.834.027 3.374 1.161 3.374 3.163v4.073h-.728v-4.073c-.014-1.484-1.26-2.436-2.674-2.492-.798-.014-1.483.252-1.945.812zm10.219 5.151v.658c-1.245.056-2.169-.602-2.169-1.988v-4.563h-1.05v-.602h1.05v-1.735l.714-.154v1.889h1.441v.602h-1.441v4.563c0 .84.545 1.344 1.455 1.33zm5.115.014c.797 0 1.637-.294 2.141-.924l.546.378c-.672.826-1.624 1.232-2.687 1.232-2.282 0-3.444-1.946-3.43-3.709 0-1.778 1.19-3.57 3.416-3.584 1.931-.014 3.289 1.498 3.289 3.402 0 .168-.014.28-.028.462h-6.005c.098 1.399 1.078 2.743 2.758 2.743zm-2.758-3.359h5.389c-.084-1.526-1.176-2.548-2.645-2.576-1.652.014-2.548 1.148-2.744 2.576zm14.744-3.178c.588 0 1.26.168 1.806.7v-3.387h.742v9.812h-.602l-.112-.756c-.504.672-1.316.84-1.946.826-4.339-.056-4.325-7.209.112-7.195zm.028 6.537c.7 0 1.274-.28 1.792-.98v-4.115c-.462-.56-1.162-.826-1.96-.798-3.373.21-3.317 5.823.168 5.893zm8.161 0c.798 0 1.638-.294 2.142-.924l.546.378c-.672.826-1.624 1.232-2.688 1.232-2.281 0-3.443-1.946-3.429-3.709 0-1.778 1.19-3.57 3.415-3.584 1.932-.014 3.29 1.498 3.29 3.402 0 .168-.014.28-.028.462h-6.005c.098 1.399 1.078 2.743 2.757 2.743zm-2.757-3.359h5.389c-.084-1.526-1.176-2.548-2.646-2.576-1.651.014-2.547 1.148-2.743 2.576zm10.113.042c1.106.224 2.198.798 2.198 1.987 0 1.4-1.358 2.044-2.394 2.044-.839 0-1.651-.35-2.169-1.022.14-.14.322-.322.434-.448.854 1.176 3.289 1.134 3.415-.588-.014-.797-.98-1.203-1.624-1.329-1.077-.182-2.071-.756-2.085-1.918 0-2.085 2.841-2.603 4.185-1.344l-.434.476c-.896-.868-3.051-.588-3.037.868.014.826.895 1.148 1.511 1.274zm7.242-3.22c.588 0 1.26.168 1.806.7v-3.387h.741v9.812h-.601l-.112-.756c-.504.672-1.316.84-1.946.826-4.339-.056-4.325-7.209.112-7.195zm.028 6.537c.7 0 1.274-.28 1.792-.98v-4.115c-.462-.56-1.162-.826-1.96-.798-3.373.21-3.317 5.823.168 5.893zm8.161 0c.798 0 1.637-.294 2.141-.924l.546.378c-.672.826-1.624 1.232-2.687 1.232-2.282 0-3.444-1.946-3.43-3.709 0-1.778 1.19-3.57 3.416-3.584 1.931-.014 3.289 1.498 3.289 3.402 0 .168-.014.28-.028.462h-6.005c.098 1.399 1.078 2.743 2.758 2.743zm-2.758-3.359h5.389c-.084-1.526-1.176-2.548-2.645-2.576-1.652.014-2.548 1.148-2.744 2.576zM41.861 149.774v.644c-1.204.056-1.876-.616-1.876-1.988v-7.824h.742v7.824c0 .84.238 1.358 1.134 1.344zm6.738-.84v-1.945c-.616-.392-1.4-.56-2.03-.56-1.623 0-2.45.756-2.45 1.722 0 1.007.757 1.749 2.31 1.749.728 0 1.652-.35 2.17-.966zm.686 1.47h-.56l-.14-.756a3.277 3.277 0 01-2.156.91c-2.057.014-3.023-1.078-3.023-2.449 0-1.246 1.092-2.352 3.15-2.366.587 0 1.357.182 2.043.588v-.588c0-1.526-1.092-1.89-2.254-1.89-.812 0-1.358.196-2.043.63l-.322-.518c.7-.532 1.567-.783 2.407-.783 1.47 0 2.898.657 2.898 2.561v4.661zm9.088-.588c.798 0 1.638-.294 2.141-.924l.546.378c-.672.826-1.623 1.232-2.687 1.232-2.282 0-3.444-1.946-3.43-3.709 0-1.778 1.19-3.57 3.416-3.584 1.931-.014 3.29 1.498 3.29 3.402 0 .168-.015.28-.029.462h-6.005c.098 1.399 1.078 2.743 2.758 2.743zm-2.758-3.359h5.39c-.085-1.526-1.177-2.548-2.646-2.576-1.652.014-2.548 1.148-2.744 2.576zm10.506-.056l2.043-3.094h.868l-2.435 3.542c.784 1.092 1.721 2.449 2.505 3.555h-.84l-2.141-3.135-2.1 3.135h-.854l2.464-3.555c-.784-1.12-1.652-2.408-2.436-3.542h.882l2.044 3.094zm7.258 3.401v.658c-1.245.056-2.17-.602-2.17-1.988v-4.563H70.16v-.602h1.05v-1.735l.714-.154v1.889h1.441v.602h-1.441v4.563c0 .84.546 1.344 1.455 1.33zm5.115.014c.798 0 1.638-.294 2.141-.924l.546.378c-.672.826-1.623 1.232-2.687 1.232-2.282 0-3.444-1.946-3.43-3.709 0-1.778 1.19-3.57 3.416-3.584 1.931-.014 3.29 1.498 3.29 3.402 0 .168-.015.28-.029.462h-6.005c.098 1.399 1.078 2.743 2.758 2.743zm-2.758-3.359h5.39c-.085-1.526-1.177-2.548-2.646-2.576-1.652.014-2.548 1.148-2.744 2.576zm8.98-1.806v5.753h-.728v-7.097h.63l.098.602c.504-.49 1.274-.741 1.974-.741 1.833.027 3.373 1.161 3.373 3.163v4.073h-.728v-4.073c-.014-1.484-1.26-2.436-2.673-2.492-.798-.014-1.484.252-1.946.812zm9.814 1.848c1.106.224 2.197.798 2.197 1.987 0 1.4-1.357 2.044-2.393 2.044-.84 0-1.652-.35-2.17-1.022.14-.14.322-.322.434-.448.854 1.176 3.29 1.134 3.415-.588-.014-.797-.98-1.203-1.623-1.329-1.078-.182-2.072-.756-2.086-1.918 0-2.085 2.842-2.603 4.185-1.344l-.434.476c-.895-.868-3.05-.588-3.037.868.014.826.896 1.148 1.512 1.274zm5.072 3.905h-.728v-7.111h.728v7.111zm.014-9.784v1.078h-.756v-1.078h.756zm2.843 6.243c0 1.945 1.414 3.079 2.785 3.079 1.386 0 2.8-1.134 2.8-3.079 0-1.946-1.414-3.038-2.8-3.038-1.371 0-2.785 1.092-2.785 3.038zm6.313 0c0 1.987-1.498 3.709-3.528 3.709-2.015 0-3.513-1.722-3.513-3.709 0-1.988 1.498-3.709 3.513-3.709 2.03 0 3.528 1.721 3.528 3.709zm-2.128-6.131h-.868l-.84 1.456h.644l1.064-1.456zm4.987 3.919v5.753h-.728v-7.097h.63l.098.602c.504-.49 1.273-.741 1.973-.741 1.834.027 3.374 1.161 3.374 3.163v4.073h-.728v-4.073c-.014-1.484-1.26-2.436-2.674-2.492-.798-.014-1.483.252-1.945.812zm11.659 8.287v-.602c.811.028 1.133-.252 1.357-.826l.406-1.078-2.897-7.125h.784l2.505 6.369 2.394-6.369h.784l-3.29 8.441c-.35.952-1.022 1.19-1.819 1.19h-.224zm12.452-6.439c1.106.224 2.198.798 2.198 1.987 0 1.4-1.358 2.044-2.394 2.044-.84 0-1.651-.35-2.169-1.022.14-.14.322-.322.434-.448.853 1.176 3.289 1.134 3.415-.588-.014-.797-.98-1.203-1.624-1.329-1.078-.182-2.071-.756-2.085-1.918 0-2.085 2.841-2.603 4.185-1.344l-.434.476c-.896-.868-3.051-.588-3.037.868.014.826.895 1.148 1.511 1.274zm7.284 3.317c.798 0 1.637-.294 2.141-.924l.546.378c-.672.826-1.623 1.232-2.687 1.232-2.282 0-3.444-1.946-3.43-3.709 0-1.778 1.19-3.57 3.416-3.584 1.931-.014 3.289 1.498 3.289 3.402 0 .168-.014.28-.028.462h-6.005c.098 1.399 1.078 2.743 2.758 2.743zm-2.758-3.359h5.389c-.084-1.526-1.176-2.548-2.645-2.576-1.652.014-2.548 1.148-2.744 2.576zm8.252-3.15h.588l.112.924c.84-1.343 2.52-1.077 3.331-.728l-.294.602c-1.329-.644-3.065.084-3.023 1.75v4.549h-.714v-7.097zm10.046 3.696c-.616-.392-1.371-.56-2.001-.56-3.262 0-3.234 3.457-.14 3.457.728 0 1.623-.35 2.141-.966v-1.931zm.154 3.401l-.14-.756a3.275 3.275 0 01-2.155.91c-4.045.028-4.073-4.773.126-4.815.588 0 1.329.182 2.015.588v-.294c0-1.526-1.064-2.086-2.225-2.086-.756 0-1.414.224-2.044.616l-.364-.504c.7-.532 1.61-.798 2.45-.798 1.469 0 2.897.868 2.897 2.772v4.367h-.56zm-1.036-9.658h-.867l-.84 1.456h.644l1.063-1.456zm6.012 5.753c1.105.224 2.197.798 2.197 1.987 0 1.4-1.358 2.044-2.393 2.044-.84 0-1.652-.35-2.17-1.022.14-.14.322-.322.434-.448.854 1.176 3.289 1.134 3.415-.588-.014-.797-.98-1.203-1.623-1.329-1.078-.182-2.072-.756-2.086-1.918 0-2.085 2.841-2.603 4.185-1.344l-.434.476c-.896-.868-3.051-.588-3.037.868.014.826.896 1.148 1.512 1.274zm7.939-3.192h.588l.112.924c.839-1.343 2.519-1.077 3.331-.728l-.294.602c-1.33-.644-3.065.084-3.023 1.75v4.549h-.714v-7.097zm8.352 6.509c.798 0 1.638-.294 2.142-.924l.546.378c-.672.826-1.624 1.232-2.688 1.232-2.281 0-3.443-1.946-3.429-3.709 0-1.778 1.19-3.57 3.415-3.584 1.932-.014 3.289 1.498 3.289 3.402 0 .168-.014.28-.028.462h-6.004c.098 1.399 1.077 2.743 2.757 2.743zm-2.757-3.359h5.389c-.084-1.526-1.176-2.548-2.646-2.576-1.652.014-2.547 1.148-2.743 2.576zm11.149-3.178c.588 0 1.26.168 1.806.7v-3.387h.741v9.812h-.601l-.112-.756c-.504.672-1.316.84-1.946.826-4.339-.056-4.325-7.209.112-7.195zm.028 6.537c.7 0 1.274-.28 1.792-.98v-4.115c-.462-.56-1.162-.826-1.96-.798-3.373.21-3.317 5.823.168 5.893zm5.949.588h-.728v-7.111h.728v7.111zm.014-9.784v1.078h-.756v-1.078h.756zm2.689 2.687h.588l.112.924c.84-1.343 2.52-1.077 3.332-.728l-.294.602c-1.33-.644-3.066.084-3.024 1.75v4.549h-.714v-7.097zm6.442 7.097h-.728v-7.111h.728v7.111zm.014-9.784v1.078h-.756v-1.078h.756zm5.628 2.631a2.6 2.6 0 011.82.728l.126-.672h.602v7.195c0 1.988-1.442 2.673-2.94 2.659-.993-.013-2.001-.377-2.659-1.119l.42-.476c.532.574 1.386.924 2.197.924 1.232 0 2.268-.434 2.268-1.988v-.854c-.504.672-1.316.84-1.946.826-4.381-.056-4.367-7.237.112-7.223zm.028 6.565c.7 0 1.274-.28 1.792-.98v-4.115c-.462-.56-1.162-.854-1.96-.826-3.415.21-3.401 5.851.168 5.921zm5.935.588h-.728v-7.111h.728v7.111zm.014-9.784v1.078h-.756v-1.078h.756zm5.586 2.659c.588 0 1.26.168 1.806.7v-3.387h.742v9.812h-.602l-.112-.756c-.504.672-1.316.84-1.945.826-4.34-.056-4.326-7.209.111-7.195zm.028 6.537c.7 0 1.274-.28 1.792-.98v-4.115c-.462-.56-1.162-.826-1.959-.798-3.374.21-3.318 5.823.167 5.893zm5.239-2.953c0 1.945 1.414 3.079 2.786 3.079 1.385 0 2.799-1.134 2.799-3.079 0-1.946-1.414-3.038-2.799-3.038-1.372 0-2.786 1.092-2.786 3.038zm6.313 0c0 1.987-1.498 3.709-3.527 3.709-2.016 0-3.514-1.722-3.514-3.709 0-1.988 1.498-3.709 3.514-3.709 2.029 0 3.527 1.721 3.527 3.709zm10.387 2.071v-1.945c-.616-.392-1.4-.56-2.029-.56-1.624 0-2.45.756-2.45 1.722 0 1.007.756 1.749 2.31 1.749.727 0 1.651-.35 2.169-.966zm.686 1.47h-.56l-.14-.756a3.277 3.277 0 01-2.155.91c-2.058.014-3.024-1.078-3.024-2.449 0-1.246 1.092-2.352 3.15-2.366.587 0 1.357.182 2.043.588v-.588c0-1.526-1.092-1.89-2.253-1.89-.812 0-1.358.196-2.044.63l-.322-.518c.7-.532 1.568-.783 2.408-.783 1.469 0 2.897.657 2.897 2.561v4.661zm7.94-.63v.644c-1.203.056-1.875-.616-1.875-1.988v-7.824h.742v7.824c0 .84.238 1.358 1.133 1.344zm6.738-.84v-1.945c-.616-.392-1.399-.56-2.029-.56-1.624 0-2.45.756-2.45 1.722 0 1.007.756 1.749 2.31 1.749.728 0 1.651-.35 2.169-.966zm.686 1.47h-.56l-.14-.756a3.275 3.275 0 01-2.155.91c-2.058.014-3.024-1.078-3.024-2.449 0-1.246 1.092-2.352 3.15-2.366.588 0 1.357.182 2.043.588v-.588c0-1.526-1.092-1.89-2.253-1.89-.812 0-1.358.196-2.044.63l-.322-.518c.7-.532 1.568-.783 2.408-.783 1.469 0 2.897.657 2.897 2.561v4.661zm8.416-.602v.658c-1.245.056-2.169-.602-2.169-1.988v-4.563h-1.05v-.602h1.05v-1.735l.714-.154v1.889h1.441v.602h-1.441v4.563c0 .84.546 1.344 1.455 1.33zm2.903.602h-.728v-7.111h.728v7.111zm.014-9.784v1.078h-.756v-1.078h.756zm5.629 9.196c.798 0 1.637-.294 2.141-.924l.546.378c-.672.826-1.623 1.232-2.687 1.232-2.282 0-3.444-1.946-3.43-3.709 0-1.778 1.19-3.57 3.416-3.584 1.931-.014 3.289 1.498 3.289 3.402 0 .168-.014.28-.028.462h-6.005c.098 1.399 1.078 2.743 2.758 2.743zm-2.758-3.359h5.389c-.084-1.526-1.176-2.548-2.645-2.576-1.652.014-2.548 1.148-2.744 2.576zm8.98-1.806v5.753h-.728v-7.097h.63l.098.602c.504-.49 1.274-.741 1.974-.741 1.833.027 3.373 1.161 3.373 3.163v4.073h-.728v-4.073c-.014-1.484-1.26-2.436-2.673-2.492-.798-.014-1.484.252-1.946.812zm10.849-1.372c.588 0 1.26.168 1.806.7v-3.387h.742v9.812h-.602l-.112-.756c-.504.672-1.316.84-1.945.826-4.34-.056-4.326-7.209.111-7.195zm.028 6.537c.7 0 1.274-.28 1.792-.98v-4.115c-.462-.56-1.162-.826-1.959-.798-3.374.21-3.318 5.823.167 5.893zm9.883-.882v-1.945c-.616-.392-1.4-.56-2.03-.56-1.623 0-2.449.756-2.449 1.722 0 1.007.756 1.749 2.309 1.749.728 0 1.652-.35 2.17-.966zm.686 1.47h-.56l-.14-.756a3.278 3.278 0 01-2.156.91c-2.057.014-3.023-1.078-3.023-2.449 0-1.246 1.092-2.352 3.149-2.366.588 0 1.358.182 2.044.588v-.588c0-1.526-1.092-1.89-2.254-1.89-.811 0-1.357.196-2.043.63l-.322-.518c.7-.532 1.568-.783 2.407-.783 1.47 0 2.898.657 2.898 2.561v4.661zm8.696-7.139c4.437-.014 4.451 7.153.112 7.209-.616.014-1.442-.14-1.946-.784v3.458h-.713v-9.841h.616l.111.672c.546-.532 1.232-.714 1.82-.714zm-.028 6.551c3.485-.07 3.541-5.697.168-5.907-.798-.028-1.498.252-1.96.812v4.115c.518.7 1.092.98 1.792.98zm10.302-.882v-1.945c-.616-.392-1.4-.56-2.029-.56-1.624 0-2.45.756-2.45 1.722 0 1.007.756 1.749 2.31 1.749.727 0 1.651-.35 2.169-.966zm.686 1.47h-.56l-.14-.756a3.277 3.277 0 01-2.155.91c-2.058.014-3.024-1.078-3.024-2.449 0-1.246 1.092-2.352 3.15-2.366.587 0 1.357.182 2.043.588v-.588c0-1.526-1.092-1.89-2.253-1.89-.812 0-1.358.196-2.044.63l-.322-.518c.7-.532 1.568-.783 2.408-.783 1.469 0 2.897.657 2.897 2.561v4.661zm2.554-7.097h.588l.112.924c.84-1.343 2.519-1.077 3.331-.728l-.294.602c-1.33-.644-3.065.084-3.023 1.75v4.549h-.714v-7.097zm10.074 5.627v-1.945c-.616-.392-1.4-.56-2.03-.56-1.623 0-2.449.756-2.449 1.722 0 1.007.756 1.749 2.309 1.749.728 0 1.652-.35 2.17-.966zm.686 1.47h-.56l-.14-.756a3.278 3.278 0 01-2.156.91c-2.057.014-3.023-1.078-3.023-2.449 0-1.246 1.092-2.352 3.149-2.366.588 0 1.358.182 2.044.588v-.588c0-1.526-1.092-1.89-2.254-1.89-.811 0-1.357.196-2.043.63l-.322-.518c.7-.532 1.568-.783 2.407-.783 1.47 0 2.898.657 2.898 2.561v4.661zm-291.06 10.645l-.393.476c-.517-.434-1.19-.63-1.875-.63-1.4-.014-2.73 1.134-2.744 3.01 0 1.371.938 2.911 2.758 2.911.7 0 1.371-.266 1.903-.7.168.21.28.322.434.504a3.495 3.495 0 01-2.337.896c-2.282 0-3.486-1.848-3.486-3.625 0-1.792 1.246-3.668 3.486-3.682.91 0 1.61.224 2.253.84zm2.246 2.814c0 1.945 1.414 3.079 2.785 3.079 1.386 0 2.8-1.134 2.8-3.079 0-1.946-1.414-3.038-2.8-3.038-1.371 0-2.785 1.092-2.785 3.038zm6.313 0c0 1.987-1.498 3.709-3.528 3.709-2.015 0-3.513-1.722-3.513-3.709 0-1.988 1.498-3.709 3.513-3.709 2.03 0 3.528 1.721 3.528 3.709zm4.804-3.024c-.797-.014-1.483.252-1.945.812v5.753h-.728v-7.097h.63l.098.602c.504-.49 1.273-.727 1.973-.727 1.218.055 2.03.363 2.464 1.413.616-1.246 1.511-1.4 2.45-1.4 1.525 0 2.77.826 2.77 2.982v4.227h-.727v-4.227c0-1.652-.966-2.324-2.044-2.324-1.105 0-2.057.504-2.071 2.184v4.367h-.686l-.028-4.367c-.056-1.47-.798-2.198-2.156-2.198zm12.846-.574c4.438-.014 4.452 7.153.112 7.209-.616.014-1.441-.14-1.945-.784v3.458h-.714v-9.841h.616l.112.672c.546-.532 1.231-.714 1.82-.714zm-.028 6.551c3.486-.07 3.542-5.697.168-5.907-.797-.028-1.497.252-1.96.812v4.115c.519.7 1.093.98 1.792.98zm7.433-.042v.644c-1.204.056-1.876-.616-1.876-1.988v-7.824h.742v7.824c0 .84.238 1.358 1.134 1.344zm5.016.042c.798 0 1.638-.294 2.142-.924l.546.378c-.672.826-1.624 1.232-2.688 1.232-2.281 0-3.443-1.946-3.43-3.709 0-1.778 1.19-3.57 3.416-3.584 1.932-.014 3.29 1.498 3.29 3.402 0 .168-.014.28-.028.462h-6.005c.098 1.399 1.077 2.743 2.757 2.743zm-2.757-3.359h5.389c-.084-1.526-1.176-2.548-2.646-2.576-1.652.014-2.547 1.148-2.743 2.576zm10.52 3.345v.658c-1.247.056-2.17-.602-2.17-1.988v-4.563h-1.05v-.602h1.05v-1.735l.713-.154v1.889h1.442v.602H90.2v4.563c0 .84.546 1.344 1.456 1.33zm6.835-.868v-1.945c-.616-.392-1.4-.56-2.03-.56-1.623 0-2.449.756-2.449 1.722 0 1.007.756 1.749 2.31 1.749.727 0 1.651-.35 2.17-.966zm.686 1.47h-.56l-.14-.756a3.277 3.277 0 01-2.156.91c-2.057.014-3.023-1.078-3.023-2.449 0-1.246 1.092-2.352 3.15-2.366.587 0 1.357.182 2.043.588v-.588c0-1.526-1.092-1.89-2.254-1.89-.811 0-1.357.196-2.043.63l-.322-.518c.7-.532 1.568-.783 2.407-.783 1.47 0 2.898.657 2.898 2.561v4.661zm2.554-7.097h.588l.112.924c.839-1.343 2.519-1.077 3.331-.728l-.294.602c-1.33-.644-3.065.084-3.023 1.75v4.549h-.714v-7.097zm11.576 6.495v.658c-1.246.056-2.17-.602-2.17-1.988v-4.563h-1.049v-.602h1.049v-1.735l.714-.154v1.889h1.442v.602h-1.442v4.563c0 .84.546 1.344 1.456 1.33zm7.424-.91v-5.585h.728v7.097h-.63l-.098-.826c-.434.574-1.288.952-1.988.952-1.833-.028-3.359-.826-3.359-3.093v-4.13h.728v4.13c0 1.931 1.26 2.365 2.673 2.421a2.356 2.356 0 001.946-.966zm12.205-4.843l-.392.476c-.518-.434-1.19-.63-1.875-.63-1.4-.014-2.73 1.134-2.744 3.01 0 1.371.938 2.911 2.758 2.911.699 0 1.371-.266 1.903-.7.168.21.28.322.434.504a3.495 3.495 0 01-2.337.896c-2.282 0-3.486-1.848-3.486-3.625 0-1.792 1.246-3.668 3.486-3.682.909 0 1.609.224 2.253.84zm2.247 2.814c0 1.945 1.413 3.079 2.785 3.079 1.386 0 2.8-1.134 2.8-3.079 0-1.946-1.414-3.038-2.8-3.038-1.372 0-2.785 1.092-2.785 3.038zm6.312 0c0 1.987-1.497 3.709-3.527 3.709-2.015 0-3.513-1.722-3.513-3.709 0-1.988 1.498-3.709 3.513-3.709 2.03 0 3.527 1.721 3.527 3.709zm4.805-3.024c-.798-.014-1.484.252-1.945.812v5.753h-.728v-7.097h.63l.098.602c.503-.49 1.273-.727 1.973-.727 1.218.055 2.03.363 2.464 1.413.616-1.246 1.511-1.4 2.449-1.4 1.526 0 2.772.826 2.772 2.982v4.227h-.728v-4.227c0-1.652-.966-2.324-2.044-2.324-1.106 0-2.057.504-2.071 2.184v4.367h-.686l-.028-4.367c-.056-1.47-.798-2.198-2.156-2.198zm12.846-.574c4.437-.014 4.451 7.153.112 7.209-.616.014-1.442-.14-1.945-.784v3.458h-.714v-9.841h.616l.112.672c.545-.532 1.231-.714 1.819-.714zm-.028 6.551c3.485-.07 3.541-5.697.168-5.907-.798-.028-1.498.252-1.959.812v4.115c.517.7 1.091.98 1.791.98zm5.641-6.509h.588l.112.924c.84-1.343 2.52-1.077 3.331-.728l-.294.602c-1.329-.644-3.065.084-3.023 1.75v4.549h-.714v-7.097zm10.074 5.627v-1.945c-.616-.392-1.4-.56-2.029-.56-1.624 0-2.45.756-2.45 1.722 0 1.007.756 1.749 2.31 1.749.727 0 1.651-.35 2.169-.966zm.686 1.47h-.56l-.14-.756a3.277 3.277 0 01-2.155.91c-2.058.014-3.024-1.078-3.024-2.449 0-1.246 1.092-2.352 3.15-2.366.587 0 1.357.182 2.043.588v-.588c0-1.526-1.092-1.89-2.253-1.89-.812 0-1.358.196-2.044.63l-.322-.518c.7-.532 1.568-.783 2.408-.783 1.469 0 2.897.657 2.897 2.561v4.661zm3.436.014h-.882v-1.092h.882v1.092zm6.794-4.815h.728v7.614h-.742l.014-7.614zm-.056-2.128h.84v1.092h-.84v-1.092zm4.338-.475c-.084 1.357 1.246 1.749 2.114 1.973 1.386.35 2.925 1.12 2.827 3.08-.14 1.609-1.623 2.477-2.995 2.477-1.148 0-2.366-.658-2.898-1.904.196-.098.434-.238.602-.322.42.896 1.288 1.498 2.31 1.498 1.26.014 2.169-.714 2.239-1.805.112-1.512-1.287-2.044-2.295-2.31-1.218-.336-2.702-.91-2.646-2.729.056-1.68 1.414-2.506 2.744-2.506 1.12 0 2.239.588 2.715 1.708l-.588.294c-.42-.798-1.301-1.26-2.099-1.26-.98-.014-1.96.56-2.03 1.806zm8.139 7.404h-.728v-7.111h.728v7.111zm.014-9.784v1.078h-.756v-1.078h.756zm3.417 4.031v5.753h-.728v-7.097h.63l.098.602c.504-.49 1.274-.741 1.973-.741 1.834.027 3.374 1.161 3.374 3.163v4.073h-.728v-4.073c-.014-1.484-1.26-2.436-2.674-2.492-.797-.014-1.483.252-1.945.812zm13.814 5.151v.658c-1.245.056-2.169-.602-2.169-1.988v-4.563h-1.05v-.602h1.05v-1.735l.714-.154v1.889h1.441v.602h-1.441v4.563c0 .84.546 1.344 1.455 1.33zm2.175-6.495h.588l.112.924c.84-1.343 2.52-1.077 3.332-.728l-.294.602c-1.33-.644-3.066.084-3.024 1.75v4.549h-.714v-7.097zm10.963 5.585v-5.585h.728v7.097h-.63l-.098-.826c-.434.574-1.288.952-1.988.952-1.833-.028-3.359-.826-3.359-3.093v-4.13h.728v4.13c0 1.931 1.26 2.365 2.673 2.421a2.356 2.356 0 001.946-.966zm8.61-4.843l-.392.476c-.518-.434-1.189-.63-1.875-.63-1.4-.014-2.73 1.134-2.744 3.01 0 1.371.938 2.911 2.758 2.911.7 0 1.371-.266 1.903-.7.168.21.28.322.434.504a3.493 3.493 0 01-2.337.896c-2.282 0-3.486-1.848-3.486-3.625 0-1.792 1.246-3.668 3.486-3.682.91 0 1.609.224 2.253.84zm2.247 2.814c0 1.945 1.414 3.079 2.785 3.079 1.386 0 2.8-1.134 2.8-3.079 0-1.946-1.414-3.038-2.8-3.038-1.371 0-2.785 1.092-2.785 3.038zm6.313 0c0 1.987-1.498 3.709-3.528 3.709-2.015 0-3.513-1.722-3.513-3.709 0-1.988 1.498-3.709 3.513-3.709 2.03 0 3.528 1.721 3.528 3.709zm3.992-.364c1.106.224 2.198.798 2.198 1.987 0 1.4-1.358 2.044-2.394 2.044-.839 0-1.651-.35-2.169-1.022.14-.14.322-.322.434-.448.854 1.176 3.289 1.134 3.415-.588-.014-.797-.98-1.203-1.624-1.329-1.077-.182-2.071-.756-2.085-1.918 0-2.085 2.841-2.603 4.185-1.344l-.434.476c-.896-.868-3.051-.588-3.037.868.014.826.896 1.148 1.511 1.274zm8.667-1.848v5.753h-.727v-7.097h.629l.098.602c.504-.49 1.274-.741 1.974-.741 1.834.027 3.373 1.161 3.373 3.163v4.073h-.727v-4.073c-.014-1.484-1.26-2.436-2.674-2.492-.798-.014-1.484.252-1.946.812zm8.68 5.753h-.728v-7.111h.728v7.111zm.014-9.784v1.078h-.755v-1.078h.755zm11.477 3.429l-.392.476c-.517-.434-1.189-.63-1.875-.63-1.4-.014-2.73 1.134-2.744 3.01 0 1.371.938 2.911 2.758 2.911.7 0 1.372-.266 1.903-.7.168.21.28.322.434.504a3.493 3.493 0 01-2.337.896c-2.282 0-3.485-1.848-3.485-3.625 0-1.792 1.245-3.668 3.485-3.682.91 0 1.61.224 2.253.84zm2.247 2.814c0 1.945 1.414 3.079 2.785 3.079 1.386 0 2.8-1.134 2.8-3.079 0-1.946-1.414-3.038-2.8-3.038-1.371 0-2.785 1.092-2.785 3.038zm6.313 0c0 1.987-1.498 3.709-3.528 3.709-2.015 0-3.513-1.722-3.513-3.709 0-1.988 1.498-3.709 3.513-3.709 2.03 0 3.528 1.721 3.528 3.709zm3.993-.364c1.105.224 2.197.798 2.197 1.987 0 1.4-1.358 2.044-2.393 2.044-.84 0-1.652-.35-2.17-1.022.14-.14.322-.322.434-.448.854 1.176 3.289 1.134 3.415-.588-.014-.797-.98-1.203-1.623-1.329-1.078-.182-2.072-.756-2.086-1.918 0-2.085 2.841-2.603 4.185-1.344l-.434.476c-.896-.868-3.051-.588-3.037.868.014.826.896 1.148 1.512 1.274zm6.611 3.303v.658c-1.245.056-2.169-.602-2.169-1.988v-4.563h-1.05v-.602h1.05v-1.735l.714-.154v1.889h1.441v.602h-1.441v4.563c0 .84.545 1.344 1.455 1.33zm2.329-2.939c0 1.945 1.414 3.079 2.786 3.079 1.385 0 2.799-1.134 2.799-3.079 0-1.946-1.414-3.038-2.799-3.038-1.372 0-2.786 1.092-2.786 3.038zm6.313 0c0 1.987-1.498 3.709-3.527 3.709-2.016 0-3.514-1.722-3.514-3.709 0-1.988 1.498-3.709 3.514-3.709 2.029 0 3.527 1.721 3.527 3.709zm3.993-.364c1.105.224 2.197.798 2.197 1.987 0 1.4-1.357 2.044-2.393 2.044-.84 0-1.652-.35-2.17-1.022.14-.14.322-.322.434-.448.854 1.176 3.289 1.134 3.415-.588-.014-.797-.979-1.203-1.623-1.329-1.078-.182-2.072-.756-2.086-1.918 0-2.085 2.842-2.603 4.185-1.344l-.434.476c-.895-.868-3.051-.588-3.037.868.014.826.896 1.148 1.512 1.274zM40.223 180.863c0 1.945 1.414 3.079 2.786 3.079 1.385 0 2.8-1.134 2.8-3.079 0-1.946-1.415-3.038-2.8-3.038-1.372 0-2.786 1.092-2.786 3.038zm6.313 0c0 1.987-1.498 3.709-3.527 3.709-2.016 0-3.514-1.722-3.514-3.709 0-1.988 1.498-3.709 3.514-3.709 2.03 0 3.527 1.721 3.527 3.709zm7.324-2.814l-.392.476c-.518-.434-1.19-.63-1.875-.63-1.4-.014-2.73 1.134-2.744 3.01 0 1.371.938 2.911 2.758 2.911.7 0 1.371-.266 1.903-.7.168.21.28.322.434.504a3.495 3.495 0 01-2.337.896c-2.282 0-3.486-1.848-3.486-3.625 0-1.792 1.246-3.668 3.486-3.682.91 0 1.61.224 2.253.84zm7.328 4.843v-5.585h.728v7.097h-.63l-.098-.826c-.434.574-1.288.952-1.988.952-1.833-.028-3.359-.826-3.359-3.093v-4.13h.728v4.13c0 1.931 1.26 2.365 2.673 2.421a2.356 2.356 0 001.946-.966zm5.21.882v.644c-1.205.056-1.877-.616-1.877-1.988v-7.824h.742v7.824c0 .84.238 1.358 1.134 1.344zm4.343.028v.658c-1.245.056-2.17-.602-2.17-1.988v-4.563h-1.049v-.602h1.05v-1.735l.714-.154v1.889h1.441v.602h-1.441v4.563c0 .84.546 1.344 1.455 1.33zm2.33-2.939c0 1.945 1.413 3.079 2.785 3.079 1.385 0 2.8-1.134 2.8-3.079 0-1.946-1.415-3.038-2.8-3.038-1.372 0-2.786 1.092-2.786 3.038zm6.312 0c0 1.987-1.498 3.709-3.527 3.709-2.016 0-3.514-1.722-3.514-3.709 0-1.988 1.498-3.709 3.514-3.709 2.03 0 3.527 1.721 3.527 3.709zm3.993-.364c1.105.224 2.197.798 2.197 1.987 0 1.4-1.357 2.044-2.393 2.044-.84 0-1.652-.35-2.17-1.022.14-.14.322-.322.434-.448.854 1.176 3.29 1.134 3.415-.588-.013-.797-.98-1.203-1.623-1.329-1.078-.182-2.072-.756-2.086-1.918 0-2.085 2.842-2.603 4.185-1.344l-.433.476c-.896-.868-3.052-.588-3.038.868.014.826.896 1.148 1.512 1.274zm3.504 5.725l.826-2.744h.854l-1.12 2.744h-.56zm9.618-5.725c1.106.224 2.198.798 2.198 1.987 0 1.4-1.358 2.044-2.394 2.044-.84 0-1.652-.35-2.17-1.022.14-.14.322-.322.434-.448.854 1.176 3.29 1.134 3.416-.588-.014-.797-.98-1.203-1.624-1.329-1.078-.182-2.071-.756-2.085-1.918 0-2.085 2.841-2.603 4.185-1.344l-.434.476c-.896-.868-3.052-.588-3.038.868.014.826.896 1.148 1.512 1.274zm4.498.364c0 1.945 1.414 3.079 2.786 3.079 1.385 0 2.799-1.134 2.799-3.079 0-1.946-1.414-3.038-2.799-3.038-1.372 0-2.786 1.092-2.786 3.038zm6.313 0c0 1.987-1.498 3.709-3.527 3.709-2.016 0-3.514-1.722-3.514-3.709 0-1.988 1.498-3.709 3.514-3.709 2.029 0 3.527 1.721 3.527 3.709zm3.923 2.911v.644c-1.204.056-1.876-.616-1.876-1.988v-7.824h.742v7.824c0 .84.238 1.358 1.134 1.344zm2.231-2.911c0 1.945 1.413 3.079 2.785 3.079 1.386 0 2.799-1.134 2.799-3.079 0-1.946-1.413-3.038-2.799-3.038-1.372 0-2.785 1.092-2.785 3.038zm6.312 0c0 1.987-1.497 3.709-3.527 3.709-2.016 0-3.513-1.722-3.513-3.709 0-1.988 1.497-3.709 3.513-3.709 2.03 0 3.527 1.721 3.527 3.709zm10.387 2.071v-1.945c-.615-.392-1.399-.56-2.029-.56-1.624 0-2.45.756-2.45 1.722 0 1.007.756 1.749 2.31 1.749.728 0 1.652-.35 2.169-.966zm.686 1.47h-.56l-.14-.756a3.273 3.273 0 01-2.155.91c-2.058.014-3.023-1.078-3.023-2.449 0-1.246 1.091-2.352 3.149-2.366.588 0 1.358.182 2.043.588v-.588c0-1.526-1.091-1.89-2.253-1.89-.812 0-1.358.196-2.044.63l-.322-.518c.7-.532 1.568-.783 2.408-.783 1.47 0 2.897.657 2.897 2.561v4.661zm3.282-5.725v5.725h-.728v-9.798h.728v3.345c.504-.49 1.274-.742 1.974-.742 1.833.028 3.247 1.162 3.247 3.164v4.031h-.728v-4.031c-.014-1.484-1.134-2.436-2.547-2.492-.798-.014-1.484.238-1.946.798zm7.969 2.184c0 1.945 1.414 3.079 2.786 3.079 1.386 0 2.799-1.134 2.799-3.079 0-1.946-1.413-3.038-2.799-3.038-1.372 0-2.786 1.092-2.786 3.038zm6.313 0c0 1.987-1.498 3.709-3.527 3.709-2.016 0-3.514-1.722-3.514-3.709 0-1.988 1.498-3.709 3.514-3.709 2.029 0 3.527 1.721 3.527 3.709zm2.131-3.556h.588l.112.924c.84-1.343 2.52-1.077 3.331-.728l-.293.602c-1.33-.644-3.066.084-3.024 1.75v4.549h-.714v-7.097zm5.714 0h.588l.112.924c.84-1.343 2.519-1.077 3.331-.728l-.294.602c-1.33-.644-3.065.084-3.023 1.75v4.549h-.714v-7.097zm5.594 3.556c0 1.945 1.414 3.079 2.786 3.079 1.385 0 2.799-1.134 2.799-3.079 0-1.946-1.414-3.038-2.799-3.038-1.372 0-2.786 1.092-2.786 3.038zm6.313 0c0 1.987-1.498 3.709-3.527 3.709-2.016 0-3.514-1.722-3.514-3.709 0-1.988 1.498-3.709 3.514-3.709 2.029 0 3.527 1.721 3.527 3.709zm8.666-3.612a2.6 2.6 0 011.819.728l.126-.672h.602v7.195c0 1.988-1.442 2.673-2.939 2.659-.994-.013-2.002-.377-2.66-1.119l.42-.476c.532.574 1.386.924 2.198.924 1.231 0 2.267-.434 2.267-1.988v-.854c-.504.672-1.316.84-1.945.826-4.382-.056-4.368-7.237.112-7.223zm.028 6.565c.699 0 1.273-.28 1.791-.98v-4.115c-.462-.56-1.162-.854-1.959-.826-3.416.21-3.402 5.851.168 5.921zm9.867-.882v-1.945c-.616-.392-1.399-.56-2.029-.56-1.624 0-2.45.756-2.45 1.722 0 1.007.756 1.749 2.31 1.749.728 0 1.651-.35 2.169-.966zm.686 1.47h-.56l-.14-.756a3.275 3.275 0 01-2.155.91c-2.058.014-3.024-1.078-3.024-2.449 0-1.246 1.092-2.352 3.15-2.366.588 0 1.357.182 2.043.588v-.588c0-1.526-1.091-1.89-2.253-1.89-.812 0-1.358.196-2.044.63l-.322-.518c.7-.532 1.568-.783 2.408-.783 1.469 0 2.897.657 2.897 2.561v4.661zm2.554-7.097h.588l.112.924c.84-1.343 2.519-1.077 3.331-.728l-.294.602c-1.329-.644-3.065.084-3.023 1.75v4.549h-.714v-7.097zm10.074 5.627v-1.945c-.616-.392-1.4-.56-2.03-.56-1.623 0-2.449.756-2.449 1.722 0 1.007.756 1.749 2.31 1.749.727 0 1.651-.35 2.169-.966zm.686 1.47h-.56l-.14-.756a3.277 3.277 0 01-2.155.91c-2.058.014-3.024-1.078-3.024-2.449 0-1.246 1.092-2.352 3.149-2.366.588 0 1.358.182 2.044.588v-.588c0-1.526-1.092-1.89-2.253-1.89-.812 0-1.358.196-2.044.63l-.322-.518c.7-.532 1.568-.783 2.408-.783 1.469 0 2.897.657 2.897 2.561v4.661zm3.282-5.753v5.753h-.728v-7.097h.63l.098.602c.504-.49 1.273-.741 1.973-.741 1.834.027 3.374 1.161 3.374 3.163v4.073h-.728v-4.073c-.014-1.484-1.26-2.436-2.674-2.492-.798-.014-1.483.252-1.945.812zm10.219 5.151v.658c-1.246.056-2.169-.602-2.169-1.988v-4.563h-1.05v-.602h1.05v-1.735l.714-.154v1.889h1.441v.602h-1.441v4.563c0 .84.545 1.344 1.455 1.33zm2.903.602h-.728v-7.111h.728v7.111zm.014-9.784v1.078h-.756v-1.078h.756zm7.098 9.154v.63h-4.969v-.448l4.059-6.019h-3.919v-.63h4.731v.476l-4.045 5.991h4.143zm6.745-.84v-1.945c-.616-.392-1.4-.56-2.03-.56-1.623 0-2.449.756-2.449 1.722 0 1.007.756 1.749 2.309 1.749.728 0 1.652-.35 2.17-.966zm.686 1.47h-.56l-.14-.756a3.278 3.278 0 01-2.156.91c-2.057.014-3.023-1.078-3.023-2.449 0-1.246 1.092-2.352 3.149-2.366.588 0 1.358.182 2.044.588v-.588c0-1.526-1.092-1.89-2.254-1.89-.811 0-1.357.196-2.043.63l-.322-.518c.7-.532 1.568-.783 2.407-.783 1.47 0 2.898.657 2.898 2.561v4.661zm5.451-7.125c.588 0 1.26.168 1.806.7v-3.387h.742v9.812h-.602l-.112-.756c-.504.672-1.316.84-1.946.826-4.339-.056-4.325-7.209.112-7.195zm.028 6.537c.7 0 1.274-.28 1.792-.98v-4.115c-.462-.56-1.162-.826-1.96-.798-3.373.21-3.317 5.823.168 5.893zm5.239-2.953c0 1.945 1.413 3.079 2.785 3.079 1.386 0 2.8-1.134 2.8-3.079 0-1.946-1.414-3.038-2.8-3.038-1.372 0-2.785 1.092-2.785 3.038zm6.313 0c0 1.987-1.498 3.709-3.528 3.709-2.015 0-3.513-1.722-3.513-3.709 0-1.988 1.498-3.709 3.513-3.709 2.03 0 3.528 1.721 3.528 3.709zm3.418 1.413h-.727v-7.684h.741l-.014 7.684zm.056 2.128h-.839v-1.092h.839v1.092z" fill="#000"/></g><defs><filter id="filter0_d_154_871" x="-22.032" y="-26.417" width="468.986" height="288.986" filterUnits="userSpaceOnUse" color-interpolation-filters="sRGB"><feFlood flood-opacity="0" result="BackgroundImageFix"/><feColorMatrix in="SourceAlpha" values="0 0 0 0 0 0 0 0 0 0 0 0 0 0 0 0 0 0 127 0" result="hardAlpha"/><feOffset dy="3.999"/><feGaussianBlur stdDeviation="5.999"/><feComposite in2="hardAlpha" operator="out"/><feColorMatrix values="0 0 0 0 0.578693 0 0 0 0 0.578693 0 0 0 0 0.578693 0 0 0 0.25 0"/><feBlend in2="BackgroundImageFix" result="effect1_dropShadow_154_871"/><feBlend in="SourceGraphic" in2="effect1_dropShadow_154_871" result="shape"/></filter></defs></svg>