<svg width="208" height="29" viewBox="0 0 208 29" fill="none" xmlns="http://www.w3.org/2000/svg"><path d="M3.51 10.501c-.665 0-1.227-.104-1.685-.313-.458-.215-.804-.505-1.04-.868a2.318 2.318 0 01-.353-1.272h1.605c0 .189.05.364.151.525.108.162.27.293.485.394.215.094.495.141.838.141.31 0 .568-.04.777-.121.209-.08.367-.192.474-.333a.837.837 0 00.162-.505c0-.235-.101-.42-.303-.555-.202-.141-.528-.232-.979-.273l-.555-.05c-.734-.06-1.32-.29-1.757-.686C.893 6.188.674 5.663.674 5.01c0-.471.111-.878.333-1.222a2.19 2.19 0 01.95-.787c.403-.188.88-.283 1.433-.283.578 0 1.073.101 1.484.303.417.195.736.475.958.838.223.357.334.777.334 1.262H4.55a.961.961 0 00-.525-.868 1.289 1.289 0 00-.636-.142c-.243 0-.448.04-.616.122a.834.834 0 00-.363.333.847.847 0 00-.122.444c0 .208.074.39.222.545.149.155.39.246.727.272l.566.051a4.29 4.29 0 011.423.353c.41.182.73.434.959.757.235.317.353.704.353 1.161 0 .471-.124.885-.373 1.242-.243.35-.59.622-1.04.817-.451.195-.99.293-1.615.293zm4.341-.192V4.778h1.615v5.531H7.851zm-.737-4.34V4.778h2.352v1.19H7.114zm1.363-1.736c-.303 0-.528-.078-.676-.233a.887.887 0 01-.212-.605c0-.25.07-.451.212-.606.148-.161.373-.242.676-.242.303 0 .525.08.666.242.148.155.222.357.222.606A.862.862 0 019.143 4c-.141.155-.363.233-.666.233zm2.554 6.076V2.941h1.625v7.368H11.03zm-.656-6.177V2.94h2.28v1.19h-2.28zm3.84 6.177V2.941h1.625v7.368h-1.625zm-.656-6.177V2.94h2.28v1.19h-2.28zm7.11 6.177V8.674h-.272V6.897c0-.282-.068-.494-.202-.635-.135-.142-.35-.212-.646-.212a30.134 30.134 0 00-1.332.04c-.256.013-.489.027-.697.04V4.768a24.922 24.922 0 011.191-.071c.222-.007.43-.01.626-.01.565 0 1.04.08 1.423.242.39.162.686.407.888.737.202.323.303.74.303 1.252v3.391H20.67zm-1.766.142c-.397 0-.747-.071-1.05-.212a1.653 1.653 0 01-.697-.606 1.773 1.773 0 01-.252-.959c0-.404.104-.733.313-.99.209-.262.501-.453.878-.575.377-.127.811-.191 1.302-.191h1.181v.898h-1.19c-.283 0-.502.07-.657.212-.148.135-.222.32-.222.555a.72.72 0 00.222.545c.155.135.374.202.656.202.182 0 .343-.03.485-.09a.821.821 0 00.363-.334c.094-.155.148-.37.162-.646l.383.404c-.033.384-.128.707-.282.969a1.51 1.51 0 01-.626.606c-.263.141-.586.212-.97.212zm10.121.05c-.66 0-1.235-.108-1.726-.323a3.515 3.515 0 01-1.221-.888 3.76 3.76 0 01-.707-1.232 4.143 4.143 0 01-.232-1.352v-.222c0-.465.077-.919.232-1.363.155-.444.387-.848.697-1.211a3.457 3.457 0 011.17-.869c.472-.215 1.014-.323 1.626-.323.666 0 1.255.125 1.766.374.512.242.922.582 1.232 1.02.31.43.488.932.535 1.504H30.74a1.367 1.367 0 00-.323-.707 1.704 1.704 0 00-.656-.474 2.228 2.228 0 00-.898-.172c-.323 0-.613.057-.868.171a1.9 1.9 0 00-.646.485c-.175.209-.31.458-.404.747a3.165 3.165 0 00-.131.939c0 .356.047.683.141.979.101.29.246.542.434.757.189.209.42.37.697.484.282.115.595.172.938.172.458 0 .855-.094 1.191-.283a1.69 1.69 0 00.727-.747l-.202 1.131V7.342h1.525v1.574a3.144 3.144 0 01-1.313 1.181c-.552.27-1.194.404-1.928.404zm-.212-2.836V6.474h4.058v1.19h-4.058zm8.379 2.644V8.674h-.273V6.897c0-.282-.067-.494-.202-.635-.134-.142-.35-.212-.646-.212a30.146 30.146 0 00-1.332.04c-.256.013-.488.027-.697.04V4.768a24.861 24.861 0 011.191-.071c.222-.007.431-.01.626-.01.566 0 1.04.08 1.424.242.39.162.686.407.888.737.202.323.303.74.303 1.252v3.391H37.19zm-1.767.142c-.397 0-.747-.071-1.05-.212a1.653 1.653 0 01-.696-.606 1.772 1.772 0 01-.252-.959c0-.404.104-.733.312-.99.209-.262.502-.453.879-.575a4.05 4.05 0 011.302-.191h1.18v.898h-1.19c-.283 0-.502.07-.656.212-.148.135-.222.32-.222.555a.72.72 0 00.222.545c.154.135.373.202.656.202.181 0 .343-.03.484-.09a.821.821 0 00.364-.334c.094-.155.148-.37.161-.646l.384.404c-.034.384-.128.707-.283.969a1.508 1.508 0 01-.626.606c-.262.141-.585.212-.969.212zm4.419-.142V4.778h1.282V7.16h-.091c0-.565.07-1.036.212-1.413.141-.377.353-.66.636-.848.283-.195.63-.293 1.04-.293h.07c.418 0 .764.098 1.04.293.283.188.495.47.636.848.148.377.222.848.222 1.413h-.394c0-.565.071-1.036.212-1.413.148-.377.364-.66.646-.848.283-.195.63-.293 1.04-.293h.07c.418 0 .768.098 1.05.293.29.188.509.47.657.848.148.377.222.848.222 1.413v3.15h-1.615V7.07c0-.304-.081-.55-.243-.738-.154-.188-.377-.282-.666-.282-.29 0-.518.097-.686.292-.169.189-.253.441-.253.757v3.21h-1.625V7.07c0-.303-.08-.548-.242-.737-.155-.188-.373-.282-.656-.282-.296 0-.528.097-.697.292-.168.189-.252.441-.252.757v3.21h-1.615zm12.46.192c-.47 0-.888-.08-1.252-.242a2.676 2.676 0 01-.898-.646 3.104 3.104 0 01-.545-.919 3.134 3.134 0 01-.182-1.05v-.201a2.943 2.943 0 01.727-1.978c.236-.27.528-.482.878-.637.357-.161.76-.242 1.212-.242.592 0 1.09.135 1.493.404.411.262.724.609.94 1.04.215.423.322.888.322 1.392v.545h-4.895V7.05h3.916l-.525.424c0-.33-.047-.613-.141-.848a1.099 1.099 0 00-.424-.535c-.182-.128-.41-.192-.686-.192a1.28 1.28 0 00-.717.192 1.183 1.183 0 00-.444.565c-.101.242-.152.542-.152.899 0 .33.047.619.142.868.094.242.242.43.444.565.202.135.464.202.787.202.296 0 .539-.057.727-.172a.886.886 0 00.383-.424h1.484c-.08.37-.239.7-.474.99-.236.289-.532.514-.888.676a2.958 2.958 0 01-1.232.242zm3.766-.192V4.778h1.281V7.15h-.03c0-.78.165-1.383.495-1.807.336-.424.82-.636 1.453-.636h.212V6.1h-.403c-.444 0-.788.121-1.03.363-.242.236-.363.58-.363 1.03v2.816h-1.615zm6.458 0V2.941h1.615v7.368h-1.615zm1.414 0V8.937h3.22v1.372h-3.22zm0-3.058V5.878h2.987v1.373h-2.987zm0-2.938V2.941h3.149v1.372h-3.15zm4.489 5.996V4.778h1.282V7.15h-.03c0-.78.165-1.383.494-1.807.337-.424.821-.636 1.454-.636h.212V6.1h-.404c-.444 0-.787.121-1.03.363-.242.236-.363.58-.363 1.03v2.816H68.43zm6.4 2.2a11.612 11.612 0 01-1.606-.11v-1.363c.236.034.495.06.778.08.289.028.552.041.787.041.437 0 .79-.05 1.06-.151.276-.101.478-.256.606-.465.127-.201.191-.464.191-.787v-1.1l.293-.646c-.013.491-.111.912-.293 1.262-.175.35-.42.619-.737.807-.316.182-.693.273-1.13.273-.377 0-.72-.068-1.03-.202a2.302 2.302 0 01-.777-.586 2.629 2.629 0 01-.495-.868 3.365 3.365 0 01-.171-1.09v-.232c0-.39.06-.754.181-1.09.122-.337.297-.63.525-.878.23-.25.502-.441.818-.576a2.545 2.545 0 011.05-.212c.444 0 .828.098 1.15.293.33.195.59.481.778.858.188.377.29.831.303 1.363l-.222.06V4.778h1.282v4.875c0 .68-.122 1.228-.364 1.646-.242.417-.612.723-1.11.918-.491.195-1.114.293-1.868.293zm.454-3.522c.249 0 .474-.054.676-.162.202-.114.36-.275.474-.484.121-.209.182-.461.182-.757V7.29c0-.29-.064-.531-.192-.727a1.166 1.166 0 00-.484-.454 1.353 1.353 0 00-.646-.161 1.288 1.288 0 00-1.201.727 1.785 1.785 0 00-.172.807c0 .316.057.589.171.818.122.222.283.393.485.514.209.115.444.172.707.172zm6.98 1.514c-.484 0-.915-.074-1.292-.222a2.888 2.888 0 01-.959-.626 2.728 2.728 0 01-.585-.898 2.932 2.932 0 01-.202-1.08v-.232c0-.384.067-.747.202-1.09.141-.35.343-.657.605-.92.27-.262.593-.467.97-.615a3.292 3.292 0 011.261-.232c.478 0 .902.077 1.272.232.377.148.697.353.96.616.261.262.463.568.605.918.141.344.212.707.212 1.09v.233c0 .377-.068.737-.202 1.08a2.777 2.777 0 01-1.544 1.524c-.377.148-.812.222-1.303.222zm0-1.363c.317 0 .579-.067.788-.201.208-.135.366-.323.474-.566.114-.242.172-.511.172-.807 0-.317-.058-.592-.172-.828a1.374 1.374 0 00-.495-.575c-.208-.142-.464-.212-.767-.212-.296 0-.552.07-.767.212-.215.14-.38.333-.495.575a1.974 1.974 0 00-.161.828c0 .296.054.565.162.807.107.242.269.43.484.566.215.134.474.201.777.201zm-.797-5.006l.908-2.11h1.656l-1.151 2.11h-1.413zm4.973 6.177V4.778h1.282V7.15h-.091c0-.565.07-1.037.212-1.413.148-.377.37-.66.666-.848.296-.189.656-.283 1.08-.283h.07c.647 0 1.138.212 1.475.636.343.417.514 1.053.514 1.908v3.16h-1.615V7.058c0-.296-.087-.538-.262-.727-.175-.188-.41-.282-.707-.282-.302 0-.548.097-.736.292-.182.189-.273.438-.273.747v3.22H86.44zm9.28.192c-.485 0-.915-.074-1.292-.222a2.888 2.888 0 01-.96-.626 2.728 2.728 0 01-.585-.898 2.932 2.932 0 01-.201-1.08v-.232c0-.384.067-.747.201-1.09a2.73 2.73 0 01.606-.92c.27-.262.592-.467.97-.615a3.293 3.293 0 011.26-.232c.479 0 .903.077 1.273.232.377.148.696.353.959.616.262.262.464.568.605.918.142.344.212.707.212 1.09v.233c0 .377-.067.737-.201 1.08a2.777 2.777 0 01-1.544 1.524c-.378.148-.812.222-1.303.222zm0-1.363c.316 0 .579-.067.787-.201.209-.135.367-.323.475-.566.114-.242.171-.511.171-.807 0-.317-.057-.592-.171-.828a1.375 1.375 0 00-.495-.575c-.209-.142-.464-.212-.767-.212-.296 0-.552.07-.767.212-.216.14-.38.333-.495.575a1.976 1.976 0 00-.161.828c0 .296.053.565.161.807.108.242.27.43.485.566.215.134.474.201.777.201zm4.175 1.171V4.778h1.282V7.16h-.09c0-.565.07-1.036.212-1.413.141-.377.353-.66.636-.848.282-.195.629-.293 1.039-.293h.071c.417 0 .764.098 1.04.293.282.188.494.47.636.848.148.377.222.848.222 1.413h-.394c0-.565.071-1.036.212-1.413.148-.377.363-.66.646-.848.283-.195.629-.293 1.04-.293h.07c.418 0 .767.098 1.05.293.289.188.508.47.656.848.148.377.222.848.222 1.413v3.15h-1.615V7.07c0-.304-.081-.55-.242-.738-.155-.188-.377-.282-.666-.282-.29 0-.518.097-.687.292-.168.189-.252.441-.252.757v3.21h-1.625V7.07c0-.303-.081-.548-.242-.737-.155-.188-.374-.282-.657-.282-.296 0-.528.097-.696.292-.168.189-.252.441-.252.757v3.21h-1.615zm10.19 0V4.778h1.615v5.531h-1.615zm-.737-4.34V4.778h2.352v1.19h-2.352zm1.362-1.736c-.302 0-.528-.078-.676-.233a.888.888 0 01-.212-.605c0-.25.071-.451.212-.606.148-.161.374-.242.676-.242.303 0 .525.08.667.242.148.155.222.357.222.606a.862.862 0 01-.222.605c-.142.155-.364.233-.667.233zm4.967 6.268c-.478 0-.895-.077-1.252-.232a2.585 2.585 0 01-.878-.646 2.66 2.66 0 01-.525-.909 3.314 3.314 0 01-.172-1.06v-.191c0-.377.061-.737.182-1.08.121-.35.299-.66.535-.929.235-.27.528-.481.878-.636a3.044 3.044 0 011.222-.232c.497 0 .938.097 1.322.293a2.296 2.296 0 011.302 1.978h-1.585a.989.989 0 00-.303-.626c-.168-.175-.413-.262-.736-.262-.27 0-.495.067-.677.202-.175.134-.306.32-.393.555a2.394 2.394 0 00-.132.838c0 .296.041.565.121.807.081.236.209.42.384.555.182.128.417.192.707.192.215 0 .397-.037.545-.11a.944.944 0 00.363-.324c.094-.141.151-.303.172-.484h1.574c-.02.457-.148.861-.383 1.21a2.444 2.444 0 01-.939.809c-.39.188-.834.282-1.332.282zm7.028-.192V8.674h-.272V6.897c0-.282-.067-.494-.202-.635-.135-.142-.35-.212-.646-.212a29.861 29.861 0 00-1.332.04 59.62 59.62 0 00-.697.04V4.768a25.288 25.288 0 011.191-.071c.222-.007.431-.01.626-.01.565 0 1.04.08 1.423.242.391.162.687.407.889.737.202.323.302.74.302 1.252v3.391h-1.282zm-1.766.142a2.46 2.46 0 01-1.05-.212 1.65 1.65 0 01-.696-.606 1.766 1.766 0 01-.253-.959c0-.404.105-.733.313-.99.209-.262.502-.453.878-.575a4.052 4.052 0 011.303-.191h1.181v.898h-1.191c-.283 0-.502.07-.657.212-.148.135-.222.32-.222.555a.72.72 0 00.222.545c.155.135.374.202.657.202.181 0 .343-.03.484-.09a.82.82 0 00.363-.334c.095-.155.148-.37.162-.646l.384.404c-.034.384-.128.707-.283.969a1.51 1.51 0 01-.626.606c-.262.141-.585.212-.969.212z" fill="#040241"/><path d="M5.256 25.49c-.673 0-1.248-.117-1.726-.353a3.23 3.23 0 01-1.14-.918 3.855 3.855 0 01-.637-1.222 4.415 4.415 0 01-.202-1.282v-.222c0-.444.068-.888.202-1.332.142-.444.357-.848.646-1.211.29-.364.666-.657 1.13-.879.465-.222 1.02-.333 1.666-.333.66 0 1.225.115 1.696.343.471.23.845.549 1.12.96.277.41.445.894.505 1.453h-1.01c-.053-.417-.188-.76-.403-1.03a1.955 1.955 0 00-.817-.615 2.81 2.81 0 00-1.09-.202c-.438 0-.822.077-1.151.232-.33.148-.606.36-.828.636-.215.269-.38.582-.495.939a4 4 0 00-.161 1.16c0 .398.054.774.161 1.131.115.357.283.673.505.949.229.276.511.494.848.656.336.155.73.232 1.18.232.633 0 1.165-.158 1.596-.474.43-.317.693-.774.787-1.373h1.01a3.253 3.253 0 01-.515 1.383c-.27.417-.646.75-1.13 1-.479.248-1.06.373-1.747.373zm8.125 0c-.66 0-1.228-.117-1.706-.353a3.454 3.454 0 01-1.181-.928 4.167 4.167 0 01-.696-1.232 3.93 3.93 0 01-.223-1.262v-.222c0-.437.078-.878.233-1.322.154-.444.39-.848.706-1.211.317-.37.71-.667 1.181-.889.478-.222 1.04-.333 1.686-.333.646 0 1.204.111 1.676.333.477.222.874.518 1.19.889.317.363.552.767.707 1.211.155.444.232.885.232 1.322v.222c0 .404-.077.825-.232 1.262a3.987 3.987 0 01-.686 1.232c-.31.383-.703.693-1.181.928-.478.236-1.047.354-1.706.354zm0-.908a2.694 2.694 0 002.05-.898c.241-.283.426-.6.554-.95.128-.356.192-.73.192-1.12 0-.41-.064-.794-.192-1.15a2.8 2.8 0 00-.555-.94 2.524 2.524 0 00-.888-.645 2.793 2.793 0 00-1.161-.232c-.43 0-.821.077-1.171.232-.343.155-.636.37-.878.646-.242.27-.428.582-.555.939-.128.356-.192.74-.192 1.15 0 .39.064.764.192 1.12.128.35.313.667.555.95.242.276.535.494.878.656.35.161.74.242 1.171.242zm6.22-1.837v-.868h1.646c.35 0 .639-.067.868-.202.229-.141.4-.33.515-.565.12-.236.181-.498.181-.788 0-.296-.06-.561-.181-.797a1.282 1.282 0 00-.515-.555c-.229-.135-.518-.202-.868-.202H19.6V17.9h1.464c.606 0 1.11.097 1.514.293.41.188.72.457.929.807.208.35.313.764.313 1.242v.161c0 .471-.105.885-.313 1.242a2.09 2.09 0 01-.929.817c-.404.189-.908.283-1.514.283h-1.464zm-.787 2.564v-7.41h.99v7.41h-.99zm10.964 0c-.578 0-1.07-.094-1.474-.283a2.164 2.164 0 01-.928-.817c-.209-.357-.313-.774-.313-1.252h.908c0 .229.054.46.162.696.114.236.303.434.565.596.263.155.623.232 1.08.232.606 0 1.053-.128 1.343-.383.296-.256.444-.549.444-.879 0-.323-.131-.592-.394-.807-.262-.215-.642-.347-1.14-.394l-.667-.06c-.646-.06-1.16-.256-1.544-.586-.384-.33-.575-.8-.575-1.413 0-.424.1-.784.302-1.08.209-.303.498-.535.869-.697.376-.161.817-.242 1.322-.242.505 0 .939.091 1.302.273.37.175.656.434.858.777.202.336.303.744.303 1.221h-.909c0-.242-.054-.47-.161-.686a1.306 1.306 0 00-.505-.545c-.222-.142-.518-.212-.888-.212-.33 0-.613.054-.848.161-.229.101-.407.243-.535.424a1.069 1.069 0 00-.182.606c0 .29.105.542.313.757.209.209.528.333.96.373l.665.061c.72.067 1.296.28 1.726.636.438.35.656.828.656 1.433 0 .418-.11.784-.333 1.1-.222.31-.535.553-.938.727-.404.175-.885.263-1.444.263zm-.434 1.302v-1.474h.868v1.474h-.868zm-.04-8.176V16.96h.868v1.474h-.868zm9.204-.697c.539 0 .986.095 1.343.283.363.188.65.447.858.777.215.323.367.697.454 1.12.095.425.142.869.142 1.333v.485c0 1.164-.29 2.062-.868 2.695-.58.625-1.417.938-2.514.938a9.275 9.275 0 01-1.262-.08v-.828a9.9 9.9 0 001.302.08c.613 0 1.097-.114 1.454-.343.357-.228.612-.555.767-.979.155-.43.232-.949.232-1.554v-.454l.243-.899c-.007.532-.111.973-.313 1.323-.195.35-.468.612-.818.787-.343.175-.74.262-1.191.262-.525 0-.97-.104-1.333-.313a2.124 2.124 0 01-.827-.878 2.826 2.826 0 01-.273-1.261c0-.478.098-.906.293-1.282.195-.377.484-.673.868-.889.39-.215.872-.323 1.444-.323zm0 .848c-.37 0-.68.07-.928.212a1.394 1.394 0 00-.565.586 1.872 1.872 0 00-.182.848c0 .323.06.608.182.858.12.248.299.444.535.585.242.135.538.202.888.202.343 0 .65-.064.918-.192a1.49 1.49 0 00.646-.555c.155-.25.233-.552.233-.909 0-.296-.061-.568-.182-.817a1.376 1.376 0 00-.565-.596c-.256-.148-.582-.222-.98-.222zm6.654-.848c.539 0 .986.095 1.343.283.363.188.65.447.858.777.215.323.367.697.454 1.12.094.425.142.869.142 1.333v.485c0 1.164-.29 2.062-.869 2.695-.578.625-1.416.938-2.513.938a9.275 9.275 0 01-1.262-.08v-.828a9.9 9.9 0 001.302.08c.613 0 1.097-.114 1.454-.343.357-.228.612-.555.767-.979.155-.43.232-.949.232-1.554v-.454l.242-.899c-.006.532-.11.973-.313 1.323-.195.35-.467.612-.817.787-.343.175-.74.262-1.191.262-.525 0-.97-.104-1.333-.313a2.124 2.124 0 01-.827-.878 2.826 2.826 0 01-.273-1.261c0-.478.098-.906.293-1.282.195-.377.484-.673.868-.889.39-.215.871-.323 1.443-.323zm0 .848c-.37 0-.68.07-.928.212a1.394 1.394 0 00-.566.586 1.872 1.872 0 00-.181.848c0 .323.06.608.181.858.122.248.3.444.535.585.243.135.539.202.889.202.343 0 .65-.064.918-.192a1.49 1.49 0 00.646-.555c.155-.25.233-.552.233-.909 0-.296-.061-.568-.182-.817a1.376 1.376 0 00-.566-.596c-.255-.148-.582-.222-.979-.222zm6.654-.848c.539 0 .986.095 1.343.283.363.188.65.447.858.777.215.323.367.697.454 1.12.094.425.141.869.141 1.333v.485c0 1.164-.289 2.062-.868 2.695-.578.625-1.416.938-2.513.938a9.275 9.275 0 01-1.262-.08v-.828a9.9 9.9 0 001.302.08c.613 0 1.097-.114 1.454-.343.356-.228.612-.555.767-.979.155-.43.232-.949.232-1.554v-.454l.242-.899c-.006.532-.11.973-.313 1.323-.195.35-.467.612-.817.787-.343.175-.74.262-1.191.262-.525 0-.97-.104-1.333-.313a2.124 2.124 0 01-.828-.878 2.826 2.826 0 01-.272-1.261c0-.478.098-.906.293-1.282.195-.377.484-.673.868-.889.39-.215.871-.323 1.443-.323zm0 .848c-.37 0-.68.07-.928.212a1.394 1.394 0 00-.566.586 1.874 1.874 0 00-.181.848c0 .323.06.608.181.858.121.248.3.444.535.585.243.135.539.202.889.202.343 0 .649-.064.918-.192a1.49 1.49 0 00.646-.555c.155-.25.232-.552.232-.909 0-.296-.06-.568-.181-.817a1.376 1.376 0 00-.566-.596c-.255-.148-.582-.222-.979-.222zm4.262 6.723v-1.232h1.17v1.232h-1.17zm5.66.182c-.552 0-1.023-.095-1.413-.283a2.616 2.616 0 01-.94-.787 3.33 3.33 0 01-.514-1.141 5.767 5.767 0 01-.161-1.383v-.545c0-.68.104-1.292.313-1.837a2.81 2.81 0 01.989-1.292c.45-.323 1.026-.485 1.726-.485s1.272.162 1.716.485c.444.316.77.747.979 1.292.215.545.323 1.157.323 1.837v.545c0 .485-.054.946-.162 1.383-.107.43-.282.81-.524 1.14-.236.33-.545.593-.929.788-.384.188-.851.283-1.403.283zm0-.889c.7 0 1.211-.235 1.534-.706.33-.478.495-1.232.495-2.261 0-1.077-.168-1.848-.505-2.312-.33-.464-.838-.697-1.524-.697-.693 0-1.208.233-1.545.697-.33.464-.494 1.228-.494 2.291 0 1.037.165 1.794.494 2.272.33.477.845.716 1.545.716zm7.502.889c-.552 0-1.023-.095-1.414-.283a2.615 2.615 0 01-.938-.787 3.327 3.327 0 01-.515-1.141 5.767 5.767 0 01-.162-1.383v-.545c0-.68.105-1.292.313-1.837a2.81 2.81 0 01.99-1.292c.45-.323 1.026-.485 1.726-.485s1.271.162 1.716.485c.444.316.77.747.979 1.292.215.545.323 1.157.323 1.837v.545c0 .485-.054.946-.162 1.383-.108.43-.282.81-.525 1.14-.235.33-.545.593-.928.788-.384.188-.852.283-1.403.283zm0-.889c.7 0 1.21-.235 1.534-.706.33-.478.494-1.232.494-2.261 0-1.077-.168-1.848-.504-2.312-.33-.464-.838-.697-1.524-.697-.694 0-1.208.233-1.545.697-.33.464-.494 1.228-.494 2.291 0 1.037.164 1.794.494 2.272.33.477.845.716 1.545.716zm7.501.889c-.552 0-1.023-.095-1.413-.283a2.616 2.616 0 01-.939-.787 3.33 3.33 0 01-.515-1.141 5.767 5.767 0 01-.161-1.383v-.545c0-.68.104-1.292.313-1.837.215-.545.545-.976.989-1.292.45-.323 1.026-.485 1.726-.485s1.272.162 1.716.485c.444.316.77.747.98 1.292.215.545.322 1.157.322 1.837v.545c0 .485-.053.946-.161 1.383-.108.43-.283.81-.525 1.14-.236.33-.545.593-.929.788-.383.188-.851.283-1.403.283zm0-.889c.7 0 1.212-.235 1.534-.706.33-.478.495-1.232.495-2.261 0-1.077-.168-1.848-.505-2.312-.33-.464-.837-.697-1.524-.697-.693 0-1.208.233-1.544.697-.33.464-.495 1.228-.495 2.291 0 1.037.165 1.794.495 2.272.33.477.844.716 1.544.716z" fill="#000"/><path d="M157.967 17.718a.797.797 0 00-1.394 0 12.9 12.9 0 00-.976 2.259.162.162 0 01-.152.103c-.678.018-1.353.085-2.02.201-.617.108-.889.848-.42 1.306l.179.173c.452.428.93.827 1.432 1.194a.126.126 0 01.05.063.129.129 0 01.001.08 12.83 12.83 0 00-.541 2.338c-.087.657.609 1.06 1.152.782a13.53 13.53 0 001.885-1.171.188.188 0 01.214 0 13.38 13.38 0 001.885 1.17c.543.28 1.239-.124 1.152-.781a12.747 12.747 0 00-.541-2.338.129.129 0 01.051-.143 14.8 14.8 0 001.611-1.366c.469-.459.197-1.2-.42-1.307a13.865 13.865 0 00-2.02-.201.16.16 0 01-.152-.103 12.806 12.806 0 00-.976-2.259zM169.045 17.718a.798.798 0 00-1.395 0c-.396.72-.723 1.477-.976 2.26a.152.152 0 01-.06.074.16.16 0 01-.092.028c-.677.018-1.352.085-2.019.201-.617.108-.889.848-.42 1.306l.179.173c.452.428.93.827 1.432 1.194.023.015.04.037.049.063.01.026.01.054.002.08-.254.76-.435 1.543-.541 2.338-.088.657.608 1.06 1.152.782a13.53 13.53 0 001.885-1.171.183.183 0 01.213 0 13.38 13.38 0 001.886 1.17c.543.28 1.239-.124 1.151-.78a12.748 12.748 0 00-.54-2.339.129.129 0 01.001-.08.131.131 0 01.05-.063 14.78 14.78 0 001.61-1.366c.469-.459.198-1.2-.42-1.307a13.824 13.824 0 00-2.019-.201.16.16 0 01-.152-.103 12.803 12.803 0 00-.976-2.259zM180.121 17.718a.797.797 0 00-1.394 0 12.9 12.9 0 00-.976 2.259.163.163 0 01-.152.103c-.678.017-1.352.085-2.02.2-.617.108-.889.849-.42 1.307l.179.173c.452.428.93.826 1.433 1.194a.13.13 0 01.049.063.129.129 0 01.001.08c-.253.76-.434 1.543-.541 2.338-.087.657.609 1.06 1.152.782.659-.338 1.29-.73 1.885-1.171a.186.186 0 01.214 0c.595.442 1.225.833 1.885 1.17.543.28 1.239-.124 1.152-.781a12.67 12.67 0 00-.541-2.338.129.129 0 01.051-.143 14.778 14.778 0 001.611-1.366c.469-.46.197-1.2-.42-1.307a13.865 13.865 0 00-2.02-.201.16.16 0 01-.152-.103 12.803 12.803 0 00-.976-2.26zM191.199 17.718a.797.797 0 00-1.394 0 12.9 12.9 0 00-.976 2.259.16.16 0 01-.152.103c-.677.018-1.352.085-2.02.201-.617.108-.889.848-.42 1.306l.179.173c.452.428.931.827 1.433 1.194a.13.13 0 01.049.063c.009.026.01.054.001.08a12.83 12.83 0 00-.541 2.338c-.087.657.609 1.06 1.152.782.66-.338 1.29-.73 1.886-1.171a.182.182 0 01.213 0 13.38 13.38 0 001.885 1.17c.544.28 1.24-.124 1.152-.781a12.666 12.666 0 00-.541-2.338.129.129 0 01.051-.143 14.8 14.8 0 001.611-1.366c.469-.459.197-1.2-.42-1.307a13.851 13.851 0 00-2.02-.201.16.16 0 01-.152-.103 12.806 12.806 0 00-.976-2.259zM202.276 17.718a.797.797 0 00-1.394 0c-.396.72-.723 1.477-.976 2.259a.163.163 0 01-.152.103c-.677.017-1.352.085-2.019.201-.618.108-.889.848-.42 1.306a14.688 14.688 0 001.611 1.367.129.129 0 01.051.143c-.254.76-.435 1.543-.541 2.338-.088.657.608 1.06 1.151.782.66-.338 1.29-.73 1.886-1.171a.183.183 0 01.213 0c.595.442 1.226.833 1.885 1.17.544.28 1.24-.124 1.152-.781a12.747 12.747 0 00-.54-2.338.122.122 0 01.001-.08.13.13 0 01.049-.063 14.695 14.695 0 001.611-1.366c.469-.46.197-1.2-.42-1.307a13.823 13.823 0 00-2.02-.201.162.162 0 01-.152-.103 12.732 12.732 0 00-.976-2.259z" fill="#5F5AFF"/></svg>