<svg width="424" height="244" viewBox="0 0 424 244" fill="none" xmlns="http://www.w3.org/2000/svg"><g filter="url(#filter0_d_154_859)"><rect x="12.115" y="8.576" width="399" height="219" rx="29.994" fill="#fff" fill-opacity=".4" shape-rendering="crispEdges"/><path d="M48.405 43.18l-1.488 1.311c-.896-.944-1.952-1.328-2.896-1.296-2.24.048-3.455 1.84-3.455 3.808 0 1.983 1.232 3.71 3.455 3.71.992 0 2.144-.415 3.056-1.487l1.584 1.232c-1.328 1.616-2.816 2.367-4.64 2.367-3.727 0-5.726-2.815-5.726-5.822 0-3.008 2-5.92 5.726-5.92 1.632 0 3.136.593 4.384 2.096zm3.171 5.342c0 1.488 1.168 2.272 2.144 2.272 1.023 0 2.111-.784 2.111-2.272 0-1.583-1.088-2.271-2.111-2.271-.976 0-2.144.736-2.144 2.271zm6.415 0c0 2.496-1.824 4.271-4.271 4.271-2.432 0-4.287-1.775-4.287-4.27 0-2.56 1.855-4.288 4.287-4.288 2.447 0 4.27 1.728 4.27 4.287zm3.986-3.343c.96-1.216 3.311-1.072 3.92.304.687-1.024 1.583-1.12 2.383-1.12 1.791 0 3.407.72 3.407 3.44v4.767h-2.08v-4.784c0-1.135-.64-1.551-1.36-1.551-.735 0-1.375.496-1.375 1.567v4.767h-2.031V47.85c0-1.52-1.664-2.08-2.784-1.135v5.854h-2.192v-8.11h1.792l.32.72zm19.432 3.295c0 2.272-1.455 4.223-3.919 4.223-.368 0-1.056-.128-1.456-.448v3.36h-2.16v-11.15h1.617l.192.832c.64-.816 1.487-.96 2.16-.96 2.159 0 3.566 1.856 3.566 4.143zm-5.343-1.663v3.71c1.536.833 3.152.017 3.152-2.047 0-1.343-.688-2.271-1.936-2.271-.384 0-.832.128-1.215.608zm8.672 3.055c-.032 1.488 2.24 1.36 3.055.512v-1.28a3.643 3.643 0 00-1.423-.288c-.832 0-1.616.304-1.632 1.056zm5.215 2.703h-1.744l-.288-.72c-.512.64-1.311.896-1.951.896-2.128 0-3.264-1.28-3.264-2.815 0-1.84 1.776-2.767 3.52-2.736a4.55 4.55 0 011.551.32c-.048-1.135-.767-1.551-1.6-1.567-.8-.016-1.743.256-2.223.656l-.736-1.36c1.008-.816 2.032-1.04 3.152-1.04 1.855 0 3.583.992 3.583 3.36v5.006zm1.964-8.19h1.775l.176.848c.96-1.216 2.656-1.184 3.728-.256l-.928 1.648c-1.024-.672-2.592-.432-2.592.895v5.055h-2.16v-8.19zm7.865 5.487c-.032 1.488 2.239 1.36 3.055.512v-1.28a3.643 3.643 0 00-1.423-.288c-.832 0-1.616.304-1.632 1.056zm5.215 2.703h-1.744l-.288-.72c-.512.64-1.312.896-1.951.896-2.128 0-3.264-1.28-3.264-2.815 0-1.84 1.776-2.767 3.52-2.736a4.55 4.55 0 011.551.32c-.048-1.135-.768-1.551-1.599-1.567-.8-.016-1.744.256-2.224.656l-.736-1.36c1.008-.816 2.032-1.04 3.152-1.04 1.855 0 3.583.992 3.583 3.36v5.006zm13.671-4.095c0 2.272-1.456 4.223-3.92 4.223-.368 0-1.055-.128-1.455-.448v3.36h-2.16v-11.15h1.616l.192.832c.64-.816 1.487-.96 2.159-.96 2.16 0 3.568 1.856 3.568 4.143zm-5.343-1.663v3.71c1.535.833 3.151.017 3.151-2.047 0-1.343-.688-2.271-1.936-2.271-.384 0-.831.128-1.215.608zm7.023-2.432h1.776l.176.848c.96-1.216 2.656-1.184 3.727-.256l-.927 1.648c-1.024-.672-2.592-.432-2.592.895v5.055h-2.16v-8.19zm12.116 5.743l1.232 1.088c-.976 1.072-2.048 1.52-3.231 1.52-2.768 0-4.159-2.144-4.143-4.24 0-2.095 1.439-4.19 4.127-4.207 2.367-.016 4.031 1.584 3.999 4 0 .255-.048.687-.224 1.087h-5.711c.368 1.6 2.624 1.936 3.951.752zm-3.951-2.432h3.807c-.176-1.12-1.023-1.52-1.855-1.52-.848 0-1.776.433-1.952 1.52zm14.723-2.16l-1.232 1.36a2.57 2.57 0 00-1.68-.703c-1.151-.032-2.223.784-2.239 2.351-.016 1.328.96 2.24 2.079 2.304.64.032 1.328-.208 1.904-.816l1.248 1.28c-.912 1.136-1.888 1.455-3.12 1.455-2.751 0-4.255-2.047-4.255-4.239.016-2.191 1.552-4.27 4.255-4.287 1.136 0 2.016.288 3.04 1.296zm3.625-1.983h-2.176v-2.16h2.176v2.16zm-2.176.912h2.192v8.11h-2.192v-8.11zm6.074 4.063c0 1.488 1.168 2.272 2.144 2.272 1.024 0 2.112-.784 2.112-2.272 0-1.583-1.088-2.271-2.112-2.271-.976 0-2.144.736-2.144 2.271zm6.415 0c0 2.496-1.824 4.271-4.271 4.271-2.432 0-4.287-1.775-4.287-4.27 0-2.56 1.855-4.288 4.287-4.288 2.447 0 4.271 1.728 4.271 4.287zm3.874-1.072c.16.048.304.064.448.096 1.408.24 2.864 1.008 2.864 2.624 0 1.92-1.824 2.607-3.168 2.607-1.055 0-2.207-.416-3.087-1.583l1.168-1.248a2.773 2.773 0 001.951.944c.432.016.976-.288.976-.72 0-.592-.624-.672-1.04-.752-1.327-.24-2.703-1.056-2.719-2.623 0-1.664 1.488-2.56 3.039-2.56.832 0 1.792.288 2.736 1.264l-1.168 1.184c-.576-.432-1.136-.592-1.584-.592-.368 0-.96.272-.96.784 0 .272.272.495.544.575zm12.198 2.848h.08l.383-1.776 1.44-4.063h2.368l-3.664 9.502c-.623 1.6-2.383 1.856-3.711 1.6v-1.648c1.408.144 1.744-.112 2.064-1.52-.992-2.415-2.384-5.534-3.36-7.934h2.368l1.664 4.08.368 1.759zm11.225-1.776c0 1.488 1.168 2.272 2.144 2.272 1.024 0 2.112-.784 2.112-2.272 0-1.583-1.088-2.271-2.112-2.271-.976 0-2.144.736-2.144 2.271zm6.415 0c0 2.496-1.824 4.271-4.271 4.271-2.432 0-4.287-1.775-4.287-4.27 0-2.56 1.855-4.288 4.287-4.288 2.447 0 4.271 1.728 4.271 4.287zm9.265-.048c0 2.272-1.455 4.223-3.919 4.223-.368 0-1.056-.128-1.456-.448v3.36h-2.159v-11.15h1.615l.192.832c.64-.816 1.488-.96 2.16-.96 2.16 0 3.567 1.856 3.567 4.143zm-5.343-1.663v3.71c1.536.833 3.152.017 3.152-2.047 0-1.343-.688-2.271-1.936-2.271-.384 0-.832.128-1.216.608zm13.915-1.28l-1.232 1.36a2.57 2.57 0 00-1.68-.704c-1.152-.032-2.223.784-2.239 2.351-.016 1.328.959 2.24 2.079 2.304.64.032 1.328-.208 1.904-.816l1.248 1.28c-.912 1.136-1.888 1.455-3.12 1.455-2.751 0-4.255-2.047-4.255-4.239.016-2.191 1.552-4.27 4.255-4.287 1.136 0 2.016.288 3.04 1.296zm3.625-1.984h-2.176v-2.16h2.176v2.16zm-2.176.912h2.192v8.11h-2.192v-8.11zm6.074 4.063c0 1.488 1.168 2.272 2.144 2.272 1.024 0 2.111-.784 2.111-2.272 0-1.583-1.087-2.271-2.111-2.271-.976 0-2.144.736-2.144 2.271zm6.415 0c0 2.496-1.824 4.271-4.271 4.271-2.432 0-4.287-1.775-4.287-4.27 0-2.56 1.855-4.288 4.287-4.288 2.447 0 4.271 1.728 4.271 4.287zm1.731-4.063h1.791l.32.72c.464-.608 1.248-.88 2.16-.832 1.791.096 3.247 1.456 3.247 3.535v4.688h-2.191v-4.592c0-1.615-1.808-2.303-3.136-1.423v6.014h-2.191v-8.11zm15.176 5.663l1.232 1.088c-.976 1.072-2.048 1.52-3.232 1.52-2.767 0-4.159-2.144-4.143-4.24 0-2.095 1.44-4.19 4.127-4.207 2.368-.016 4.031 1.584 3.999 4 0 .255-.048.687-.224 1.087h-5.71c.368 1.6 2.623 1.936 3.951.752zm-3.951-2.432h3.807c-.176-1.12-1.024-1.52-1.856-1.52-.848 0-1.775.433-1.951 1.52zm9.868-.24c.16.048.303.064.447.096 1.408.24 2.864 1.008 2.864 2.624 0 1.92-1.824 2.607-3.167 2.607-1.056 0-2.208-.416-3.088-1.583l1.168-1.248a2.775 2.775 0 001.952.944c.431.016.975-.288.975-.72 0-.592-.624-.672-1.039-.752-1.328-.24-2.704-1.056-2.72-2.623 0-1.664 1.488-2.56 3.039-2.56.832 0 1.792.288 2.736 1.264l-1.168 1.184c-.576-.432-1.136-.592-1.584-.592-.367 0-.959.272-.959.784 0 .272.272.495.544.575zm14.516 2.672l1.232 1.088c-.976 1.072-2.048 1.52-3.231 1.52-2.768 0-4.16-2.144-4.144-4.24 0-2.095 1.44-4.19 4.128-4.207 2.367-.016 4.031 1.584 3.999 4 0 .255-.048.687-.224 1.087h-5.711c.368 1.6 2.624 1.936 3.951.752zm-3.951-2.432h3.807c-.176-1.12-1.024-1.52-1.855-1.52-.848 0-1.776.433-1.952 1.52zm7.553-3.23h1.791l.32.719c.464-.608 1.248-.88 2.16-.832 1.791.096 3.247 1.456 3.247 3.535v4.688h-2.192v-4.592c0-1.615-1.807-2.303-3.135-1.423v6.014h-2.191v-8.11zm21.232 8.11l-1.792-.017-.336-.735c-.448.608-1.232.895-2.143.847-1.792-.096-3.248-1.311-3.248-3.39v-4.816h2.192v4.72c0 1.087.816 1.695 1.759 1.695.448 0 .944-.128 1.376-.416v-5.999h2.192v8.11zm2.107-8.11h1.791l.32.719c.464-.608 1.248-.88 2.16-.832 1.791.096 3.247 1.456 3.247 3.535v4.688h-2.191v-4.592c0-1.615-1.808-2.303-3.136-1.423v6.014h-2.191v-8.11zM40.838 66.45c.16.049.304.064.448.096 1.408.24 2.863 1.008 2.863 2.624 0 1.92-1.823 2.607-3.167 2.607-1.056 0-2.207-.415-3.087-1.583l1.167-1.248a2.775 2.775 0 001.952.944c.432.016.976-.288.976-.72 0-.592-.624-.672-1.04-.752-1.328-.24-2.703-1.056-2.72-2.623 0-1.664 1.488-2.56 3.04-2.56.832 0 1.792.288 2.735 1.264l-1.167 1.184c-.576-.432-1.136-.592-1.584-.592-.368 0-.96.272-.96.784 0 .272.272.496.544.576zm6.66 1.072c0 1.488 1.169 2.272 2.144 2.272 1.024 0 2.112-.784 2.112-2.272 0-1.583-1.088-2.271-2.112-2.271-.975 0-2.143.736-2.143 2.271zm6.416 0c0 2.496-1.824 4.271-4.272 4.271-2.431 0-4.287-1.775-4.287-4.27 0-2.56 1.856-4.288 4.287-4.288 2.448 0 4.272 1.728 4.272 4.287zm4.974 2.272v1.791c-1.84.304-3.311-.367-3.311-2.607v-8.606h2.191v8.606c0 .416.208.896 1.12.816zm3.295-2.272c0 1.488 1.168 2.272 2.144 2.272 1.024 0 2.112-.784 2.112-2.272 0-1.583-1.088-2.271-2.112-2.271-.976 0-2.144.736-2.144 2.271zm6.415 0c0 2.496-1.823 4.271-4.271 4.271-2.431 0-4.287-1.775-4.287-4.27 0-2.56 1.855-4.288 4.287-4.288 2.448 0 4.271 1.728 4.271 4.287zm12.494-2.991l-1.232 1.36a2.57 2.57 0 00-1.68-.704c-1.151-.032-2.223.784-2.239 2.351-.016 1.328.96 2.24 2.08 2.304.64.032 1.327-.208 1.903-.816l1.248 1.28c-.912 1.136-1.888 1.455-3.12 1.455-2.75 0-4.255-2.047-4.255-4.239.017-2.191 1.552-4.27 4.256-4.287 1.135 0 2.015.288 3.039 1.296zm4.681 5.263v1.791c-1.84.304-3.311-.367-3.311-2.607v-8.606h2.191v8.606c0 .416.208.896 1.12.816zm3.943-7.247h-2.175v-2.16h2.175v2.16zm-2.175.912h2.191v8.11h-2.191v-8.11zm11.188 1.072l-1.232 1.36a2.57 2.57 0 00-1.68-.704c-1.151-.032-2.223.784-2.239 2.351-.016 1.328.96 2.24 2.08 2.304.64.032 1.327-.208 1.903-.816l1.248 1.28c-.912 1.136-1.888 1.455-3.12 1.455-2.75 0-4.254-2.047-4.254-4.239.016-2.191 1.551-4.27 4.255-4.287 1.136 0 2.015.288 3.04 1.296zm8.792 7.038v-.112.113zm0-.112v.113h-2.335l-2.384-3.536-.528.544v2.992h-2.127V60.372h2.127v5.886l2.72-2.815h2.399v.128l-3.055 3.28 3.183 4.606z" fill="#040241"/><g opacity=".4"><circle cx="379.468" cy="58.569" r="15.922" fill="#B9C9F8"/><path d="M372.724 60.242c0 .88.816 1.375 1.632 1.375s1.632-.496 1.632-1.375v-4.608c0-.88-.848-1.375-1.68-1.36-.8.017-1.584.513-1.584 1.36v4.608zm-2.239-4.608c0-2.271 1.871-3.423 3.807-3.423 1.952-.032 3.935 1.104 3.935 3.423v4.608c0 1.04-.368 1.823-.992 2.399-.719.688-1.791 1.04-2.879 1.04-1.072.016-2.16-.336-2.895-1.04-.608-.592-.976-1.376-.976-2.4v-4.607zm16.678-3.295v7.247h1.056v1.983h-1.056v1.968h-2.176v-1.968H380.7l-1.264-1.583 5.055-7.647h2.672zm-1.824 2.16l-.096-.032-1.104 2.031-2.047 3.088h2.895v-2.88l.352-2.207z" fill="#DAE3FF"/></g><circle cx="358.74" cy="58.569" r="15.922" fill="#B9C9F8"/><path d="M354.105 60.242c0 .88.816 1.375 1.632 1.375.815 0 1.631-.496 1.631-1.375v-4.608c0-.88-.848-1.375-1.679-1.36-.8.017-1.584.513-1.584 1.36v4.608zm-2.24-4.608c0-2.271 1.872-3.423 3.808-3.423 1.951-.032 3.935 1.104 3.935 3.423v4.608c0 1.04-.368 1.823-.992 2.399-.72.688-1.792 1.04-2.879 1.04-1.072.016-2.16-.336-2.896-1.04-.608-.592-.976-1.376-.976-2.4v-4.607zm10.504-1.231h-1.264v-2.064h3.519v11.198h-2.255v-9.134zM46.977 130.951l-.504.504c-.742-.7-1.778-1.176-2.828-1.148-2.645.042-4.059 2.296-4.059 4.381 0 2.072 1.456 4.326 4.06 4.326 1.12 0 2.323-.56 3.093-1.358l.532.434c-.896.98-2.212 1.651-3.626 1.651-3.149 0-4.829-2.575-4.829-5.053 0-2.477 1.68-5.095 4.83-5.095 1.301 0 2.463.518 3.33 1.358zm7.61 7.097v-5.585h.727v7.096h-.63l-.097-.825c-.434.573-1.288.951-1.988.951-1.834-.028-3.36-.825-3.36-3.093v-4.129h.728v4.129c0 1.932 1.26 2.366 2.674 2.422a2.356 2.356 0 001.946-.966zm8.078.042v-1.946c-.616-.392-1.4-.56-2.03-.56-1.623 0-2.45.756-2.45 1.722 0 1.008.757 1.75 2.31 1.75.728 0 1.652-.35 2.17-.966zm.686 1.469h-.56l-.14-.755a3.28 3.28 0 01-2.156.909c-2.057.014-3.023-1.077-3.023-2.449 0-1.246 1.092-2.352 3.15-2.366.587 0 1.357.182 2.043.588v-.588c0-1.525-1.092-1.889-2.254-1.889-.812 0-1.357.196-2.043.63l-.322-.518c.7-.532 1.568-.784 2.407-.784 1.47 0 2.898.658 2.898 2.561v4.661zm3.281-5.752v5.752h-.728v-7.096h.63l.098.602c.504-.49 1.274-.742 1.974-.742 1.834.028 3.373 1.162 3.373 3.163v4.073h-.728v-4.073c-.014-1.483-1.26-2.435-2.673-2.491-.798-.014-1.484.252-1.946.812zm10.85-1.372c.588 0 1.26.168 1.805.7v-3.388h.742v9.812h-.602l-.112-.755c-.503.671-1.315.839-1.945.825-4.34-.056-4.325-7.208.112-7.194zm.028 6.537c.7 0 1.274-.28 1.791-.98v-4.115c-.461-.56-1.161-.826-1.96-.798-3.372.21-3.316 5.823.169 5.893zm5.239-2.954c0 1.946 1.413 3.08 2.785 3.08 1.386 0 2.8-1.134 2.8-3.08 0-1.945-1.414-3.037-2.8-3.037-1.372 0-2.785 1.092-2.785 3.037zm6.312 0c0 1.988-1.497 3.709-3.527 3.709-2.016 0-3.513-1.721-3.513-3.709 0-1.987 1.497-3.709 3.513-3.709 2.03 0 3.527 1.722 3.527 3.709zm8.666 2.954c.798 0 1.638-.294 2.141-.924l.546.378c-.672.826-1.623 1.231-2.687 1.231-2.282 0-3.444-1.945-3.43-3.709 0-1.777 1.19-3.569 3.416-3.583 1.931-.014 3.289 1.498 3.289 3.401 0 .168-.014.28-.028.462h-6.005c.098 1.4 1.078 2.744 2.758 2.744zm-2.758-3.36h5.389c-.084-1.525-1.175-2.547-2.645-2.575-1.652.014-2.548 1.148-2.744 2.575zm8.98-1.805v5.752h-.728v-7.096h.63l.098.602c.504-.49 1.274-.742 1.974-.742 1.833.028 3.373 1.162 3.373 3.163v4.073h-.728v-4.073c-.014-1.483-1.26-2.435-2.673-2.491-.798-.014-1.484.252-1.946.812zm13.145-.602l-.392.476c-.518-.434-1.19-.63-1.875-.63-1.4-.014-2.73 1.134-2.744 3.009 0 1.372.938 2.912 2.758 2.912.699 0 1.371-.266 1.903-.7.168.21.28.322.434.504a3.5 3.5 0 01-2.337.895c-2.282 0-3.486-1.847-3.486-3.625 0-1.791 1.246-3.667 3.486-3.681.909 0 1.609.224 2.253.84zm7.328 4.843v-5.585h.728v7.096h-.63l-.098-.825c-.434.573-1.288.951-1.987.951-1.834-.028-3.36-.825-3.36-3.093v-4.129h.728v4.129c0 1.932 1.26 2.366 2.673 2.422a2.356 2.356 0 001.946-.966zm6.357.924c.798 0 1.637-.294 2.141-.924l.546.378c-.672.826-1.623 1.231-2.687 1.231-2.282 0-3.444-1.945-3.43-3.709 0-1.777 1.19-3.569 3.416-3.583 1.931-.014 3.289 1.498 3.289 3.401 0 .168-.014.28-.028.462h-6.005c.098 1.4 1.078 2.744 2.758 2.744zm-2.758-3.36h5.389c-.084-1.525-1.175-2.547-2.645-2.575-1.652.014-2.548 1.148-2.744 2.575zm8.98-1.805v5.752h-.728v-7.096h.63l.098.602c.504-.49 1.274-.742 1.974-.742 1.833.028 3.373 1.162 3.373 3.163v4.073h-.728v-4.073c-.014-1.483-1.26-2.435-2.673-2.491-.798-.014-1.484.252-1.946.812zm10.22 5.151v.657c-1.246.056-2.17-.601-2.17-1.987v-4.563h-1.05v-.602h1.05v-1.736l.714-.154v1.89h1.442v.602h-1.442v4.563c0 .84.546 1.344 1.456 1.33zm2.175-6.495h.588l.111.924c.84-1.344 2.52-1.078 3.332-.728l-.294.602c-1.33-.644-3.066.084-3.024 1.749v4.549h-.713v-7.096zm8.352 6.509c.798 0 1.638-.294 2.142-.924l.545.378c-.671.826-1.623 1.231-2.687 1.231-2.282 0-3.443-1.945-3.429-3.709 0-1.777 1.189-3.569 3.415-3.583 1.932-.014 3.289 1.498 3.289 3.401 0 .168-.014.28-.028.462h-6.004c.098 1.4 1.077 2.744 2.757 2.744zm-2.757-3.36h5.388c-.084-1.525-1.175-2.547-2.645-2.575-1.652.014-2.547 1.148-2.743 2.575zm10.113.042c1.106.224 2.198.798 2.198 1.988 0 1.4-1.358 2.043-2.394 2.043-.84 0-1.652-.35-2.169-1.021.14-.14.321-.322.433-.448.854 1.175 3.29 1.133 3.416-.588-.014-.798-.98-1.204-1.624-1.33-1.078-.182-2.071-.756-2.085-1.918 0-2.085 2.841-2.603 4.185-1.343l-.434.476c-.896-.868-3.052-.588-3.038.867.014.826.896 1.148 1.512 1.274zm10.879 3.318c.797 0 1.637-.294 2.141-.924l.546.378c-.672.826-1.624 1.231-2.687 1.231-2.282 0-3.444-1.945-3.43-3.709 0-1.777 1.19-3.569 3.416-3.583 1.931-.014 3.289 1.498 3.289 3.401 0 .168-.014.28-.028.462h-6.005c.098 1.4 1.078 2.744 2.758 2.744zm-2.758-3.36h5.389c-.084-1.525-1.176-2.547-2.645-2.575-1.652.014-2.548 1.148-2.744 2.575zm10.044 3.318v.643c-1.204.056-1.876-.615-1.876-1.987v-7.825h.742v7.825c0 .84.238 1.358 1.134 1.344zm8.219-6.509c4.437-.014 4.451 7.152.112 7.208-.616.014-1.442-.14-1.946-.783v3.457h-.714v-9.84h.616l.112.672c.546-.532 1.232-.714 1.82-.714zm-.028 6.551c3.485-.07 3.541-5.697.168-5.907-.798-.028-1.498.252-1.96.812v4.115c.518.7 1.092.98 1.792.98zm5.641-6.509h.588l.112.924c.84-1.344 2.519-1.078 3.331-.728l-.294.602c-1.33-.644-3.065.084-3.023 1.749v4.549h-.714v-7.096zm5.594 3.555c0 1.946 1.414 3.08 2.786 3.08 1.385 0 2.799-1.134 2.799-3.08 0-1.945-1.414-3.037-2.799-3.037-1.372 0-2.786 1.092-2.786 3.037zm6.313 0c0 1.988-1.498 3.709-3.527 3.709-2.016 0-3.514-1.721-3.514-3.709 0-1.987 1.498-3.709 3.514-3.709 2.029 0 3.527 1.722 3.527 3.709zm5.029-3.583c.587 0 1.259.168 1.805.7v-3.388h.742v9.812h-.602l-.112-.755c-.504.671-1.316.839-1.945.825-4.34-.056-4.326-7.208.112-7.194zm.028 6.537c.699 0 1.273-.28 1.791-.98v-4.115c-.462-.56-1.162-.826-1.959-.798-3.374.21-3.318 5.823.168 5.893zm10.47-.924v-5.585h.728v7.096h-.63l-.098-.825c-.434.573-1.288.951-1.988.951-1.833-.028-3.359-.825-3.359-3.093v-4.129h.728v4.129c0 1.932 1.26 2.366 2.673 2.422a2.356 2.356 0 001.946-.966zm8.61-4.843l-.392.476c-.518-.434-1.19-.63-1.875-.63-1.4-.014-2.73 1.134-2.744 3.009 0 1.372.938 2.912 2.758 2.912.699 0 1.371-.266 1.903-.7.168.21.28.322.434.504a3.5 3.5 0 01-2.337.895c-2.282 0-3.486-1.847-3.486-3.625 0-1.791 1.246-3.667 3.486-3.681.909 0 1.609.224 2.253.84zm4.497 5.753v.657c-1.246.056-2.17-.601-2.17-1.987v-4.563h-1.049v-.602h1.049v-1.736l.714-.154v1.89h1.442v.602h-1.442v4.563c0 .84.546 1.344 1.456 1.33zm2.329-2.94c0 1.946 1.414 3.08 2.785 3.08 1.386 0 2.8-1.134 2.8-3.08 0-1.945-1.414-3.037-2.8-3.037-1.371 0-2.785 1.092-2.785 3.037zm6.313 0c0 1.988-1.498 3.709-3.528 3.709-2.015 0-3.513-1.721-3.513-3.709 0-1.987 1.498-3.709 3.513-3.709 2.03 0 3.528 1.722 3.528 3.709zm8.651-3.597c.588 0 1.274.182 1.82.714l.112-.672h.616v9.84h-.728v-3.457c-.504.643-1.316.797-1.932.783-4.339-.056-4.325-7.222.112-7.208zm.028 6.551c.7 0 1.274-.28 1.792-.98v-4.115c-.462-.56-1.162-.84-1.96-.812-3.373.21-3.317 5.837.168 5.907zm10.443-.924v-5.585h.727v7.096h-.629l-.098-.825c-.434.573-1.288.951-1.988.951-1.834-.028-3.359-.825-3.359-3.093v-4.129h.727v4.129c0 1.932 1.26 2.366 2.674 2.422a2.356 2.356 0 001.946-.966zm6.356.924c.798 0 1.638-.294 2.142-.924l.546.378c-.672.826-1.624 1.231-2.688 1.231-2.281 0-3.443-1.945-3.429-3.709 0-1.777 1.19-3.569 3.415-3.583 1.932-.014 3.29 1.498 3.29 3.401 0 .168-.014.28-.028.462h-6.005c.098 1.4 1.078 2.744 2.757 2.744zm-2.757-3.36h5.389c-.084-1.525-1.176-2.547-2.646-2.575-1.651.014-2.547 1.148-2.743 2.575zM42.148 149.421c.588 0 1.274.182 1.82.714l.111-.672h.616v9.84h-.728v-3.457c-.503.643-1.315.797-1.931.783-4.34-.056-4.325-7.222.112-7.208zm.028 6.551c.7 0 1.273-.28 1.791-.98v-4.115c-.462-.56-1.161-.84-1.96-.812-3.372.21-3.316 5.837.169 5.907zm10.442-.924v-5.585h.728v7.096h-.63l-.098-.825c-.434.573-1.288.951-1.988.951-1.833-.028-3.359-.825-3.359-3.093v-4.129H48v4.129c0 1.932 1.26 2.366 2.673 2.422a2.356 2.356 0 001.946-.966zm4.145 1.511h-.728v-7.11h.728v7.11zm.014-9.784v1.078h-.756v-1.078h.756zm5.629 9.197c.798 0 1.637-.294 2.141-.924l.546.378c-.672.826-1.623 1.231-2.687 1.231-2.282 0-3.444-1.945-3.43-3.709 0-1.777 1.19-3.569 3.416-3.583 1.931-.014 3.29 1.498 3.29 3.401 0 .168-.015.28-.029.462h-6.005c.098 1.4 1.078 2.744 2.758 2.744zm-2.758-3.36h5.39c-.085-1.525-1.176-2.547-2.646-2.575-1.652.014-2.548 1.148-2.744 2.575zm8.252-3.149h.588l.112.924c.84-1.344 2.52-1.078 3.331-.728l-.293.602c-1.33-.644-3.066.084-3.024 1.749v4.549H67.9v-7.096zm8.353 6.509c.797 0 1.637-.294 2.141-.924l.546.378c-.672.826-1.624 1.231-2.687 1.231-2.282 0-3.444-1.945-3.43-3.709 0-1.777 1.19-3.569 3.416-3.583 1.931-.014 3.289 1.498 3.289 3.401 0 .168-.014.28-.028.462h-6.005c.098 1.4 1.078 2.744 2.758 2.744zm-2.758-3.36h5.39c-.085-1.525-1.177-2.547-2.646-2.575-1.652.014-2.548 1.148-2.744 2.575zm10.114.042c1.106.224 2.197.798 2.197 1.988 0 1.4-1.358 2.043-2.393 2.043-.84 0-1.652-.35-2.17-1.021.14-.14.322-.322.434-.448.854 1.175 3.29 1.133 3.415-.588-.014-.798-.98-1.204-1.623-1.33-1.078-.182-2.072-.756-2.086-1.918 0-2.085 2.842-2.603 4.185-1.343l-.434.476c-.895-.868-3.051-.588-3.037.867.014.826.896 1.148 1.512 1.274zm3.504 5.725l.826-2.743h.854l-1.12 2.743h-.56zm12.418-3.289v-1.946c-.616-.392-1.4-.56-2.03-.56-1.624 0-2.45.756-2.45 1.722 0 1.008.756 1.75 2.31 1.75.728 0 1.652-.35 2.17-.966zm.685 1.469h-.56l-.14-.755a3.28 3.28 0 01-2.155.909c-2.058.014-3.023-1.077-3.023-2.449 0-1.246 1.091-2.352 3.149-2.366.588 0 1.358.182 2.044.588v-.588c0-1.525-1.092-1.889-2.254-1.889-.812 0-1.358.196-2.044.63l-.322-.518c.7-.532 1.568-.784 2.408-.784 1.47 0 2.897.658 2.897 2.561v4.661zm5.116-7.124c2.239-.014 3.345 1.82 3.345 3.625 0 1.778-1.078 3.541-3.233 3.569-.63.014-1.442-.154-1.946-.825l-.112.755h-.602v-9.812h.742v3.388c.546-.532 1.218-.7 1.806-.7zm-.028 6.551c1.735-.028 2.631-1.456 2.659-2.898.028-1.442-.798-2.897-2.491-3.009-.798-.028-1.498.238-1.96.798v4.115c.518.7 1.092.994 1.792.994zm5.627-6.523h.588l.112.924c.839-1.344 2.519-1.078 3.331-.728l-.294.602c-1.33-.644-3.065.084-3.023 1.749v4.549h-.714v-7.096zm8.352 6.509c.798 0 1.638-.294 2.142-.924l.546.378c-.672.826-1.624 1.231-2.688 1.231-2.281 0-3.443-1.945-3.429-3.709 0-1.777 1.19-3.569 3.415-3.583 1.932-.014 3.289 1.498 3.289 3.401 0 .168-.014.28-.028.462h-6.004c.098 1.4 1.077 2.744 2.757 2.744zm-2.757-3.36h5.389c-.084-1.525-1.176-2.547-2.646-2.575-1.652.014-2.547 1.148-2.743 2.575zm13.638 3.318v.643c-1.204.056-1.875-.615-1.875-1.987v-7.825h.741v7.825c0 .84.238 1.358 1.134 1.344zm6.738-.84v-1.946c-.616-.392-1.4-.56-2.03-.56-1.623 0-2.449.756-2.449 1.722 0 1.008.756 1.75 2.309 1.75.728 0 1.652-.35 2.17-.966zm.686 1.469h-.56l-.14-.755a3.281 3.281 0 01-2.156.909c-2.057.014-3.023-1.077-3.023-2.449 0-1.246 1.092-2.352 3.149-2.366.588 0 1.358.182 2.044.588v-.588c0-1.525-1.092-1.889-2.254-1.889-.811 0-1.357.196-2.043.63l-.322-.518c.7-.532 1.568-.784 2.407-.784 1.47 0 2.898.658 2.898 2.561v4.661zm9.088-.587c.798 0 1.638-.294 2.142-.924l.545.378c-.671.826-1.623 1.231-2.687 1.231-2.282 0-3.443-1.945-3.429-3.709 0-1.777 1.189-3.569 3.415-3.583 1.932-.014 3.289 1.498 3.289 3.401 0 .168-.014.28-.028.462h-6.004c.098 1.4 1.077 2.744 2.757 2.744zm-2.757-3.36h5.388c-.084-1.525-1.175-2.547-2.645-2.575-1.652.014-2.547 1.148-2.743 2.575zm10.505-.056l2.044-3.093h.867l-2.435 3.541c.784 1.092 1.722 2.45 2.505 3.555h-.839l-2.142-3.135-2.1 3.135h-.853l2.463-3.555c-.784-1.12-1.652-2.407-2.435-3.541h.881l2.044 3.093zm7.259 3.402v.657c-1.246.056-2.17-.601-2.17-1.987v-4.563h-1.05v-.602h1.05v-1.736l.714-.154v1.89h1.442v.602h-1.442v4.563c0 .84.546 1.344 1.456 1.33zm5.114.014c.798 0 1.638-.294 2.142-.924l.545.378c-.671.826-1.623 1.231-2.687 1.231-2.282 0-3.443-1.945-3.429-3.709 0-1.777 1.189-3.569 3.415-3.583 1.932-.014 3.289 1.498 3.289 3.401 0 .168-.014.28-.028.462h-6.004c.098 1.4 1.077 2.744 2.757 2.744zm-2.757-3.36h5.388c-.084-1.525-1.175-2.547-2.645-2.575-1.652.014-2.548 1.148-2.743 2.575zm8.979-1.805v5.752h-.728v-7.096h.63l.098.602c.504-.49 1.274-.742 1.974-.742 1.833.028 3.373 1.162 3.373 3.163v4.073h-.728v-4.073c-.014-1.483-1.259-2.435-2.673-2.491-.798-.014-1.484.252-1.946.812zm9.814 1.847c1.106.224 2.197.798 2.197 1.988 0 1.4-1.357 2.043-2.393 2.043-.84 0-1.652-.35-2.17-1.021.14-.14.322-.322.434-.448.854 1.175 3.29 1.133 3.416-.588-.014-.798-.98-1.204-1.624-1.33-1.078-.182-2.072-.756-2.086-1.918 0-2.085 2.842-2.603 4.186-1.343l-.434.476c-.896-.868-3.052-.588-3.038.867.014.826.896 1.148 1.512 1.274zm5.072 3.905h-.728v-7.11h.728v7.11zm.014-9.784v1.078h-.756v-1.078h.756zm2.843 6.243c0 1.946 1.414 3.08 2.785 3.08 1.386 0 2.8-1.134 2.8-3.08 0-1.945-1.414-3.037-2.8-3.037-1.371 0-2.785 1.092-2.785 3.037zm6.313 0c0 1.988-1.498 3.709-3.528 3.709-2.015 0-3.513-1.721-3.513-3.709 0-1.987 1.498-3.709 3.513-3.709 2.03 0 3.528 1.722 3.528 3.709zm-2.128-6.131h-.868l-.839 1.456h.643l1.064-1.456zm4.987 3.92v5.752h-.728v-7.096h.63l.098.602c.504-.49 1.274-.742 1.973-.742 1.834.028 3.374 1.162 3.374 3.163v4.073h-.728v-4.073c-.014-1.483-1.26-2.435-2.674-2.491-.797-.014-1.483.252-1.945.812zm11.659 8.286v-.602c.812.028 1.134-.252 1.358-.826l.405-1.078-2.897-7.124h.784l2.505 6.369 2.394-6.369h.784l-3.29 8.44c-.35.952-1.021 1.19-1.819 1.19h-.224zm10.437-9.63l2.225 6.565h.056l2.198-6.565h.77l-2.478 7.152h-1.036l-2.491-7.152h.756zm9.928 6.509c.798 0 1.637-.294 2.141-.924l.546.378c-.672.826-1.623 1.231-2.687 1.231-2.282 0-3.444-1.945-3.43-3.709 0-1.777 1.19-3.569 3.416-3.583 1.931-.014 3.289 1.498 3.289 3.401 0 .168-.014.28-.028.462H229.2c.098 1.4 1.078 2.744 2.758 2.744zm-2.758-3.36h5.389c-.084-1.525-1.176-2.547-2.645-2.575-1.652.014-2.548 1.148-2.744 2.575zm8.252-3.149h.588l.112.924c.84-1.344 2.52-1.078 3.331-.728l-.294.602c-1.329-.644-3.065.084-3.023 1.749v4.549h-.714v-7.096zm10.046 3.695c-.616-.392-1.371-.56-2.001-.56-3.262 0-3.234 3.458-.14 3.458.728 0 1.623-.35 2.141-.966v-1.932zm.154 3.401l-.14-.755a3.279 3.279 0 01-2.155.909c-4.046.028-4.074-4.773.126-4.815.588 0 1.329.182 2.015.588v-.294c0-1.525-1.064-2.085-2.225-2.085-.756 0-1.414.224-2.044.616l-.364-.504c.7-.532 1.61-.798 2.45-.798 1.469 0 2.897.868 2.897 2.771v4.367h-.56zm-1.036-9.658h-.867l-.84 1.456h.644l1.063-1.456zm6.012 5.753c1.105.224 2.197.798 2.197 1.988 0 1.4-1.358 2.043-2.393 2.043-.84 0-1.652-.35-2.17-1.021.14-.14.322-.322.434-.448.854 1.175 3.289 1.133 3.415-.588-.014-.798-.98-1.204-1.623-1.33-1.078-.182-2.072-.756-2.086-1.918 0-2.085 2.841-2.603 4.185-1.343l-.434.476c-.896-.868-3.051-.588-3.037.867.014.826.896 1.148 1.512 1.274zm12.6 2.436v-1.946c-.616-.392-1.4-.56-2.03-.56-1.624 0-2.449.756-2.449 1.722 0 1.008.755 1.75 2.309 1.75.728 0 1.652-.35 2.17-.966zm.686 1.469h-.56l-.14-.755a3.281 3.281 0 01-2.156.909c-2.057.014-3.023-1.077-3.023-2.449 0-1.246 1.092-2.352 3.149-2.366.588 0 1.358.182 2.044.588v-.588c0-1.525-1.092-1.889-2.254-1.889-.812 0-1.358.196-2.043.63l-.322-.518c.7-.532 1.567-.784 2.407-.784 1.47 0 2.898.658 2.898 2.561v4.661zm4.345-.629v.643c-1.204.056-1.876-.615-1.876-1.987v-7.825h.742v7.825c0 .84.238 1.358 1.134 1.344zM39.95 173.559h-.728v-7.11h.728v7.11zm.014-9.784v1.078h-.756v-1.078h.756zm3.417 4.032v5.752h-.728v-7.096h.63l.098.602c.504-.49 1.274-.742 1.974-.742 1.833.028 3.373 1.162 3.373 3.163v4.073H48v-4.073c-.014-1.483-1.26-2.435-2.673-2.491-.798-.014-1.484.252-1.946.812zm9.814 1.847c1.106.224 2.197.798 2.197 1.988 0 1.4-1.357 2.043-2.393 2.043-.84 0-1.652-.35-2.17-1.021.14-.14.322-.322.434-.448.854 1.175 3.29 1.133 3.416-.588-.014-.798-.98-1.204-1.624-1.33-1.078-.182-2.072-.756-2.086-1.918 0-2.085 2.842-2.603 4.185-1.343l-.433.476c-.896-.868-3.052-.588-3.038.867.014.826.896 1.148 1.512 1.274zm6.612 3.304v.657c-1.246.056-2.17-.601-2.17-1.987v-4.563h-1.05v-.602h1.05v-1.736l.714-.154v1.89h1.442v.602H58.35v4.563c0 .84.546 1.344 1.456 1.33zm6.836-.868v-1.946c-.616-.392-1.4-.56-2.03-.56-1.624 0-2.45.756-2.45 1.722 0 1.008.756 1.75 2.31 1.75.728 0 1.652-.35 2.17-.966zm.685 1.469h-.56l-.14-.755a3.28 3.28 0 01-2.155.909c-2.058.014-3.023-1.077-3.023-2.449 0-1.246 1.091-2.352 3.149-2.366.588 0 1.358.182 2.044.588v-.588c0-1.525-1.092-1.889-2.254-1.889-.812 0-1.358.196-2.044.63l-.322-.518c.7-.532 1.568-.784 2.408-.784 1.47 0 2.897.658 2.897 2.561v4.661zm3.282-5.752v5.752h-.728v-7.096h.63l.098.602c.504-.49 1.274-.742 1.974-.742 1.833.028 3.373 1.162 3.373 3.163v4.073h-.728v-4.073c-.014-1.483-1.26-2.435-2.673-2.491-.798-.014-1.484.252-1.946.812zm10.22 5.151v.657c-1.246.056-2.17-.601-2.17-1.987v-4.563h-1.05v-.602h1.05v-1.736l.714-.154v1.89h1.442v.602h-1.442v4.563c0 .84.546 1.344 1.456 1.33zm5.114.014c.798 0 1.638-.294 2.142-.924l.546.378c-.672.826-1.624 1.231-2.688 1.231-2.282 0-3.443-1.945-3.43-3.709 0-1.777 1.19-3.569 3.416-3.583 1.932-.014 3.29 1.498 3.29 3.401 0 .168-.015.28-.029.462h-6.004c.098 1.4 1.077 2.744 2.757 2.744zm-2.757-3.36h5.389c-.084-1.525-1.176-2.547-2.646-2.575-1.652.014-2.547 1.148-2.743 2.575zm13.638 3.318v.643c-1.204.056-1.876-.615-1.876-1.987v-7.825h.742v7.825c0 .84.238 1.358 1.134 1.344zm6.738-.84v-1.946c-.616-.392-1.4-.56-2.03-.56-1.623 0-2.45.756-2.45 1.722 0 1.008.757 1.75 2.31 1.75.728 0 1.652-.35 2.17-.966zm.686 1.469h-.56l-.14-.755a3.281 3.281 0 01-2.156.909c-2.057.014-3.023-1.077-3.023-2.449 0-1.246 1.092-2.352 3.149-2.366.588 0 1.358.182 2.044.588v-.588c0-1.525-1.092-1.889-2.254-1.889-.811 0-1.357.196-2.043.63l-.322-.518c.7-.532 1.568-.784 2.407-.784 1.47 0 2.898.658 2.898 2.561v4.661zm4.415-3.905c1.106.224 2.198.798 2.198 1.988 0 1.4-1.358 2.043-2.394 2.043-.84 0-1.651-.35-2.169-1.021.14-.14.322-.322.434-.448.853 1.175 3.289 1.133 3.415-.588-.014-.798-.98-1.204-1.624-1.33-1.078-.182-2.071-.756-2.085-1.918 0-2.085 2.841-2.603 4.185-1.343l-.434.476c-.896-.868-3.051-.588-3.037.867.014.826.895 1.148 1.511 1.274zm10.613-2.659c-.798-.014-1.484.252-1.946.812v5.752h-.728v-7.096h.63l.098.602c.504-.49 1.274-.728 1.974-.728 1.218.056 2.029.364 2.463 1.414.616-1.246 1.512-1.4 2.45-1.4 1.526 0 2.771.826 2.771 2.981v4.227h-.728v-4.227c0-1.651-.965-2.323-2.043-2.323-1.106 0-2.058.504-2.072 2.183v4.367h-.686l-.028-4.367c-.056-1.469-.797-2.197-2.155-2.197zm13.238 5.977c.798 0 1.637-.294 2.141-.924l.546.378c-.672.826-1.623 1.231-2.687 1.231-2.282 0-3.444-1.945-3.43-3.709 0-1.777 1.19-3.569 3.416-3.583 1.931-.014 3.289 1.498 3.289 3.401 0 .168-.014.28-.028.462h-6.005c.098 1.4 1.078 2.744 2.758 2.744zm-2.758-3.36h5.389c-.084-1.525-1.176-2.547-2.645-2.575-1.652.014-2.548 1.148-2.744 2.575zm6.811 6.593v-.63c.965 0 1.441-.546 1.441-1.358v-7.768h.742v7.768c0 1.372-.924 2.044-2.183 1.988zm2.169-12.444v1.05h-.77v-1.05h.77zm2.857 6.257c0 1.946 1.414 3.08 2.786 3.08 1.385 0 2.799-1.134 2.799-3.08 0-1.945-1.414-3.037-2.799-3.037-1.372 0-2.786 1.092-2.786 3.037zm6.313 0c0 1.988-1.498 3.709-3.527 3.709-2.016 0-3.514-1.721-3.514-3.709 0-1.987 1.498-3.709 3.514-3.709 2.029 0 3.527 1.722 3.527 3.709zm2.131-3.555h.588l.112.924c.84-1.344 2.519-1.078 3.331-.728l-.294.602c-1.329-.644-3.065.084-3.023 1.749v4.549h-.714v-7.096zm8.352 6.509c.798 0 1.638-.294 2.142-.924l.546.378c-.672.826-1.624 1.231-2.688 1.231-2.281 0-3.443-1.945-3.429-3.709 0-1.777 1.19-3.569 3.415-3.583 1.932-.014 3.29 1.498 3.29 3.401 0 .168-.014.28-.028.462h-6.005c.098 1.4 1.078 2.744 2.757 2.744zm-2.757-3.36h5.389c-.084-1.525-1.176-2.547-2.646-2.575-1.651.014-2.547 1.148-2.743 2.575zm10.114.042c1.105.224 2.197.798 2.197 1.988 0 1.4-1.358 2.043-2.393 2.043-.84 0-1.652-.35-2.17-1.021.14-.14.322-.322.434-.448.854 1.175 3.289 1.133 3.415-.588-.014-.798-.98-1.204-1.623-1.33-1.078-.182-2.072-.756-2.086-1.918 0-2.085 2.841-2.603 4.185-1.343l-.434.476c-.896-.868-3.051-.588-3.037.867.014.826.896 1.148 1.512 1.274zm8.093.364c0 1.946 1.413 3.08 2.785 3.08 1.386 0 2.8-1.134 2.8-3.08 0-1.945-1.414-3.037-2.8-3.037-1.372 0-2.785 1.092-2.785 3.037zm6.312 0c0 1.988-1.497 3.709-3.527 3.709-2.016 0-3.513-1.721-3.513-3.709 0-1.987 1.497-3.709 3.513-3.709 2.03 0 3.527 1.722 3.527 3.709zm2.755-4.283v.728h1.567v.63h-1.567v6.466h-.728v-6.466h-1.218v-.63h1.218v-.728c0-1.386.924-2.17 2.449-1.988v.616c-1.371-.098-1.721.532-1.721 1.372zm6.212 7.237c.798 0 1.637-.294 2.141-.924l.546.378c-.672.826-1.624 1.231-2.687 1.231-2.282 0-3.444-1.945-3.43-3.709 0-1.777 1.19-3.569 3.416-3.583 1.931-.014 3.289 1.498 3.289 3.401 0 .168-.014.28-.028.462h-6.005c.098 1.4 1.078 2.744 2.758 2.744zm-2.758-3.36h5.389c-.084-1.525-1.176-2.547-2.645-2.575-1.652.014-2.548 1.148-2.744 2.575zm8.252-3.149h.588l.112.924c.84-1.344 2.519-1.078 3.331-.728l-.294.602c-1.329-.644-3.065.084-3.023 1.749v4.549h-.714v-7.096zm7.981 6.495v.657c-1.245.056-2.169-.601-2.169-1.987v-4.563h-1.05v-.602h1.05v-1.736l.714-.154v1.89h1.441v.602h-1.441v4.563c0 .84.546 1.344 1.455 1.33zm6.836-.868v-1.946c-.616-.392-1.399-.56-2.029-.56-1.624 0-2.45.756-2.45 1.722 0 1.008.756 1.75 2.31 1.75.728 0 1.651-.35 2.169-.966zm.686 1.469h-.56l-.14-.755a3.279 3.279 0 01-2.155.909c-2.058.014-3.024-1.077-3.024-2.449 0-1.246 1.092-2.352 3.15-2.366.588 0 1.357.182 2.043.588v-.588c0-1.525-1.091-1.889-2.253-1.889-.812 0-1.358.196-2.044.63l-.322-.518c.7-.532 1.568-.784 2.408-.784 1.469 0 2.897.658 2.897 2.561v4.661zm4.416-3.905c1.105.224 2.197.798 2.197 1.988 0 1.4-1.358 2.043-2.393 2.043-.84 0-1.652-.35-2.17-1.021.14-.14.322-.322.434-.448.854 1.175 3.289 1.133 3.415-.588-.014-.798-.979-1.204-1.623-1.33-1.078-.182-2.072-.756-2.086-1.918 0-2.085 2.842-2.603 4.185-1.343l-.434.476c-.895-.868-3.051-.588-3.037.867.014.826.896 1.148 1.512 1.274zm10.836-3.219c.588 0 1.26.168 1.806.7v-3.388h.742v9.812h-.602l-.112-.755c-.504.671-1.316.839-1.946.825-4.339-.056-4.325-7.208.112-7.194zm.028 6.537c.7 0 1.274-.28 1.792-.98v-4.115c-.462-.56-1.162-.826-1.96-.798-3.373.21-3.317 5.823.168 5.893zm5.949.587h-.727v-7.11h.727v7.11zm.014-9.784v1.078h-.755v-1.078h.755zm4.551 5.879c1.106.224 2.198.798 2.198 1.988 0 1.4-1.358 2.043-2.394 2.043-.84 0-1.651-.35-2.169-1.021.14-.14.322-.322.434-.448.853 1.175 3.289 1.133 3.415-.588-.014-.798-.98-1.204-1.624-1.33-1.078-.182-2.071-.756-2.085-1.918 0-2.085 2.841-2.603 4.185-1.343l-.434.476c-.896-.868-3.052-.588-3.038.867.014.826.896 1.148 1.512 1.274zm6.892-3.233c4.437-.014 4.451 7.152.112 7.208-.616.014-1.442-.14-1.946-.783v3.457h-.714v-9.84h.616l.112.672c.546-.532 1.232-.714 1.82-.714zm-.028 6.551c3.485-.07 3.541-5.697.168-5.907-.798-.028-1.498.252-1.96.812v4.115c.518.7 1.092.98 1.792.98zm5.795-2.954c0 1.946 1.414 3.08 2.785 3.08 1.386 0 2.8-1.134 2.8-3.08 0-1.945-1.414-3.037-2.8-3.037-1.371 0-2.785 1.092-2.785 3.037zm6.313 0c0 1.988-1.498 3.709-3.528 3.709-2.015 0-3.513-1.721-3.513-3.709 0-1.987 1.498-3.709 3.513-3.709 2.03 0 3.528 1.722 3.528 3.709zm2.859-2.211v5.752h-.728v-7.096h.63l.098.602c.503-.49 1.273-.742 1.973-.742 1.834.028 3.373 1.162 3.373 3.163v4.073h-.727v-4.073c-.014-1.483-1.26-2.435-2.674-2.491-.798-.014-1.484.252-1.945.812zm8.679 5.752h-.727v-7.11h.727v7.11zm.014-9.784v1.078h-.755v-1.078h.755zm5.251 2.66c2.24-.014 3.345 1.82 3.345 3.625 0 1.778-1.077 3.541-3.233 3.569-.63.014-1.442-.154-1.946-.825l-.112.755h-.601v-9.812h.741v3.388c.546-.532 1.218-.7 1.806-.7zm-.028 6.551c1.736-.028 2.632-1.456 2.66-2.898.028-1.442-.798-2.897-2.492-3.009-.798-.028-1.498.238-1.96.798v4.115c.518.7 1.092.994 1.792.994zm7.419-.056v.643c-1.204.056-1.876-.615-1.876-1.987v-7.825h.742v7.825c0 .84.238 1.358 1.134 1.344zm5.016.042c.798 0 1.637-.294 2.141-.924l.546.378c-.672.826-1.623 1.231-2.687 1.231-2.282 0-3.443-1.945-3.43-3.709 0-1.777 1.19-3.569 3.416-3.583 1.931-.014 3.289 1.498 3.289 3.401 0 .168-.014.28-.028.462h-6.005c.098 1.4 1.078 2.744 2.758 2.744zm-2.758-3.36h5.389c-.084-1.525-1.175-2.547-2.645-2.575-1.652.014-2.548 1.148-2.744 2.575zm10.114.042c1.106.224 2.197.798 2.197 1.988 0 1.4-1.357 2.043-2.393 2.043-.84 0-1.652-.35-2.17-1.021.14-.14.322-.322.434-.448.854 1.175 3.29 1.133 3.416-.588-.014-.798-.98-1.204-1.624-1.33-1.078-.182-2.072-.756-2.086-1.918 0-2.085 2.842-2.603 4.185-1.343l-.433.476c-.896-.868-3.052-.588-3.038.867.014.826.896 1.148 1.512 1.274zm10.878 3.318c.798 0 1.638-.294 2.142-.924l.546.378c-.672.826-1.624 1.231-2.688 1.231-2.281 0-3.443-1.945-3.429-3.709 0-1.777 1.19-3.569 3.415-3.583 1.932-.014 3.29 1.498 3.29 3.401 0 .168-.014.28-.028.462h-6.005c.098 1.4 1.078 2.744 2.757 2.744zm-2.757-3.36h5.389c-.084-1.525-1.176-2.547-2.646-2.575-1.651.014-2.547 1.148-2.743 2.575zm8.98-1.805v5.752h-.728v-7.096h.63l.098.602c.504-.49 1.273-.742 1.973-.742 1.834.028 3.374 1.162 3.374 3.163v4.073h-.728v-4.073c-.014-1.483-1.26-2.435-2.674-2.491-.798-.014-1.483.252-1.945.812zm-266.43 15.628c.589 0 1.26.168 1.806.7v-3.388h.742v9.812h-.602l-.112-.755c-.504.671-1.315.839-1.945.825-4.34-.056-4.325-7.208.112-7.194zm.029 6.537c.7 0 1.274-.28 1.791-.98v-4.115c-.462-.56-1.161-.826-1.96-.798-3.373.21-3.316 5.823.169 5.893zm5.95.587h-.729v-7.11h.728v7.11zm.013-9.784v1.078h-.756v-1.078h.756zm3.476 1.96v.728h1.568v.63h-1.568v6.466h-.728v-6.466h-1.217v-.63h1.217v-.728c0-1.386.924-2.17 2.45-1.988v.616c-1.372-.098-1.722.532-1.722 1.372zm6.212 7.237c.798 0 1.638-.294 2.142-.924l.546.378c-.672.826-1.624 1.231-2.688 1.231-2.281 0-3.443-1.945-3.429-3.709 0-1.777 1.19-3.569 3.415-3.583 1.932-.014 3.29 1.498 3.29 3.401 0 .168-.014.28-.028.462h-6.005c.098 1.4 1.078 2.744 2.757 2.744zm-2.757-3.36h5.389c-.084-1.525-1.176-2.547-2.646-2.575-1.651.014-2.547 1.148-2.743 2.575zm8.252-3.149h.588l.112.924c.84-1.344 2.52-1.078 3.33-.728l-.293.602c-1.33-.644-3.065.084-3.023 1.749v4.549h-.714v-7.096zm8.352 6.509c.798 0 1.638-.294 2.142-.924l.546.378c-.672.826-1.624 1.231-2.688 1.231-2.281 0-3.443-1.945-3.43-3.709 0-1.777 1.19-3.569 3.416-3.583 1.932-.014 3.29 1.498 3.29 3.401 0 .168-.014.28-.028.462h-6.005c.098 1.4 1.078 2.744 2.757 2.744zm-2.757-3.36h5.389c-.084-1.525-1.176-2.547-2.646-2.575-1.651.014-2.547 1.148-2.743 2.575zm8.98-1.805v5.752h-.728v-7.096h.63l.097.602c.504-.49 1.274-.742 1.974-.742 1.834.028 3.373 1.162 3.373 3.163v4.073h-.728v-4.073c-.013-1.483-1.26-2.435-2.673-2.491-.798-.014-1.484.252-1.946.812zm10.219 5.151v.657c-1.246.056-2.17-.601-2.17-1.987v-4.563h-1.05v-.602h1.05v-1.736l.714-.154v1.89h1.442v.602h-1.442v4.563c0 .84.546 1.344 1.456 1.33zm5.114.014c.798 0 1.638-.294 2.142-.924l.546.378c-.672.826-1.624 1.231-2.688 1.231-2.281 0-3.443-1.945-3.429-3.709 0-1.777 1.19-3.569 3.415-3.583 1.932-.014 3.29 1.498 3.29 3.401 0 .168-.014.28-.028.462h-6.005c.098 1.4 1.078 2.744 2.757 2.744zm-2.757-3.36h5.389c-.084-1.525-1.176-2.547-2.646-2.575-1.651.014-2.547 1.148-2.743 2.575zm10.113.042c1.106.224 2.198.798 2.198 1.988 0 1.4-1.358 2.043-2.394 2.043-.84 0-1.651-.35-2.17-1.021.14-.14.323-.322.435-.448.854 1.175 3.289 1.133 3.415-.588-.014-.798-.98-1.204-1.624-1.33-1.077-.182-2.071-.756-2.085-1.918 0-2.085 2.841-2.603 4.185-1.343l-.434.476c-.896-.868-3.051-.588-3.037.867.014.826.895 1.148 1.511 1.274zm10.207 3.304v.657c-1.246.056-2.169-.601-2.169-1.987v-4.563h-1.05v-.602h1.05v-1.736l.713-.154v1.89h1.442v.602h-1.442v4.563c0 .84.546 1.344 1.456 1.33zm2.903.601h-.728v-7.11h.728v7.11zm.014-9.784v1.078h-.756v-1.078h.756zm5.628 9.197c.798 0 1.638-.294 2.142-.924l.546.378c-.672.826-1.624 1.231-2.688 1.231-2.281 0-3.443-1.945-3.429-3.709 0-1.777 1.19-3.569 3.415-3.583 1.932-.014 3.29 1.498 3.29 3.401 0 .168-.014.28-.028.462h-6.005c.098 1.4 1.078 2.744 2.757 2.744zm-2.757-3.36h5.389c-.084-1.525-1.176-2.547-2.646-2.575-1.651.014-2.547 1.148-2.743 2.575zm8.98-1.805v5.752h-.728v-7.096h.63l.098.602c.504-.49 1.273-.742 1.973-.742 1.834.028 3.374 1.162 3.374 3.163v4.073h-.728v-4.073c-.014-1.483-1.26-2.435-2.674-2.491-.798-.014-1.483.252-1.945.812zm10.849-1.372c.588 0 1.26.168 1.806.7v-3.388h.742v9.812h-.602l-.112-.755c-.504.671-1.316.839-1.946.825-4.339-.056-4.325-7.208.112-7.194zm.028 6.537c.7 0 1.274-.28 1.792-.98v-4.115c-.462-.56-1.162-.826-1.96-.798-3.373.21-3.317 5.823.168 5.893zm9.883-.882v-1.946c-.616-.392-1.4-.56-2.03-.56-1.624 0-2.449.756-2.449 1.722 0 1.008.755 1.75 2.309 1.75.728 0 1.652-.35 2.17-.966zm.685 1.469h-.559l-.14-.755a3.281 3.281 0 01-2.156.909c-2.058.014-3.023-1.077-3.023-2.449 0-1.246 1.091-2.352 3.149-2.366.588 0 1.358.182 2.044.588v-.588c0-1.525-1.092-1.889-2.254-1.889-.812 0-1.358.196-2.044.63l-.321-.518c.699-.532 1.567-.784 2.407-.784 1.47 0 2.897.658 2.897 2.561v4.661zm4.416-3.905c1.106.224 2.197.798 2.197 1.988 0 1.4-1.357 2.043-2.393 2.043-.84 0-1.652-.35-2.17-1.021.14-.14.322-.322.434-.448.854 1.175 3.29 1.133 3.416-.588-.014-.798-.98-1.204-1.624-1.33-1.078-.182-2.072-.756-2.086-1.918 0-2.085 2.842-2.603 4.186-1.343l-.434.476c-.896-.868-3.052-.588-3.038.867.014.826.896 1.148 1.512 1.274zm5.226 3.919h-.882v-1.091h.882v1.091z" fill="#000"/></g><defs><filter id="filter0_d_154_859" x="-22.878" y="-26.417" width="468.986" height="288.986" filterUnits="userSpaceOnUse" color-interpolation-filters="sRGB"><feFlood flood-opacity="0" result="BackgroundImageFix"/><feColorMatrix in="SourceAlpha" values="0 0 0 0 0 0 0 0 0 0 0 0 0 0 0 0 0 0 127 0" result="hardAlpha"/><feOffset dy="3.999"/><feGaussianBlur stdDeviation="5.999"/><feComposite in2="hardAlpha" operator="out"/><feColorMatrix values="0 0 0 0 0.578693 0 0 0 0 0.578693 0 0 0 0 0.578693 0 0 0 0.25 0"/><feBlend in2="BackgroundImageFix" result="effect1_dropShadow_154_859"/><feBlend in="SourceGraphic" in2="effect1_dropShadow_154_859" result="shape"/></filter></defs></svg>