<svg width="208" height="27" viewBox="0 0 208 27" fill="none" xmlns="http://www.w3.org/2000/svg"><rect x=".119" y=".301" width="207" height="26" rx="13" fill="#5F5AFF"/><path d="M73.922 10.365l-.94.829c-.566-.597-1.234-.84-1.83-.82-1.416.031-2.184 1.164-2.184 2.408 0 1.254.778 2.346 2.184 2.346.627 0 1.355-.263 1.931-.94l1.001.778c-.84 1.021-1.78 1.496-2.932 1.496-2.356 0-3.62-1.78-3.62-3.68 0-1.902 1.264-3.742 3.62-3.742 1.031 0 1.982.374 2.77 1.325zm2.005 3.377c0 .94.738 1.436 1.355 1.436.648 0 1.335-.495 1.335-1.436 0-1-.688-1.436-1.335-1.436-.617 0-1.355.466-1.355 1.436zm4.055 0c0 1.578-1.153 2.7-2.7 2.7-1.537 0-2.71-1.122-2.71-2.7 0-1.618 1.173-2.71 2.71-2.71 1.547 0 2.7 1.092 2.7 2.71zm2.52-2.113c.607-.769 2.093-.678 2.478.192.434-.647 1-.708 1.506-.708 1.133 0 2.154.455 2.154 2.174v3.014h-1.314v-3.024c0-.718-.405-.98-.86-.98-.465 0-.87.313-.87.99v3.014h-1.284v-2.983c0-.961-1.051-1.315-1.76-.718v3.7h-1.385v-5.126H82.3l.202.455zm12.284 2.083c0 1.436-.92 2.67-2.477 2.67-.233 0-.668-.081-.92-.284v2.124h-1.366v-7.048h1.022l.12.526c.405-.516.941-.607 1.366-.607 1.365 0 2.255 1.173 2.255 2.619zM91.41 12.66v2.346c.97.526 1.992.01 1.992-1.294 0-.85-.435-1.436-1.224-1.436a.946.946 0 00-.768.384zm4.44-1.537h1.122l.111.536c.607-.768 1.679-.748 2.357-.162l-.587 1.042c-.647-.425-1.638-.273-1.638.566v3.196h-1.365v-5.178zm4.972 3.469c-.021.94 1.415.86 1.931.323v-.809a2.303 2.303 0 00-.9-.182c-.526 0-1.021.192-1.031.668zm3.296 1.709h-1.102l-.182-.455c-.324.404-.829.566-1.234.566-1.345 0-2.063-.81-2.063-1.78 0-1.163 1.123-1.75 2.225-1.729.344.01.677.08.981.202-.03-.718-.486-.98-1.011-.99-.506-.01-1.103.161-1.406.414l-.465-.86c.637-.515 1.284-.657 1.992-.657 1.173 0 2.265.627 2.265 2.123v3.166zm1.241-5.178h1.123l.111.536c.607-.768 1.679-.748 2.356-.162l-.586 1.042c-.647-.425-1.638-.273-1.638.566v3.196h-1.366v-5.178zm11.195 5.178l-.597-1.901h-2.437l-.597 1.9h-1.557l2.407-7.149h1.901l2.447 7.15h-1.567zm-1.8-6.098h-.021l-.384 1.578-.404 1.274h1.587l-.384-1.234-.394-1.618zm3.958-.98h1.385v2.153c.374-.253.87-.313 1.315-.273 1.132.111 1.971 1.001 1.971 2.285v2.913h-1.385v-2.902c0-.961-1.062-1.457-1.901-.9V16.3h-1.385V9.222zm7.116 4.52c0 .94.738 1.435 1.355 1.435.647 0 1.334-.495 1.334-1.436 0-1-.687-1.436-1.334-1.436-.617 0-1.355.466-1.355 1.436zm4.055 0c0 1.577-1.153 2.7-2.7 2.7-1.537 0-2.71-1.123-2.71-2.7 0-1.619 1.173-2.71 2.71-2.71 1.547 0 2.7 1.091 2.7 2.71zm1.053-2.62h1.123l.111.536c.607-.768 1.678-.748 2.356-.162l-.586 1.042c-.648-.425-1.639-.273-1.639.566v3.196h-1.365v-5.178zm4.972 3.469c-.02.94 1.416.86 1.931.323v-.809a2.3 2.3 0 00-.9-.182c-.525 0-1.021.192-1.031.668zm3.297 1.709h-1.103l-.182-.455c-.323.404-.829.566-1.233.566-1.345 0-2.063-.81-2.063-1.78 0-1.163 1.122-1.75 2.224-1.729.344.01.678.08.981.202-.03-.718-.485-.98-1.011-.99-.505-.01-1.102.161-1.405.414l-.466-.86c.637-.515 1.285-.657 1.992-.657 1.174 0 2.266.627 2.266 2.123v3.166z" fill="#fff"/></svg>