<svg width="1440" height="114" viewBox="0 0 1440 114" fill="none" xmlns="http://www.w3.org/2000/svg"><path fill="url(#paint0_linear_156_109)" d="M.144.846h1440v113H.144z"/><path d="M200.929 46.03c5.061.41 5.697 7.257 3.059 10.586-.441.557-.941.948-1.453 1.427.896.216 1.674.998 2.001 1.85.974 2.529-.73 5.917 1.454 8.102h-4.698c-.204 0-.563-.36-.686-.525-.565-.764-.71-2.094-.738-3.025-.029-1.033.306-3.196-.452-3.976-.103-.107-.548-.362-.67-.362h-4.939v7.888h-4.97V46.031h12.092v-.002zm-7.122 8.98h5c.281 0 .855-.371 1.063-.574 1.265-1.245.769-3.66-1.122-3.796-.351-.026-.659.063-.969.065-1.325.014-2.649-.017-3.973-.002v4.308l.001-.002z" fill="#DDD"/><path d="M225.627 53.006h-4.667c-.478-1.957-1.454-3.414-3.607-3.58-5.483-.422-7.103 5.196-6.184 9.65.777 3.759 4.479 6.638 8.173 4.355 1.23-.76 1.797-2.009 1.497-3.448h-4.363v-4.308h9.333v12.317h-3.243c-.193-.165-.785-1.356-.958-1.328-.046.007-.655.418-.789.488-3.918 2.072-7.455 2.14-10.891-.889-3.556-3.135-4.343-8.438-3.315-12.906 1.429-6.201 8.14-9.862 14.101-7.298 2.711 1.165 4.56 4.059 4.911 6.945l.002.002zM168.231 67.993l6.914-21.87.205-.1h5.4l7.604 21.969h-5.334l-1.492-4.434-6.329.031-1.604 4.403h-5.364v.001zm11.818-8.434l-1.938-5.217-1.82 5.217h3.758zM172.959 46.03v4.428h-6.243v17.536h-5.213V50.458h-6.182V46.03h17.638zM243.083 46.03v4.428h-10.305v4.005h8.85v4.005h-8.85v5.097h10.305v4.429h-15.455V46.029h15.455zM261.447 46.03v4.428h-6.182v17.536h-5.213V50.458h-6.243v-4.429h17.638zM135.804 42.51c10.676.452 17.655 11.452 13.205 21.319-4.755 10.544-19.337 11.898-25.981 2.423-6.914-9.858-.064-23.242 11.807-23.744.309-.013.66-.013.969 0v.002zm9.48 15.09c0-5.49-4.445-9.942-9.93-9.942-5.485 0-9.931 4.452-9.931 9.942 0 5.491 4.446 9.943 9.931 9.943 5.485 0 9.93-4.452 9.93-9.943z" fill="#DDD"/><path d="M135.357 62.687a5.115 5.115 0 005.112-5.118 5.115 5.115 0 00-5.112-5.118 5.115 5.115 0 00-5.112 5.118 5.115 5.115 0 005.112 5.118zM387.725 54.172c.748-1.034 1.605-1.968 2.858-2.383 2.607-.86 5.762-.04 6.8 2.677.138.1.552-.582.666-.706 1.122-1.236 2.557-2.142 4.271-2.27 4.713-.351 6.261 3.25 6.431 7.326.138 3.324-.11 6.744 0 10.078h-4.678V58.521c0-.32-.241-1.16-.369-1.487-.97-2.483-4.21-2.13-5.106.167-.057.142-.241.692-.241.798v10.895h-4.678v-10.67c0-.239-.238-.97-.337-1.226-.913-2.319-3.694-2.127-4.873-.128-.152.26-.506 1.083-.506 1.35v10.67h-4.604V51.864h4.381v2.305l-.015.004zM425.601 68.89c-1.42.402-2.985.437-4.012-.777l-.63-1.009c-.351.291-.638.654-1.006.927-3.669 2.716-9.601.91-9.428-4.162.174-5.117 5.936-6.225 10.03-6.25.166-3.526-4.069-3.089-6.354-2.261-.548.198-1.041.529-1.593.67l-.804-2.883c-.046-.195.234-.32.382-.401 3.351-1.811 9.941-2.12 12.14 1.626 1.537 2.62.928 8.26 1.059 11.435.043 1.033 0 2.063.22 3.085h-.004zm-4.901-8.178c-1.976-.1-5.496.306-5.496 2.937 0 2.454 2.819 2.805 4.416 1.523.361-.29 1.08-1.21 1.08-1.672v-2.788zM380.076 46.214h-4.604v22.68h4.604v-22.68zM444.835 46.214v5.355h4.008v4.314h-4.008v7.471c0 .26.283 1.04.432 1.279.669 1.069 2.316.795 3.357.543l.067 3.636c-2.029.526-4.434.828-6.3-.334-1.512-.94-1.902-2.627-2.089-4.303V46.214h4.533zM438.375 51.569v4.46c-1.764-.306-3.69-.057-4.664 1.612-.181.305-.535 1.218-.535 1.548v9.705h-4.753V51.867h4.158v3.196c.216.042.117-.064.166-.164.107-.216.181-.472.291-.678 1.062-1.967 3.074-3.11 5.333-2.652h.004zM334.555 46.214l3.304 17.623L341.8 46.21h5.082l3.492 17.478 3.492-17.474h4.827l-5.939 22.627c-1.714.497-3.835.479-5.008-1.07-.513-.681-.694-1.487-.899-2.297-.588-2.326-1.091-4.84-1.573-7.198-.442-2.173-.888-4.35-1.136-6.558l-4.023 17.162c-1.208.245-2.575.433-3.751-.046-1.395-.572-1.852-1.925-2.231-3.27l-4.699-19.35h5.124-.003zM368.121 67.108c-.11-.082-.719.628-.854.742-3.286 2.713-9.268 1.502-9.618-3.228-.418-5.646 5.57-7.042 10.029-6.956.103-4.194-5.67-3.005-7.947-1.563l-.882-3.025c-.017-.064.018-.093.06-.132.16-.145 1.066-.518 1.321-.614 3.358-1.268 8.904-1.559 11.089 1.875 1.809 2.848.959 8.774 1.108 12.201.035.813.191 1.627.216 2.44-.053.156-.868.259-1.066.273-1.604.114-2.925-.405-3.456-2.01v-.003zm-.298-6.396c-1.799-.099-5.167.238-5.475 2.511-.464 3.395 4.02 3.423 5.21.902.053-.114.269-.7.269-.77v-2.64l-.004-.003zM491.104 49.19c.014.138.018.38 0 .522a1.955 1.955 0 01-.79 1.327l-9.413 4.336c-1.395.27-2.738-2.215-1.523-3.167 2.858-1.964 5.652-4.048 8.549-5.941 1.562-.412 3.032 1.545 3.18 2.922h-.003zM473.039 38.053c.709-.095 1.551-.024 2.2.288 1.384.668 1.104 1.701 1.012 3-.212 2.97-.588 5.938-.835 8.903-.411 1.19-2.965 1.229-3.453 0l-.914-9.868c-.251-1.29.818-2.166 1.99-2.326v.004zM458.704 46.231c.347-.053.701-.032 1.009.142l8.407 5.934c.942.97-.152 3.097-1.476 3.1-3.28-1.363-6.481-2.965-9.707-4.467-1.569-1.317.039-4.435 1.767-4.709zM491.105 65.4c.014.128.01.316 0 .447-.089 1.083-.996 2.514-2.04 2.905-.896.334-1.204.067-1.92-.39-2.635-1.67-5.131-3.768-7.766-5.459-1.229-.898.152-3.451 1.48-3.2 3.255 1.482 6.527 2.955 9.718 4.553.234.224.492.828.528 1.147V65.4zM456.745 64.31c3.205-1.655 6.541-3.125 9.834-4.624 1.364.053 2.338 1.765 1.682 2.955-2.673 1.86-5.266 3.977-8.028 5.717-.62.39-.889.674-1.689.454-1.651-.447-2.95-3.046-1.799-4.506v.004zM473.563 63.93c.627-.029 1.626.284 1.849.93l.913 9.794c.549 3.26-5.815 3.26-5.276.003l.91-9.797c.17-.558 1.069-.905 1.604-.93zM666.589 71.056l-1.336.157-72.706 6.284-.211-.054-6.361-6.386h80.614zM580.892 66.87h-6.469l-6.313-8.35-.051-.129h-3.72v8.478h-5.237V39.395l9.038-.003c8.397.494 12.135 10.84 5.839 16.566-.124.113-.794.58-.78.67l7.693 10.241zM564.341 53.21h3.798c1.927 0 3.735-2.063 3.895-3.905.19-2.18-1.667-4.676-3.948-4.676h-3.745v8.583-.002z" fill="#DDD"/><path d="M593.465 45.832v-.941h4.976v21.98h-4.976v-.995c-4.25 3.011-9.757 1.34-12.562-2.757-3.024-4.415-2.871-10.986.516-15.165 2.459-3.033 6.649-4.598 10.389-3.003l1.657.882v-.001zm-4.935 3.888c-6.411.185-6.192 12.933.511 12.443 6.11-.448 5.82-12.626-.511-12.443zM625.208 44.89l-.003 13.163c.388 5.56 7.936 5.648 8.281-.104l-.003-13.058h4.976v21.98h-4.976v-.785c-.605.3-1.18.65-1.82.876-5.642 1.992-11.159-2.61-11.431-8.282V44.89h4.976z" fill="#DDD"/><path d="M606.403 37.615l.001 14.915 6.049-7.64h6.94l-8.539 10.335 9.901 11.697h-6.94l-7.412-9.001v9h-5.081V37.616h5.081zM693.198 52.478v14.444h-4.925l.003-13.216c-.499-5.58-7.961-5.555-8.28.261l.002 12.902h-4.976v-21.98h4.976v.837c.291-.064.562-.31.836-.447 4.944-2.485 10.676.563 12.035 5.722l.329 1.476v.001zM672.927 57.293h-14.405c.189 1.669 1.034 3.326 2.393 4.335 2.64 1.96 5.721.87 7.376-1.719l4.423 2.64c-2.467 3.59-6.493 5.625-10.893 4.611-8.069-1.86-10.582-12.434-6.066-18.778 4.441-6.24 13.505-5.033 16.447 1.917.942 2.225 1.063 4.618.725 6.996v-.002zm-5.133-4.24c-.388-2.937-3.148-4.697-5.985-3.65-1.562.577-2.66 2.035-2.972 3.65h8.957z" fill="#DDD"/><path d="M647.836 39.395v5.496h4.296v5.233h-4.296v9.76c0 .845.695 1.82 1.455 2.157.965.428 1.76.14 2.631-.33l3.194 4.295c-.979.623-2.243 1.066-3.395 1.265-4.6.8-8.505-2.386-8.861-6.97V50.123h-2.672v-5.232h2.672v-5.496h4.976zM787.675 42.513c.142.026.079-.037.112-.107 1.129-2.449 2.644-3.763 5.511-3.58 2.479.158 3.474 1.535 4.517 3.543.028.056 0 .12.098.095.042-.009.288-.643.36-.77 2.763-4.912 10.577-3.223 10.47 2.613v15.55c-.016.463-.374.722-.811.761-.911.082-2.83.089-3.734-.002-.553-.056-.795-.361-.813-.906.018-3.528-.017-7.055 0-10.58.004-1.268.306-3.719-.611-4.697-.704-.75-2.159-.762-3.007-.254-1.166.697-1.38 2.071-1.441 3.327-.197 4.056.151 8.278.005 12.35-.044.49-.337.723-.811.762-.925.08-2.818.089-3.734 0-.581-.058-.769-.354-.813-.908.019-3.56-.016-7.12 0-10.678.007-1.691.379-5.011-2.035-5.235-2.405-.224-2.928 1.794-3.021 3.76-.193 4.045.146 8.243.005 12.302-.01.44-.351.706-.762.76-1.206-.113-2.696.155-3.867-.015-.497-.072-.685-.368-.727-.846l.014-19.812c.053-.37.267-.643.648-.68 1.227-.115 2.633.088 3.878.004.242.019.567.39.567.613v2.633l.002-.003zM772.644 47.082c.012-1.54.212-3.478-1.54-4.128-1.487-.552-3.42.011-4.062 1.542-.199.475-.186 1.118-.764 1.302l-3.855-.396c-.978-.193-.453-1.498-.221-2.115 1.564-4.161 6.762-5.25 10.703-4.399 3.055.66 4.853 2.323 5.146 5.52.293 3.196-.176 6.386.051 9.442.051.692.319 1.398.667 1.99.256.433 1.025 1.235 1.006 1.7-.004.12-.069.222-.13.318-.948.77-1.845 1.71-2.797 2.462-.337.266-.665.548-1.141.357-.119-.047-.674-.553-.8-.676-.585-.578-1.024-1.277-1.496-1.943-1.301 1.312-2.704 2.381-4.58 2.69-1.837.304-3.977.148-5.506-.999-2.621-1.966-2.719-6.44-.927-8.988 2.263-3.225 6.719-3.225 10.249-3.679h-.003zm.005 3.152c-2.809-.107-6.006.702-5.797 4.16.188 3.089 3.394 3.352 4.933 1.001.996-1.526.857-3.413.864-5.16zM875.814 42.856c.114.023.079-.012.112-.063.148-.238.26-.643.404-.923 1.22-2.357 3.116-3.355 5.79-2.994 3.46.469 4.466 3.365 4.599 6.461.209 4.818-.163 9.783 0 14.615-.028.459-.4.629-.811.664-.921.08-2.824.09-3.734 0-.414-.042-.748-.268-.765-.71-.151-4.204.209-8.558.005-12.745-.07-1.433-.4-3.26-2.138-3.415-2.43-.22-3.078 2.565-3.169 4.45-.184 3.832.139 7.814.005 11.663-.049.547-.402.724-.909.762-.936.07-2.716.09-3.634-.003-.388-.04-.743-.23-.764-.661.041-6.692-.1-13.371-.035-20.06.079-.32.253-.585.602-.627 1.203-.144 2.693.11 3.926.005.156-.007.519.356.519.464v3.124l-.003-.007zM858.374 38.837c11.985-.799 12.647 20.284 2.082 22.059-12.726 2.139-13.832-21.274-2.082-22.059zm.244 4.082c-2.953.354-2.723 5.948-2.642 8.08.072 1.913.391 5.91 3.014 5.906 3.35-.005 3.176-5.303 3.125-7.579-.056-2.395 0-6.826-3.494-6.407h-.003zM823.563 47.082c.053-1.74.188-3.833-1.95-4.259-1.487-.298-3.116.32-3.68 1.792-.172.45-.158 1.046-.737 1.183l-3.815-.387c-.916-.233-.579-1.085-.372-1.745 1.408-4.475 6.778-5.675 10.902-4.771 3.202.704 4.938 2.58 5.107 5.901.147 2.857-.158 5.86-.004 8.712.037.675.176 1.328.474 1.933.251.508 1.068 1.42 1.173 1.825.058.228.035.447-.102.638l-2.946 2.558c-.626.454-.925.284-1.448-.17-.746-.648-1.255-1.456-1.84-2.239-1.281 1.342-2.707 2.388-4.58 2.691-2.256.364-4.838.054-6.343-1.831-1.717-2.15-1.659-5.813-.14-8.057 2.25-3.317 6.722-3.31 10.298-3.776l.003.002zm.007 3.152c-2.099-.053-4.975.324-5.623 2.707-.409 1.503-.061 3.642 1.731 3.973 1.508.277 2.721-.748 3.343-2.037.704-1.458.53-3.068.549-4.64v-.003z" fill="#DDD"/><path d="M834.396 43.496a.735.735 0 01-.615-.612c-.116-.965.086-2.158.004-3.146.105-.456.493-.542.904-.57h12.426c.398.032.804.156.86.615.056.459.056 2.537-.049 2.905-.034.126-.123.247-.174.368-2.393 3.56-4.916 7.036-7.342 10.575 2.316-.044 4.779.245 6.859 1.321.534.275 1.011.56 1.09 1.219.12 1.006-.079 2.213.007 3.243-.063.36-.321.659-.707.661-4.068-2.09-8.727-2.278-12.928-.45-.653.285-1.331.916-1.687-.162.156-1.825-.49-3.938.795-5.452l7.307-10.512h-6.752l.002-.003zM779.316 62.839c.204-.033.295.028.471.095.748.287 1.775 1 2.535 1.396 16.476 8.592 35.927 9.708 53.339 3.208.681-.254 2.066-.96 2.677-1.058.785-.126 1.515.494 1.15 1.3-.156.345-.755.713-1.073.941-2.452 1.757-5.398 3.225-8.205 4.327-16.664 6.546-35.736 3.678-49.482-7.76-.404-.336-1.426-1.133-1.696-1.501-.269-.368-.186-.872.284-.948z" fill="#DDD"/><path d="M840.499 61.515c1.057-.019 3.766.126 4.577.797.386.32.404 1.15.395 1.626-.065 2.936-1.98 7.886-4.426 9.634-.314.224-.865.429-.883-.142-.012-.366.794-2.167.973-2.67.474-1.324 1.564-4.357 1.157-5.66-.209-.666-1.055-.85-1.666-.938-2.321-.331-4.842.128-7.163.342-1.013-.247-.135-.91.323-1.207 1.901-1.216 4.473-1.747 6.713-1.784v.002z" fill="#DDD"/><g clip-path="url(#clip0_156_109)"><mask id="a" maskUnits="userSpaceOnUse" x="920" y="-26" width="248" height="176"><path d="M920.261-25.004h247.389v174.909H920.261V-25.004z" fill="#fff"/></mask><g mask="url(#a)"><path d="M1017.14 56.786c0-11.236-13.96-20.394-31.185-20.394-17.22 0-31.18 9.158-31.18 20.394l-.004 1.194c0 11.918 12.202 21.572 31.18 21.572 19.099 0 31.189-9.651 31.189-21.57v-1.196z" fill="#DDD"/><path d="M976.006 50.725c-.016.03-.315.34-.122.588.474.604 1.935.95 3.413.62.88-.198 2.007-1.095 3.1-1.962 1.184-.94 2.359-1.882 3.54-2.257 1.25-.398 2.051-.227 2.58-.067.581.173 1.264.555 2.353 1.372 2.051 1.542 10.3 8.742 11.73 9.987 1.14-.519 6.24-2.714 13.18-4.243-.6-3.695-2.85-7.076-6.26-9.845-4.75 1.996-10.562 3.037-16.241.264-.029-.012-3.103-1.467-6.135-1.395-4.505.104-6.456 2.054-8.523 4.119l-2.615 2.819z" fill="#fff"/><path d="M1002.26 59.789c-.1-.086-9.699-8.488-11.874-10.123-1.259-.944-1.96-1.185-2.695-1.278-.382-.05-.912.021-1.281.122-1.012.275-2.335 1.16-3.51 2.092-1.217.968-2.363 1.88-3.428 2.119-1.359.305-3.019-.055-3.777-.567-.308-.207-.523-.445-.627-.688-.28-.648.237-1.167.321-1.254l2.65-2.866c.307-.307.618-.615.936-.918-.856.111-1.646.33-2.415.544-.96.27-1.883.526-2.818.526-.39 0-2.48-.342-2.876-.45-2.398-.657-4.503-1.296-7.647-2.763-3.767 2.804-6.287 6.31-7.014 10.172.541.143 1.413.403 1.779.484 8.525 1.896 11.181 3.849 11.663 4.255a2.834 2.834 0 012.113-.947 2.835 2.835 0 012.31 1.208 3.228 3.228 0 012.032-.715 3.8 3.8 0 011.22.214c.961.33 1.457.97 1.715 1.55.323-.146.72-.253 1.187-.252.459 0 .936.105 1.417.313 1.572.674 1.817 2.218 1.674 3.382a3.383 3.383 0 013.718 3.362c0 .577-.147 1.12-.404 1.596.507.285 1.8.93 2.935.786.906-.115 1.25-.424 1.374-.598.084-.12.174-.26.09-.36l-2.405-2.672s-.396-.375-.265-.52c.136-.149.38.064.553.21 1.225 1.022 2.719 2.565 2.719 2.565.025.017.125.212.677.31.477.086 1.318.037 1.902-.442.147-.121.294-.273.417-.428-.009.007-.018.018-.027.022.615-.788-.068-1.584-.068-1.584l-2.809-3.153s-.401-.371-.265-.521c.123-.13.381.066.557.212.889.744 2.146 2.005 3.349 3.184.235.172 1.294.826 2.695-.094.851-.557 1.021-1.243.997-1.76-.059-.683-.593-1.171-.593-1.171l-3.836-3.857s-.405-.346-.262-.521c.116-.147.381.065.553.21 1.222 1.022 4.53 4.054 4.53 4.054.047.034 1.193.847 2.603-.052.5-.322.83-.81.85-1.374.05-.982-.64-1.564-.64-1.564z" fill="#fff"/><path d="M983.654 64.678c-.594-.007-1.245.346-1.331.295-.046-.032.037-.27.093-.408.057-.137.84-2.494-1.069-3.312-1.461-.628-2.354.078-2.661.397-.081.084-.117.077-.126-.03-.029-.424-.219-1.572-1.481-1.956-1.802-.553-2.961.705-3.255 1.159a2.085 2.085 0 00-2.064-1.825 2.092 2.092 0 10-.002 4.182 2.074 2.074 0 001.446-.583c.012.01.017.03.011.07-.088.517-.25 2.398 1.719 3.163.789.306 1.461.079 2.017-.312.167-.117.194-.068.17.089-.071.484.019 1.519 1.47 2.107 1.105.448 1.759-.011 2.187-.407.186-.17.237-.142.247.12.052 1.4 1.215 2.511 2.627 2.512a2.631 2.631 0 002.634-2.628c.001-1.454-1.178-2.617-2.632-2.633z" fill="#fff"/><path d="M983.654 69.752a2.425 2.425 0 01-2.438-2.33c-.004-.112-.015-.41-.266-.41-.104 0-.194.062-.297.156-.29.269-.66.541-1.198.541-.246 0-.51-.056-.79-.171-1.393-.563-1.411-1.52-1.354-1.904.015-.103.02-.209-.051-.293l-.085-.076h-.087c-.071 0-.143.029-.242.099-.403.282-.789.42-1.182.42a1.85 1.85 0 01-.66-.129c-1.832-.713-1.687-2.443-1.598-2.964.014-.105-.013-.187-.08-.242l-.129-.106-.121.116a1.887 1.887 0 01-1.316.532 1.906 1.906 0 01-1.903-1.902 1.905 1.905 0 011.906-1.902 1.9 1.9 0 011.877 1.66l.065.512.281-.432c.031-.051.8-1.214 2.214-1.212.269 0 .547.043.826.13 1.127.343 1.318 1.365 1.348 1.79.02.25.197.26.231.26.097 0 .169-.06.22-.115.213-.222.676-.59 1.401-.59.331 0 .685.079 1.049.236 1.792.768.979 3.044.969 3.068-.154.377-.16.544-.015.64l.071.033h.051c.081 0 .182-.035.348-.09.244-.085.612-.212.956-.211 1.349.015 2.446 1.112 2.445 2.445a2.448 2.448 0 01-2.446 2.441zm18.976-10.968c-2.956-2.582-9.792-8.525-11.643-9.915-1.059-.795-1.78-1.215-2.413-1.404a4.008 4.008 0 00-1.185-.184c-.472 0-.977.085-1.505.253-1.197.378-2.389 1.326-3.542 2.242l-.059.047c-1.074.853-2.185 1.737-3.024 1.924a5.113 5.113 0 01-1.121.126c-.94-.002-1.785-.273-2.102-.677-.053-.067-.019-.175.103-.33l.016-.022 2.602-2.804c2.039-2.038 3.964-3.962 8.395-4.064l.222-.003c2.758.002 5.515 1.237 5.824 1.38 2.587 1.26 5.256 1.902 7.942 1.904 2.79 0 5.68-.691 8.71-2.088a20.85 20.85 0 00-1.05-.835c-2.67 1.156-5.2 1.74-7.65 1.739-2.507-.002-5.008-.603-7.435-1.788-.128-.06-3.172-1.496-6.34-1.498l-.25.003c-3.722.087-5.819 1.41-7.229 2.567-1.371.033-2.554.364-3.607.658-.939.26-1.75.487-2.542.486-.325 0-.912-.03-.965-.03-.91-.029-5.492-1.153-9.139-2.533-.372.264-.73.536-1.079.813 3.809 1.561 8.444 2.769 9.907 2.864.407.026.841.072 1.275.073.968 0 1.933-.272 2.868-.533a21.743 21.743 0 011.802-.446c-.171.167-.341.338-.512.51l-2.645 2.86c-.208.21-.659.77-.362 1.46.119.279.359.545.695.772.631.424 1.759.71 2.806.712.398 0 .774-.04 1.12-.117 1.108-.25 2.271-1.175 3.502-2.154.982-.78 2.376-1.77 3.443-2.06.298-.082.664-.132.959-.132.088.001.17.004.248.014.705.09 1.387.33 2.605 1.244 2.169 1.63 11.775 10.03 11.865 10.113.01.006.62.534.58 1.412-.02.49-.3.925-.77 1.227-.41.259-.83.392-1.26.392a2.083 2.083 0 01-1.112-.323c-.035-.029-3.325-3.046-4.536-4.059-.193-.16-.38-.303-.57-.303a.31.31 0 00-.251.118c-.191.234.023.56.274.773l3.844 3.863c.005.005.478.45.531 1.042.03.64-.276 1.175-.913 1.593-.453.298-.913.45-1.362.45a1.98 1.98 0 01-1.096-.332l-.552-.544c-1.008-.991-2.048-2.016-2.809-2.652-.186-.154-.385-.297-.574-.297a.327.327 0 00-.242.103c-.087.097-.147.27.069.558.089.118.194.217.194.217l2.806 3.149c.023.028.578.687.062 1.345l-.098.125a2.624 2.624 0 01-.261.25c-.478.394-1.118.436-1.37.436a2.23 2.23 0 01-.381-.032c-.276-.05-.462-.127-.552-.234l-.034-.034c-.153-.16-1.567-1.602-2.737-2.579-.154-.129-.346-.292-.545-.292a.331.331 0 00-.253.113c-.232.254.116.633.263.772l2.393 2.638a.565.565 0 01-.092.162c-.085.117-.375.407-1.243.517a2.63 2.63 0 01-.317.019c-.895 0-1.849-.434-2.342-.695a3.571 3.571 0 00-3.227-5.088l-.129.003c.065-.9-.062-2.601-1.809-3.351a3.751 3.751 0 00-1.492-.328c-.381 0-.748.065-1.094.198-.362-.704-.963-1.216-1.747-1.484a3.919 3.919 0 00-1.28-.225c-.727 0-1.397.213-1.995.639a3.024 3.024 0 00-2.348-1.134c-.796 0-1.563.32-2.131.881-.744-.568-3.698-2.444-11.603-4.239a42.598 42.598 0 01-1.8-.496c-.09.428-.158.86-.203 1.297 0 0 1.459.35 1.746.413 8.075 1.794 10.744 3.66 11.195 4.011a3.06 3.06 0 00-.233 1.163 3.032 3.032 0 003.581 2.978c.251 1.227 1.055 2.158 2.283 2.635.358.138.722.209 1.078.209.23 0 .462-.028.689-.086.226.576.737 1.294 1.878 1.757.399.161.799.246 1.188.246.318 0 .629-.056.924-.166a3.57 3.57 0 003.298 2.214c.961.001 1.884-.39 2.557-1.083.576.32 1.793.9 3.021.902.159 0 .309-.011.458-.03 1.22-.154 1.788-.63 2.049-1.002.047-.064.089-.133.125-.204.289.082.606.15.968.15.667 0 1.306-.227 1.953-.697.635-.46 1.087-1.116 1.152-1.676l.004-.025c.213.045.433.068.653.068.685 0 1.36-.214 2.005-.636 1.244-.816 1.462-1.882 1.442-2.578.22.045.44.069.66.069.64 0 1.28-.195 1.88-.58.77-.492 1.23-1.246 1.3-2.125.05-.597-.1-1.199-.41-1.717 2.08-.897 6.85-2.635 12.46-3.9-.04-.434-.1-.864-.18-1.291-6.78 1.506-11.85 3.698-13.12 4.262zM1029.69 45.542v9.172h-3.67v-8.44c0-4.097 2.06-6.132 6.16-6.132 1.85 0 3.26.407 4.29 1.22 1.03-.786 2.44-1.166 4.29-1.166 4.1 0 6.13 2.035 6.1 6.133v8.44h-1.87c-1.19-.083-1.79-.652-1.79-1.792v-7.38c-.08-1.493-.9-2.226-2.5-2.226s-2.41.733-2.44 2.225v9.118h-3.64v-9.172c-.08-1.493-.89-2.225-2.49-2.225s-2.42.732-2.44 2.225zM1064.56 47.361c.11-4.64 2.4-7.22 7.2-7.22h1.09v3.745l-1.67.037c-2.01 0-2.96 1.294-2.96 3.384v7.462h-3.66v-7.407zM1097.88 48.702v-1.175c-.85.353-1.82.497-2.88.714-1.44.271-2.17.95-2.17 2.008.08 1.14.68 1.682 1.82 1.682 2 0 3.23-1.194 3.23-3.23zm-4.82-4.058l-3.36-.004c.13-2.773 1.53-4.621 5.62-4.621 3.97 0 5.97 1.302 6.06 3.962v4.884c0 3.962-2.39 5.725-6.27 5.997-3.45.27-5.84-1.33-5.84-4.505.08-3.446 2.58-4.368 6.22-4.721 1.54-.19 2.33-.652 2.33-1.438-.08-.814-.84-1.202-2.33-1.221-1.69-.023-2.24.988-2.43 1.667zM1107.17 47.496c-.03 2.904.95 4.369 3.01 4.369 2.06 0 3.09-1.465 3.09-4.37-.08-2.767-1.08-4.124-3.04-4.124-1.95 0-2.95 1.357-3.06 4.125zm9.69-11.935V48.5c0 4.314-2.26 6.458-6.73 6.43-4.45-.081-6.68-2.496-6.68-7.271 0-4.884 1.9-7.381 5.73-7.517 1.79 0 3.17.733 4.09 2.225v-4.575l.01-.404c1.2-1.781 3.58-1.827 3.58-1.827zM1052.58 56.955h.95v19.01h-3.61V59.279c0-.542 1.12-2.323 2.66-2.323zM1071.19 72.898c-2.06 0-3.04-1.464-3.01-4.368.11-2.768 1.11-4.124 3.06-4.124 1.96 0 2.96 1.356 3.04 4.124 0 2.904-1.03 4.368-3.09 4.368zm1.06-11.722c-1.79 0-3.15.733-4.07 2.225v-6.446h-.41c-1.8.022-2.75.983-3.2 1.768v-.124 10.935c0 4.314 2.25 6.458 6.73 6.431 4.45-.082 6.67-2.496 6.67-7.272 0-4.884-1.9-7.381-5.72-7.517zM1057.64 43.749c-.46-.505-1.16-.758-2.1-.758-.61 0-1.12.104-1.52.312-.41.207-.73.464-.98.77a2.89 2.89 0 00-.51.974c-.1.343-.16.65-.18.92h6.25c-.18-.974-.5-1.713-.96-2.218zm-4.34 7.358c.58.56 1.41.839 2.49.839.77 0 1.44-.194 2-.582.56-.387.9-.798 1.03-1.23h3.38c-.54 1.676-1.37 2.876-2.49 3.597-1.12.722-2.47 1.082-4.06 1.082-1.1 0-2.09-.175-2.97-.527a6.129 6.129 0 01-2.25-1.502 6.746 6.746 0 01-1.42-2.326c-.33-.901-.5-1.894-.5-2.976 0-1.046.17-2.02.51-2.922.35-.901.83-1.68 1.46-2.34a7.028 7.028 0 012.26-1.555c.88-.379 1.85-.568 2.91-.568 1.19 0 2.23.23 3.11.69.89.46 1.61 1.078 2.18 1.853.57.775.98 1.66 1.23 2.651.26.992.35 2.029.27 3.11h-10.09c.06 1.245.37 2.147.95 2.706zM1080.98 42.946c-.62 0-1.14.142-1.56.424-.42.283-.76.647-1.02 1.093a4.6 4.6 0 00-.56 1.476c-.11.537-.17 1.07-.17 1.598 0 .51.06 1.03.17 1.558.11.528.28 1.007.53 1.434.25.428.58.779 1 1.052.42.273.93.41 1.53.41.93 0 1.64-.26 2.14-.779.5-.519.82-1.216.94-2.09h3.75c-.26 1.877-.99 3.306-2.19 4.29s-2.74 1.476-4.62 1.476c-1.05 0-2.02-.178-2.91-.533a6.469 6.469 0 01-2.25-1.49 6.833 6.833 0 01-1.45-2.281c-.35-.884-.52-1.854-.52-2.91 0-1.093.16-2.109.48-3.047.32-.938.79-1.749 1.41-2.432a6.387 6.387 0 012.27-1.599c.89-.382 1.91-.574 3.06-.574.83 0 1.64.11 2.41.328a6.41 6.41 0 012.08.998 5.318 5.318 0 011.49 1.666c.38.666.6 1.454.66 2.364h-3.8c-.26-1.62-1.21-2.432-2.87-2.432zM1123.16 49.135c.11.538.29 1.02.56 1.449.26.428.61.77 1.05 1.024.44.256.98.383 1.64.383.66 0 1.21-.127 1.65-.383a2.9 2.9 0 001.07-1.024c.26-.428.45-.91.56-1.449.11-.537.16-1.088.16-1.653 0-.564-.05-1.12-.16-1.667a4.36 4.36 0 00-.56-1.448c-.26-.419-.62-.76-1.07-1.025-.44-.264-.99-.396-1.65-.396-.66 0-1.2.133-1.64.396-.44.265-.79.606-1.05 1.025-.27.42-.45.902-.56 1.448a8.221 8.221 0 000 3.32zm-3.53-4.727c.35-.92.84-1.703 1.48-2.35a6.64 6.64 0 012.29-1.503c.9-.355 1.9-.533 3.01-.533 1.11 0 2.12.178 3.02.533.9.355 1.67.857 2.31 1.503.64.647 1.13 1.43 1.48 2.35.34.92.51 1.945.51 3.074 0 1.13-.17 2.15-.51 3.06-.35.912-.84 1.69-1.48 2.337a6.463 6.463 0 01-2.31 1.49c-.9.345-1.91.519-3.02.519s-2.11-.174-3.01-.52a6.47 6.47 0 01-2.29-1.489c-.64-.646-1.13-1.425-1.48-2.336-.34-.911-.52-1.93-.52-3.06 0-1.13.18-2.155.52-3.075zM1080.1 68.517c.11-4.64 2.4-7.22 7.2-7.22h1.09v3.745l-1.68.036c-2 0-2.95 1.295-2.95 3.384v7.463h-3.66v-7.408zM1098.44 64.905c-.46-.505-1.16-.758-2.09-.758-.62 0-1.13.104-1.53.311-.41.208-.73.465-.98.771a2.89 2.89 0 00-.51.975c-.1.342-.16.649-.18.92h6.25c-.18-.975-.5-1.714-.96-2.219zm-4.34 7.358c.58.56 1.41.839 2.49.839.78 0 1.44-.194 2-.582.56-.387.9-.798 1.03-1.23h3.38c-.54 1.677-1.37 2.876-2.49 3.597-1.12.722-2.47 1.082-4.05 1.082-1.1 0-2.1-.175-2.98-.527a6.298 6.298 0 01-2.25-1.501c-.61-.65-1.08-1.425-1.42-2.327-.33-.901-.5-1.894-.5-2.976 0-1.046.17-2.02.52-2.921.34-.902.83-1.682 1.46-2.34a6.817 6.817 0 012.26-1.556c.87-.379 1.84-.568 2.91-.568 1.19 0 2.22.23 3.11.69.88.46 1.61 1.077 2.17 1.853.57.776.98 1.66 1.24 2.651.25.992.34 2.029.27 3.111h-10.1c.06 1.244.37 2.146.95 2.705zM1061.01 60.242h-3.61v-3.288h3.61v3.288zM1061.01 75.966h-3.61V61.895h3.61v14.07z" fill="#DDD"/></g></g><path d="M1237.44 33.85v14.836c.35-.34.67-.73 1.03-1.064 5.1-4.695 14.32-4.374 19.39.207 3.67 3.313 4.89 8.438 4.11 13.24l.28-.663c2.31-5 10.02-5.346 14.77-5.437 2.23-.044 4.47.008 6.71-.044.11-1.987-.33-4.043-1.98-5.289-2.02-1.514-5.86-1.702-8.23-1.086-1.82.476-3.58 1.653-3.76 3.694h-6.27c.2-1.616.79-3.122 1.87-4.343 3.13-3.537 10.09-3.998 14.47-3.46 3.08.38 6.34 1.504 8.22 4.106l-1.69-3.28h6.96l10.08 20.24 10.08-20.234 6.32-.008v.091l-18.27 35.906h-6.64c1.69-3.332 3.48-6.615 5.19-9.936.05-.182-.17-.423-.23-.602l-10.81-20.378c.08.329.21.641.3.97.18.71.31 1.556.34 2.285.25 5.159-.22 10.5.05 15.67l.14 2.055h-5.47c-.03 0-.06-.077-.07-.116-.08-.511-.04-1.102-.13-1.62l-.05-1.964c-1.77 2.167-4.04 3.617-6.78 4.228-6.54 1.456-16.27-.232-15.77-8.778 0-.056.01-.349-.03-.349a13.154 13.154 0 01-7.18 8.281c-4.85 2.18-11.52 1.62-15.64-1.856-.51-.429-.94-.918-1.41-1.385-.01.854-.02 1.713-.09 2.564-.02.263-.05.628-.09.879-.01.039-.04.116-.07.116h-5.79c.24-3.79.24-7.59.24-11.392.01-.047-.04-.16-.08-.16h-23.67c.11 1.975.72 3.934 1.98 5.473 2.1 2.573 5.52 3.404 8.73 2.976 2.65-.353 5.26-1.78 6.07-4.476h6.13c-1.39 7.579-10.55 9.201-16.98 8.358-4.96-.65-9.22-3.072-11.05-7.919-1.22-3.219-1.22-7.532-.24-10.814 1.97-6.535 7.63-8.972 14.04-9.127 7.7-.188 13.86 3.335 14.92 11.4l.14 1.31V33.851h5.91zm-12.13 21.95c-.1-1.337-.36-2.638-1.01-3.82-1.85-3.358-6.13-4.198-9.65-3.56-3.87.702-6.31 3.48-6.72 7.38h17.38zm20.51-7.427c-10.72.752-11.28 17.723-1.11 19.66 5.49 1.047 10.15-2.078 11.07-7.602 1.11-6.72-2.79-12.558-9.96-12.058zm37.92 10.525c-2.43-.014-4.85.077-7.27.091-3.34.163-9.36.462-8.63 5.327.74 4.866 8.33 4.753 11.73 3 3.16-1.624 4.34-5.009 4.17-8.418z" fill="#DDD"/><defs><linearGradient id="paint0_linear_156_109" x1=".144" y1="57.346" x2="1440.14" y2="57.346" gradientUnits="userSpaceOnUse"><stop stop-color="#09D1C7"/><stop offset=".544" stop-color="#5F5AFF"/><stop offset="1" stop-color="#040241"/></linearGradient><clipPath id="clip0_156_109"><path fill="#fff" transform="translate(954.771 35.56)" d="M0 0h178.964v43.991H0z"/></clipPath></defs></svg>